<?xml version="1.0" encoding="UTF-8" standalone="no"?>
<!DOCTYPE svg PUBLIC "-//W3C//DTD SVG 1.1//EN" "http://www.w3.org/Graphics/SVG/1.1/DTD/svg11.dtd">
<svg width="100%" height="100%" viewBox="0 0 1024 510" version="1.1" xmlns="http://www.w3.org/2000/svg" xmlns:xlink="http://www.w3.org/1999/xlink" xml:space="preserve" xmlns:serif="http://www.serif.com/" style="fill-rule:evenodd;clip-rule:evenodd;stroke-linejoin:round;stroke-miterlimit:2;">
    <g transform="matrix(1.51888,0,0,13.7709,-7.54625e-12,-6513.15)">
        <rect x="-0" y="472.965" width="674.182" height="37.035" style="fill:rgb(94,94,94);"/>
    </g>
    <g transform="matrix(0.745732,-0.430549,-0.471007,-0.815808,105.799,493.948)">
        <path d="M73.082,231.629L107.411,285.981L38.754,285.981L73.082,231.629Z" style="fill:rgb(94,94,94);"/>
    </g>
    <g transform="matrix(0.745732,0.430549,0.471007,-0.815808,-112.399,431.017)">
        <path d="M73.082,231.629L107.411,285.981L38.754,285.981L73.082,231.629Z" style="fill:rgb(94,94,94);"/>
    </g>
    <g transform="matrix(5.71621e-17,-0.861097,-0.942014,5.71621e-17,269.398,277.328)">
        <path d="M73.082,231.629L107.411,285.981L38.754,285.981L73.082,231.629Z" style="fill:rgb(94,94,94);"/>
    </g>
    <g transform="matrix(5.71621e-17,-0.861097,-0.942014,5.71621e-17,371.798,159.086)">
        <path d="M73.082,231.629L107.411,285.981L38.754,285.981L73.082,231.629Z" style="fill:rgb(94,94,94);"/>
    </g>
    <g transform="matrix(5.71621e-17,-0.861097,-0.942014,5.71621e-17,269.398,159.086)">
        <path d="M73.082,231.629L107.411,285.981L38.754,285.981L73.082,231.629Z" style="fill:rgb(94,94,94);"/>
    </g>
    <g transform="matrix(4.82919e-17,0.861097,0.942014,-1.72526e-16,-166.998,33.2242)">
        <path d="M73.082,231.629L107.411,285.981L38.754,285.981L73.082,231.629Z" style="fill:rgb(94,94,94);"/>
    </g>
    <g transform="matrix(0.745732,-0.430549,-0.471007,-0.815808,105.799,375.706)">
        <path d="M73.082,231.629L107.411,285.981L38.754,285.981L73.082,231.629Z" style="fill:rgb(94,94,94);"/>
    </g>
    <g transform="matrix(0.745732,0.430549,0.471007,-0.815808,-112.399,312.775)">
        <path d="M73.082,231.629L107.411,285.981L38.754,285.981L73.082,231.629Z" style="fill:rgb(94,94,94);"/>
    </g>
    <g transform="matrix(1.71486e-16,0.861097,0.942014,-2.8581e-16,-166.998,92.3449)">
        <path d="M73.082,231.629L107.411,285.981L38.754,285.981L73.082,231.629Z" style="fill:rgb(94,94,94);"/>
    </g>
    <g transform="matrix(-2.8581e-16,-0.861097,-0.942014,3.42972e-16,269.398,218.207)">
        <path d="M73.082,231.629L107.411,285.981L38.754,285.981L73.082,231.629Z" style="fill:rgb(94,94,94);"/>
    </g>
    <g transform="matrix(1.71486e-16,0.861097,0.942014,-2.8581e-16,-166.998,-25.8965)">
        <path d="M73.082,231.629L107.411,285.981L38.754,285.981L73.082,231.629Z" style="fill:rgb(94,94,94);"/>
    </g>
    <g transform="matrix(-0.745732,-0.430549,-0.471007,0.815808,214.799,-120.465)">
        <path d="M73.082,231.629L107.411,285.981L38.754,285.981L73.082,231.629Z" style="fill:rgb(94,94,94);"/>
    </g>
    <g transform="matrix(-2.8581e-16,-0.861097,-0.942014,3.42972e-16,269.398,99.9658)">
        <path d="M73.082,231.629L107.411,285.981L38.754,285.981L73.082,231.629Z" style="fill:rgb(94,94,94);"/>
    </g>
    <g transform="matrix(-0.745732,0.430549,0.471007,0.815808,-3.39893,-183.396)">
        <path d="M73.082,231.629L107.411,285.981L38.754,285.981L73.082,231.629Z" style="fill:rgb(94,94,94);"/>
    </g>
    <g transform="matrix(0.745732,0.430549,0.471007,-0.815808,-9.99886,431.017)">
        <path d="M73.082,231.629L107.411,285.981L38.754,285.981L73.082,231.629Z" style="fill:rgb(94,94,94);"/>
    </g>
    <g transform="matrix(0.745732,-0.430549,-0.471007,-0.815808,208.199,375.706)">
        <path d="M73.082,231.629L107.411,285.981L38.754,285.981L73.082,231.629Z" style="fill:rgb(94,94,94);"/>
    </g>
    <g transform="matrix(0.745732,0.430549,0.471007,-0.815808,-9.99886,312.775)">
        <path d="M73.082,231.629L107.411,285.981L38.754,285.981L73.082,231.629Z" style="fill:rgb(94,94,94);"/>
    </g>
    <g transform="matrix(1.71486e-16,0.861097,0.942014,-2.8581e-16,-64.5978,92.3449)">
        <path d="M73.082,231.629L107.411,285.981L38.754,285.981L73.082,231.629Z" style="fill:rgb(94,94,94);"/>
    </g>
    <g transform="matrix(-0.745732,0.430549,0.471007,0.815808,99.0011,-65.1544)">
        <path d="M73.082,231.629L107.411,285.981L38.754,285.981L73.082,231.629Z" style="fill:rgb(94,94,94);"/>
    </g>
    <g transform="matrix(1.71486e-16,0.861097,0.942014,-2.8581e-16,-64.5978,-25.8965)">
        <path d="M73.082,231.629L107.411,285.981L38.754,285.981L73.082,231.629Z" style="fill:rgb(94,94,94);"/>
    </g>
    <g transform="matrix(-0.745732,-0.430549,-0.471007,0.815808,317.199,-120.465)">
        <path d="M73.082,231.629L107.411,285.981L38.754,285.981L73.082,231.629Z" style="fill:rgb(94,94,94);"/>
    </g>
    <g transform="matrix(-2.8581e-16,-0.861097,-0.942014,3.42972e-16,371.798,99.9658)">
        <path d="M73.082,231.629L107.411,285.981L38.754,285.981L73.082,231.629Z" style="fill:rgb(94,94,94);"/>
    </g>
    <g transform="matrix(-0.745732,0.430549,0.471007,0.815808,99.0011,-183.396)">
        <path d="M73.082,231.629L107.411,285.981L38.754,285.981L73.082,231.629Z" style="fill:rgb(94,94,94);"/>
    </g>
    <g transform="matrix(5.71621e-17,-0.861097,-0.942014,5.71621e-17,474.198,159.086)">
        <path d="M73.082,231.629L107.411,285.981L38.754,285.981L73.082,231.629Z" style="fill:rgb(94,94,94);"/>
    </g>
    <g transform="matrix(4.82919e-17,0.861097,0.942014,-1.72526e-16,-64.5978,33.2242)">
        <path d="M73.082,231.629L107.411,285.981L38.754,285.981L73.082,231.629Z" style="fill:rgb(94,94,94);"/>
    </g>
    <g transform="matrix(0.745732,-0.430549,-0.471007,-0.815808,310.599,493.948)">
        <path d="M73.082,231.629L107.411,285.981L38.754,285.981L73.082,231.629Z" style="fill:rgb(94,94,94);"/>
    </g>
    <g transform="matrix(0.745732,0.430549,0.471007,-0.815808,92.4011,431.017)">
        <path d="M73.082,231.629L107.411,285.981L38.754,285.981L73.082,231.629Z" style="fill:rgb(94,94,94);"/>
    </g>
    <g transform="matrix(1.71486e-16,0.861097,0.942014,-2.8581e-16,37.8022,210.586)">
        <path d="M73.082,231.629L107.411,285.981L38.754,285.981L73.082,231.629Z" style="fill:rgb(94,94,94);"/>
    </g>
    <g transform="matrix(-0.745732,0.430549,0.471007,0.815808,201.401,53.0869)">
        <path d="M73.082,231.629L107.411,285.981L38.754,285.981L73.082,231.629Z" style="fill:rgb(94,94,94);"/>
    </g>
    <g transform="matrix(0.745732,-0.430549,-0.471007,-0.815808,310.599,375.706)">
        <path d="M73.082,231.629L107.411,285.981L38.754,285.981L73.082,231.629Z" style="fill:rgb(94,94,94);"/>
    </g>
    <g transform="matrix(0.745732,0.430549,0.471007,-0.815808,92.4011,312.775)">
        <path d="M73.082,231.629L107.411,285.981L38.754,285.981L73.082,231.629Z" style="fill:rgb(94,94,94);"/>
    </g>
    <g transform="matrix(1.71486e-16,0.861097,0.942014,-2.8581e-16,37.8022,92.3449)">
        <path d="M73.082,231.629L107.411,285.981L38.754,285.981L73.082,231.629Z" style="fill:rgb(94,94,94);"/>
    </g>
    <g transform="matrix(-0.745732,-0.430549,-0.471007,0.815808,419.599,-2.22327)">
        <path d="M73.082,231.629L107.411,285.981L38.754,285.981L73.082,231.629Z" style="fill:rgb(94,94,94);"/>
    </g>
    <g transform="matrix(-0.745732,0.430549,0.471007,0.815808,201.401,-65.1544)">
        <path d="M73.082,231.629L107.411,285.981L38.754,285.981L73.082,231.629Z" style="fill:rgb(94,94,94);"/>
    </g>
    <g transform="matrix(1.71486e-16,0.861097,0.942014,-2.8581e-16,37.8022,-25.8965)">
        <path d="M73.082,231.629L107.411,285.981L38.754,285.981L73.082,231.629Z" style="fill:rgb(94,94,94);"/>
    </g>
    <g transform="matrix(-0.745732,-0.430549,-0.471007,0.815808,419.599,-120.465)">
        <path d="M73.082,231.629L107.411,285.981L38.754,285.981L73.082,231.629Z" style="fill:rgb(94,94,94);"/>
    </g>
    <g transform="matrix(-2.8581e-16,-0.861097,-0.942014,3.42972e-16,474.198,99.9658)">
        <path d="M73.082,231.629L107.411,285.981L38.754,285.981L73.082,231.629Z" style="fill:rgb(94,94,94);"/>
    </g>
    <g transform="matrix(-0.745732,0.430549,0.471007,0.815808,201.401,-183.396)">
        <path d="M73.082,231.629L107.411,285.981L38.754,285.981L73.082,231.629Z" style="fill:rgb(94,94,94);"/>
    </g>
    <g transform="matrix(5.71621e-17,-0.861097,-0.942014,5.71621e-17,576.598,277.328)">
        <path d="M73.082,231.629L107.411,285.981L38.754,285.981L73.082,231.629Z" style="fill:rgb(94,94,94);"/>
    </g>
    <g transform="matrix(4.82919e-17,0.861097,0.942014,-1.72526e-16,37.8022,151.466)">
        <path d="M73.082,231.629L107.411,285.981L38.754,285.981L73.082,231.629Z" style="fill:rgb(94,94,94);"/>
    </g>
    <g transform="matrix(5.71621e-17,-0.861097,-0.942014,5.71621e-17,576.598,159.086)">
        <path d="M73.082,231.629L107.411,285.981L38.754,285.981L73.082,231.629Z" style="fill:rgb(94,94,94);"/>
    </g>
    <g transform="matrix(4.82919e-17,0.861097,0.942014,-1.72526e-16,37.8022,33.2242)">
        <path d="M73.082,231.629L107.411,285.981L38.754,285.981L73.082,231.629Z" style="fill:rgb(94,94,94);"/>
    </g>
    <g transform="matrix(0.745732,-0.430549,-0.471007,-0.815808,412.999,493.948)">
        <path d="M73.082,231.629L107.411,285.981L38.754,285.981L73.082,231.629Z" style="fill:rgb(94,94,94);"/>
    </g>
    <g transform="matrix(0.745732,0.430549,0.471007,-0.815808,194.801,431.017)">
        <path d="M73.082,231.629L107.411,285.981L38.754,285.981L73.082,231.629Z" style="fill:rgb(94,94,94);"/>
    </g>
    <g transform="matrix(1.71486e-16,0.861097,0.942014,-2.8581e-16,140.202,210.586)">
        <path d="M73.082,231.629L107.411,285.981L38.754,285.981L73.082,231.629Z" style="fill:rgb(94,94,94);"/>
    </g>
    <g transform="matrix(-0.745732,-0.430549,-0.471007,0.815808,521.999,116.018)">
        <path d="M73.082,231.629L107.411,285.981L38.754,285.981L73.082,231.629Z" style="fill:rgb(94,94,94);"/>
    </g>
    <g transform="matrix(-2.8581e-16,-0.861097,-0.942014,3.42972e-16,576.598,336.448)">
        <path d="M73.082,231.629L107.411,285.981L38.754,285.981L73.082,231.629Z" style="fill:rgb(94,94,94);"/>
    </g>
    <g transform="matrix(-0.745732,0.430549,0.471007,0.815808,303.801,53.0869)">
        <path d="M73.082,231.629L107.411,285.981L38.754,285.981L73.082,231.629Z" style="fill:rgb(94,94,94);"/>
    </g>
    <g transform="matrix(0.745732,-0.430549,-0.471007,-0.815808,412.999,375.706)">
        <path d="M73.082,231.629L107.411,285.981L38.754,285.981L73.082,231.629Z" style="fill:rgb(94,94,94);"/>
    </g>
    <g transform="matrix(0.745732,0.430549,0.471007,-0.815808,194.801,312.775)">
        <path d="M73.082,231.629L107.411,285.981L38.754,285.981L73.082,231.629Z" style="fill:rgb(94,94,94);"/>
    </g>
    <g transform="matrix(1.71486e-16,0.861097,0.942014,-2.8581e-16,140.202,92.3449)">
        <path d="M73.082,231.629L107.411,285.981L38.754,285.981L73.082,231.629Z" style="fill:rgb(94,94,94);"/>
    </g>
    <g transform="matrix(-0.745732,-0.430549,-0.471007,0.815808,521.999,-2.22327)">
        <path d="M73.082,231.629L107.411,285.981L38.754,285.981L73.082,231.629Z" style="fill:rgb(94,94,94);"/>
    </g>
    <g transform="matrix(-2.8581e-16,-0.861097,-0.942014,3.42972e-16,576.598,218.207)">
        <path d="M73.082,231.629L107.411,285.981L38.754,285.981L73.082,231.629Z" style="fill:rgb(94,94,94);"/>
    </g>
    <g transform="matrix(-0.745732,0.430549,0.471007,0.815808,303.801,-65.1544)">
        <path d="M73.082,231.629L107.411,285.981L38.754,285.981L73.082,231.629Z" style="fill:rgb(94,94,94);"/>
    </g>
    <g transform="matrix(1.71486e-16,0.861097,0.942014,-2.8581e-16,140.202,-25.8965)">
        <path d="M73.082,231.629L107.411,285.981L38.754,285.981L73.082,231.629Z" style="fill:rgb(94,94,94);"/>
    </g>
    <g transform="matrix(-0.745732,-0.430549,-0.471007,0.815808,521.999,-120.465)">
        <path d="M73.082,231.629L107.411,285.981L38.754,285.981L73.082,231.629Z" style="fill:rgb(94,94,94);"/>
    </g>
    <g transform="matrix(-2.8581e-16,-0.861097,-0.942014,3.42972e-16,576.598,99.9658)">
        <path d="M73.082,231.629L107.411,285.981L38.754,285.981L73.082,231.629Z" style="fill:rgb(94,94,94);"/>
    </g>
    <g transform="matrix(-0.745732,0.430549,0.471007,0.815808,303.801,-183.396)">
        <path d="M73.082,231.629L107.411,285.981L38.754,285.981L73.082,231.629Z" style="fill:rgb(94,94,94);"/>
    </g>
    <g transform="matrix(5.71621e-17,-0.861097,-0.942014,5.71621e-17,678.998,277.328)">
        <path d="M73.082,231.629L107.411,285.981L38.754,285.981L73.082,231.629Z" style="fill:rgb(94,94,94);"/>
    </g>
    <g transform="matrix(4.82919e-17,0.861097,0.942014,-1.72526e-16,140.202,151.466)">
        <path d="M73.082,231.629L107.411,285.981L38.754,285.981L73.082,231.629Z" style="fill:rgb(94,94,94);"/>
    </g>
    <g transform="matrix(5.71621e-17,-0.861097,-0.942014,5.71621e-17,678.998,159.086)">
        <path d="M73.082,231.629L107.411,285.981L38.754,285.981L73.082,231.629Z" style="fill:rgb(94,94,94);"/>
    </g>
    <g transform="matrix(4.82919e-17,0.861097,0.942014,-1.72526e-16,140.202,33.2242)">
        <path d="M73.082,231.629L107.411,285.981L38.754,285.981L73.082,231.629Z" style="fill:rgb(94,94,94);"/>
    </g>
    <g transform="matrix(0.745732,-0.430549,-0.471007,-0.815808,515.399,493.948)">
        <path d="M73.082,231.629L107.411,285.981L38.754,285.981L73.082,231.629Z" style="fill:rgb(94,94,94);"/>
    </g>
    <g transform="matrix(0.745732,0.430549,0.471007,-0.815808,297.201,431.017)">
        <path d="M73.082,231.629L107.411,285.981L38.754,285.981L73.082,231.629Z" style="fill:rgb(94,94,94);"/>
    </g>
    <g transform="matrix(1.71486e-16,0.861097,0.942014,-2.8581e-16,242.602,210.586)">
        <path d="M73.082,231.629L107.411,285.981L38.754,285.981L73.082,231.629Z" style="fill:rgb(94,94,94);"/>
    </g>
    <g transform="matrix(-0.745732,-0.430549,-0.471007,0.815808,624.399,116.018)">
        <path d="M73.082,231.629L107.411,285.981L38.754,285.981L73.082,231.629Z" style="fill:rgb(94,94,94);"/>
    </g>
    <g transform="matrix(-2.8581e-16,-0.861097,-0.942014,3.42972e-16,678.998,336.448)">
        <path d="M73.082,231.629L107.411,285.981L38.754,285.981L73.082,231.629Z" style="fill:rgb(94,94,94);"/>
    </g>
    <g transform="matrix(-0.745732,0.430549,0.471007,0.815808,406.201,53.0869)">
        <path d="M73.082,231.629L107.411,285.981L38.754,285.981L73.082,231.629Z" style="fill:rgb(94,94,94);"/>
    </g>
    <g transform="matrix(0.745732,-0.430549,-0.471007,-0.815808,515.399,375.706)">
        <path d="M73.082,231.629L107.411,285.981L38.754,285.981L73.082,231.629Z" style="fill:rgb(94,94,94);"/>
    </g>
    <g transform="matrix(0.745732,0.430549,0.471007,-0.815808,297.201,312.775)">
        <path d="M73.082,231.629L107.411,285.981L38.754,285.981L73.082,231.629Z" style="fill:rgb(94,94,94);"/>
    </g>
    <g transform="matrix(1.71486e-16,0.861097,0.942014,-2.8581e-16,242.602,92.3449)">
        <path d="M73.082,231.629L107.411,285.981L38.754,285.981L73.082,231.629Z" style="fill:rgb(94,94,94);"/>
    </g>
    <g transform="matrix(-0.745732,-0.430549,-0.471007,0.815808,624.399,-2.22327)">
        <path d="M73.082,231.629L107.411,285.981L38.754,285.981L73.082,231.629Z" style="fill:rgb(94,94,94);"/>
    </g>
    <g transform="matrix(-2.8581e-16,-0.861097,-0.942014,3.42972e-16,678.998,218.207)">
        <path d="M73.082,231.629L107.411,285.981L38.754,285.981L73.082,231.629Z" style="fill:rgb(94,94,94);"/>
    </g>
    <g transform="matrix(-0.745732,0.430549,0.471007,0.815808,406.201,-65.1544)">
        <path d="M73.082,231.629L107.411,285.981L38.754,285.981L73.082,231.629Z" style="fill:rgb(94,94,94);"/>
    </g>
    <g transform="matrix(1.71486e-16,0.861097,0.942014,-2.8581e-16,242.602,-25.8965)">
        <path d="M73.082,231.629L107.411,285.981L38.754,285.981L73.082,231.629Z" style="fill:rgb(94,94,94);"/>
    </g>
    <g transform="matrix(-0.745732,-0.430549,-0.471007,0.815808,624.399,-120.465)">
        <path d="M73.082,231.629L107.411,285.981L38.754,285.981L73.082,231.629Z" style="fill:rgb(94,94,94);"/>
    </g>
    <g transform="matrix(-2.8581e-16,-0.861097,-0.942014,3.42972e-16,678.998,99.9658)">
        <path d="M73.082,231.629L107.411,285.981L38.754,285.981L73.082,231.629Z" style="fill:rgb(94,94,94);"/>
    </g>
    <g transform="matrix(-0.745732,0.430549,0.471007,0.815808,406.201,-183.396)">
        <path d="M73.082,231.629L107.411,285.981L38.754,285.981L73.082,231.629Z" style="fill:rgb(94,94,94);"/>
    </g>
    <g transform="matrix(5.71621e-17,-0.861097,-0.942014,5.71621e-17,781.398,277.328)">
        <path d="M73.082,231.629L107.411,285.981L38.754,285.981L73.082,231.629Z" style="fill:rgb(94,94,94);"/>
    </g>
    <g transform="matrix(4.82919e-17,0.861097,0.942014,-1.72526e-16,242.602,151.466)">
        <path d="M73.082,231.629L107.411,285.981L38.754,285.981L73.082,231.629Z" style="fill:rgb(94,94,94);"/>
    </g>
    <g transform="matrix(5.71621e-17,-0.861097,-0.942014,5.71621e-17,781.398,159.086)">
        <path d="M73.082,231.629L107.411,285.981L38.754,285.981L73.082,231.629Z" style="fill:rgb(94,94,94);"/>
    </g>
    <g transform="matrix(4.82919e-17,0.861097,0.942014,-1.72526e-16,242.602,33.2242)">
        <path d="M73.082,231.629L107.411,285.981L38.754,285.981L73.082,231.629Z" style="fill:rgb(94,94,94);"/>
    </g>
    <g transform="matrix(0.745732,-0.430549,-0.471007,-0.815808,617.799,493.948)">
        <path d="M73.082,231.629L107.411,285.981L38.754,285.981L73.082,231.629Z" style="fill:rgb(94,94,94);"/>
    </g>
    <g transform="matrix(0.745732,0.430549,0.471007,-0.815808,399.601,431.017)">
        <path d="M73.082,231.629L107.411,285.981L38.754,285.981L73.082,231.629Z" style="fill:rgb(94,94,94);"/>
    </g>
    <g transform="matrix(1.71486e-16,0.861097,0.942014,-2.8581e-16,345.002,210.586)">
        <path d="M73.082,231.629L107.411,285.981L38.754,285.981L73.082,231.629Z" style="fill:rgb(94,94,94);"/>
    </g>
    <g transform="matrix(-0.745732,-0.430549,-0.471007,0.815808,726.799,116.018)">
        <path d="M73.082,231.629L107.411,285.981L38.754,285.981L73.082,231.629Z" style="fill:rgb(94,94,94);"/>
    </g>
    <g transform="matrix(-2.8581e-16,-0.861097,-0.942014,3.42972e-16,781.398,336.448)">
        <path d="M73.082,231.629L107.411,285.981L38.754,285.981L73.082,231.629Z" style="fill:rgb(94,94,94);"/>
    </g>
    <g transform="matrix(-0.745732,0.430549,0.471007,0.815808,508.601,53.0869)">
        <path d="M73.082,231.629L107.411,285.981L38.754,285.981L73.082,231.629Z" style="fill:rgb(94,94,94);"/>
    </g>
    <g transform="matrix(0.745732,-0.430549,-0.471007,-0.815808,617.799,375.706)">
        <path d="M73.082,231.629L107.411,285.981L38.754,285.981L73.082,231.629Z" style="fill:rgb(94,94,94);"/>
    </g>
    <g transform="matrix(0.745732,0.430549,0.471007,-0.815808,399.601,312.775)">
        <path d="M73.082,231.629L107.411,285.981L38.754,285.981L73.082,231.629Z" style="fill:rgb(94,94,94);"/>
    </g>
    <g transform="matrix(1.71486e-16,0.861097,0.942014,-2.8581e-16,345.002,92.3449)">
        <path d="M73.082,231.629L107.411,285.981L38.754,285.981L73.082,231.629Z" style="fill:rgb(94,94,94);"/>
    </g>
    <g transform="matrix(-0.745732,-0.430549,-0.471007,0.815808,726.799,-2.22327)">
        <path d="M73.082,231.629L107.411,285.981L38.754,285.981L73.082,231.629Z" style="fill:rgb(94,94,94);"/>
    </g>
    <g transform="matrix(-2.8581e-16,-0.861097,-0.942014,3.42972e-16,781.398,218.207)">
        <path d="M73.082,231.629L107.411,285.981L38.754,285.981L73.082,231.629Z" style="fill:rgb(94,94,94);"/>
    </g>
    <g transform="matrix(-0.745732,0.430549,0.471007,0.815808,508.601,-65.1544)">
        <path d="M73.082,231.629L107.411,285.981L38.754,285.981L73.082,231.629Z" style="fill:rgb(94,94,94);"/>
    </g>
    <g transform="matrix(1.71486e-16,0.861097,0.942014,-2.8581e-16,345.002,-25.8965)">
        <path d="M73.082,231.629L107.411,285.981L38.754,285.981L73.082,231.629Z" style="fill:rgb(94,94,94);"/>
    </g>
    <g transform="matrix(-0.745732,-0.430549,-0.471007,0.815808,726.799,-120.465)">
        <path d="M73.082,231.629L107.411,285.981L38.754,285.981L73.082,231.629Z" style="fill:rgb(94,94,94);"/>
    </g>
    <g transform="matrix(-2.8581e-16,-0.861097,-0.942014,3.42972e-16,781.398,99.9658)">
        <path d="M73.082,231.629L107.411,285.981L38.754,285.981L73.082,231.629Z" style="fill:rgb(94,94,94);"/>
    </g>
    <g transform="matrix(-0.745732,0.430549,0.471007,0.815808,508.601,-183.396)">
        <path d="M73.082,231.629L107.411,285.981L38.754,285.981L73.082,231.629Z" style="fill:rgb(94,94,94);"/>
    </g>
    <g transform="matrix(5.71621e-17,-0.861097,-0.942014,5.71621e-17,883.798,277.328)">
        <path d="M73.082,231.629L107.411,285.981L38.754,285.981L73.082,231.629Z" style="fill:rgb(94,94,94);"/>
    </g>
    <g transform="matrix(4.82919e-17,0.861097,0.942014,-1.72526e-16,345.002,151.466)">
        <path d="M73.082,231.629L107.411,285.981L38.754,285.981L73.082,231.629Z" style="fill:rgb(94,94,94);"/>
    </g>
    <g transform="matrix(5.71621e-17,-0.861097,-0.942014,5.71621e-17,883.798,159.086)">
        <path d="M73.082,231.629L107.411,285.981L38.754,285.981L73.082,231.629Z" style="fill:rgb(94,94,94);"/>
    </g>
    <g transform="matrix(4.82919e-17,0.861097,0.942014,-1.72526e-16,345.002,33.2242)">
        <path d="M73.082,231.629L107.411,285.981L38.754,285.981L73.082,231.629Z" style="fill:rgb(94,94,94);"/>
    </g>
    <g transform="matrix(0.745732,-0.430549,-0.471007,-0.815808,720.199,493.948)">
        <path d="M73.082,231.629L107.411,285.981L38.754,285.981L73.082,231.629Z" style="fill:rgb(94,94,94);"/>
    </g>
    <g transform="matrix(0.745732,0.430549,0.471007,-0.815808,502.001,431.017)">
        <path d="M73.082,231.629L107.411,285.981L38.754,285.981L73.082,231.629Z" style="fill:rgb(94,94,94);"/>
    </g>
    <g transform="matrix(1.71486e-16,0.861097,0.942014,-2.8581e-16,447.402,210.586)">
        <path d="M73.082,231.629L107.411,285.981L38.754,285.981L73.082,231.629Z" style="fill:rgb(94,94,94);"/>
    </g>
    <g transform="matrix(-0.745732,-0.430549,-0.471007,0.815808,829.199,116.018)">
        <path d="M73.082,231.629L107.411,285.981L38.754,285.981L73.082,231.629Z" style="fill:rgb(94,94,94);"/>
    </g>
    <g transform="matrix(-2.8581e-16,-0.861097,-0.942014,3.42972e-16,883.798,336.448)">
        <path d="M73.082,231.629L107.411,285.981L38.754,285.981L73.082,231.629Z" style="fill:rgb(94,94,94);"/>
    </g>
    <g transform="matrix(-0.745732,0.430549,0.471007,0.815808,611.001,53.0869)">
        <path d="M73.082,231.629L107.411,285.981L38.754,285.981L73.082,231.629Z" style="fill:rgb(94,94,94);"/>
    </g>
    <g transform="matrix(0.745732,-0.430549,-0.471007,-0.815808,720.199,375.706)">
        <path d="M73.082,231.629L107.411,285.981L38.754,285.981L73.082,231.629Z" style="fill:rgb(94,94,94);"/>
    </g>
    <g transform="matrix(0.745732,0.430549,0.471007,-0.815808,502.001,312.775)">
        <path d="M73.082,231.629L107.411,285.981L38.754,285.981L73.082,231.629Z" style="fill:rgb(94,94,94);"/>
    </g>
    <g transform="matrix(1.71486e-16,0.861097,0.942014,-2.8581e-16,447.402,92.3449)">
        <path d="M73.082,231.629L107.411,285.981L38.754,285.981L73.082,231.629Z" style="fill:rgb(94,94,94);"/>
    </g>
    <g transform="matrix(-0.745732,-0.430549,-0.471007,0.815808,829.199,-2.22327)">
        <path d="M73.082,231.629L107.411,285.981L38.754,285.981L73.082,231.629Z" style="fill:rgb(94,94,94);"/>
    </g>
    <g transform="matrix(-2.8581e-16,-0.861097,-0.942014,3.42972e-16,883.798,218.207)">
        <path d="M73.082,231.629L107.411,285.981L38.754,285.981L73.082,231.629Z" style="fill:rgb(94,94,94);"/>
    </g>
    <g transform="matrix(-0.745732,0.430549,0.471007,0.815808,611.001,-65.1544)">
        <path d="M73.082,231.629L107.411,285.981L38.754,285.981L73.082,231.629Z" style="fill:rgb(94,94,94);"/>
    </g>
    <g transform="matrix(1.71486e-16,0.861097,0.942014,-2.8581e-16,447.402,-25.8965)">
        <path d="M73.082,231.629L107.411,285.981L38.754,285.981L73.082,231.629Z" style="fill:rgb(94,94,94);"/>
    </g>
    <g transform="matrix(-0.745732,-0.430549,-0.471007,0.815808,829.199,-120.465)">
        <path d="M73.082,231.629L107.411,285.981L38.754,285.981L73.082,231.629Z" style="fill:rgb(94,94,94);"/>
    </g>
    <g transform="matrix(-2.8581e-16,-0.861097,-0.942014,3.42972e-16,883.798,99.9658)">
        <path d="M73.082,231.629L107.411,285.981L38.754,285.981L73.082,231.629Z" style="fill:rgb(94,94,94);"/>
    </g>
    <g transform="matrix(-0.745732,0.430549,0.471007,0.815808,611.001,-183.396)">
        <path d="M73.082,231.629L107.411,285.981L38.754,285.981L73.082,231.629Z" style="fill:rgb(94,94,94);"/>
    </g>
    <g transform="matrix(5.71621e-17,-0.861097,-0.942014,5.71621e-17,986.198,277.328)">
        <path d="M73.082,231.629L107.411,285.981L38.754,285.981L73.082,231.629Z" style="fill:rgb(94,94,94);"/>
    </g>
    <g transform="matrix(4.82919e-17,0.861097,0.942014,-1.72526e-16,447.402,151.466)">
        <path d="M73.082,231.629L107.411,285.981L38.754,285.981L73.082,231.629Z" style="fill:rgb(94,94,94);"/>
    </g>
    <g transform="matrix(5.71621e-17,-0.861097,-0.942014,5.71621e-17,986.198,159.086)">
        <path d="M73.082,231.629L107.411,285.981L38.754,285.981L73.082,231.629Z" style="fill:rgb(94,94,94);"/>
    </g>
    <g transform="matrix(4.82919e-17,0.861097,0.942014,-1.72526e-16,447.402,33.2242)">
        <path d="M73.082,231.629L107.411,285.981L38.754,285.981L73.082,231.629Z" style="fill:rgb(94,94,94);"/>
    </g>
    <g transform="matrix(0.745732,-0.430549,-0.471007,-0.815808,822.599,493.948)">
        <path d="M73.082,231.629L107.411,285.981L38.754,285.981L73.082,231.629Z" style="fill:rgb(94,94,94);"/>
    </g>
    <g transform="matrix(0.745732,0.430549,0.471007,-0.815808,604.401,431.017)">
        <path d="M73.082,231.629L107.411,285.981L38.754,285.981L73.082,231.629Z" style="fill:rgb(94,94,94);"/>
    </g>
    <g transform="matrix(1.71486e-16,0.861097,0.942014,-2.8581e-16,549.802,210.586)">
        <path d="M73.082,231.629L107.411,285.981L38.754,285.981L73.082,231.629Z" style="fill:rgb(94,94,94);"/>
    </g>
    <g transform="matrix(-0.745732,-0.430549,-0.471007,0.815808,931.599,116.018)">
        <path d="M73.082,231.629L107.411,285.981L38.754,285.981L73.082,231.629Z" style="fill:rgb(94,94,94);"/>
    </g>
    <g transform="matrix(-2.8581e-16,-0.861097,-0.942014,3.42972e-16,986.198,336.448)">
        <path d="M73.082,231.629L107.411,285.981L38.754,285.981L73.082,231.629Z" style="fill:rgb(94,94,94);"/>
    </g>
    <g transform="matrix(-0.745732,0.430549,0.471007,0.815808,713.401,53.0869)">
        <path d="M73.082,231.629L107.411,285.981L38.754,285.981L73.082,231.629Z" style="fill:rgb(94,94,94);"/>
    </g>
    <g transform="matrix(0.745732,-0.430549,-0.471007,-0.815808,822.599,375.706)">
        <path d="M73.082,231.629L107.411,285.981L38.754,285.981L73.082,231.629Z" style="fill:rgb(94,94,94);"/>
    </g>
    <g transform="matrix(-2.8581e-16,-0.861097,-0.942014,3.42972e-16,986.198,218.207)">
        <path d="M73.082,231.629L107.411,285.981L38.754,285.981L73.082,231.629Z" style="fill:rgb(94,94,94);"/>
    </g>
    <g transform="matrix(-2.8581e-16,-0.861097,-0.942014,3.42972e-16,986.198,99.9658)">
        <path d="M73.082,231.629L107.411,285.981L38.754,285.981L73.082,231.629Z" style="fill:rgb(94,94,94);"/>
    </g>
    <g transform="matrix(5.71621e-17,-0.861097,-0.942014,5.71621e-17,1088.6,277.328)">
        <path d="M73.082,231.629L107.411,285.981L38.754,285.981L73.082,231.629Z" style="fill:rgb(94,94,94);"/>
    </g>
    <g transform="matrix(0.745732,0.430549,0.471007,-0.815808,706.801,431.017)">
        <path d="M73.082,231.629L107.411,285.981L38.754,285.981L73.082,231.629Z" style="fill:rgb(94,94,94);"/>
    </g>
    <g transform="matrix(-0.745732,-0.430549,-0.471007,0.815808,1034,116.018)">
        <path d="M73.082,231.629L107.411,285.981L38.754,285.981L73.082,231.629Z" style="fill:rgb(94,94,94);"/>
    </g>
    <g transform="matrix(0.745732,-0.430549,-0.471007,-0.815808,310.599,612.189)">
        <path d="M73.082,231.629L107.411,285.981L38.754,285.981L73.082,231.629Z" style="fill:rgb(94,94,94);"/>
    </g>
    <g transform="matrix(0.745732,0.430549,0.471007,-0.815808,92.4011,549.258)">
        <path d="M73.082,231.629L107.411,285.981L38.754,285.981L73.082,231.629Z" style="fill:rgb(94,94,94);"/>
    </g>
    <g transform="matrix(1.71486e-16,0.861097,0.942014,-2.8581e-16,37.8022,328.828)">
        <path d="M73.082,231.629L107.411,285.981L38.754,285.981L73.082,231.629Z" style="fill:rgb(94,94,94);"/>
    </g>
    <g transform="matrix(-0.745732,-0.430549,-0.471007,0.815808,419.599,234.259)">
        <path d="M73.082,231.629L107.411,285.981L38.754,285.981L73.082,231.629Z" style="fill:rgb(94,94,94);"/>
    </g>
    <g transform="matrix(-0.745732,0.430549,0.471007,0.815808,201.401,171.328)">
        <path d="M73.082,231.629L107.411,285.981L38.754,285.981L73.082,231.629Z" style="fill:rgb(94,94,94);"/>
    </g>
    <g transform="matrix(5.71621e-17,-0.861097,-0.942014,5.71621e-17,576.598,395.569)">
        <path d="M73.082,231.629L107.411,285.981L38.754,285.981L73.082,231.629Z" style="fill:rgb(94,94,94);"/>
    </g>
    <g transform="matrix(4.82919e-17,0.861097,0.942014,-1.72526e-16,37.8022,269.707)">
        <path d="M73.082,231.629L107.411,285.981L38.754,285.981L73.082,231.629Z" style="fill:rgb(94,94,94);"/>
    </g>
    <g transform="matrix(0.745732,-0.430549,-0.471007,-0.815808,412.999,612.189)">
        <path d="M73.082,231.629L107.411,285.981L38.754,285.981L73.082,231.629Z" style="fill:rgb(94,94,94);"/>
    </g>
    <g transform="matrix(0.745732,0.430549,0.471007,-0.815808,194.801,549.258)">
        <path d="M73.082,231.629L107.411,285.981L38.754,285.981L73.082,231.629Z" style="fill:rgb(94,94,94);"/>
    </g>
    <g transform="matrix(1.71486e-16,0.861097,0.942014,-2.8581e-16,140.202,328.828)">
        <path d="M73.082,231.629L107.411,285.981L38.754,285.981L73.082,231.629Z" style="fill:rgb(94,94,94);"/>
    </g>
    <g transform="matrix(-0.745732,-0.430549,-0.471007,0.815808,521.999,234.259)">
        <path d="M73.082,231.629L107.411,285.981L38.754,285.981L73.082,231.629Z" style="fill:rgb(94,94,94);"/>
    </g>
    <g transform="matrix(-2.8581e-16,-0.861097,-0.942014,3.42972e-16,576.598,454.69)">
        <path d="M73.082,231.629L107.411,285.981L38.754,285.981L73.082,231.629Z" style="fill:rgb(94,94,94);"/>
    </g>
    <g transform="matrix(-0.745732,0.430549,0.471007,0.815808,303.801,171.328)">
        <path d="M73.082,231.629L107.411,285.981L38.754,285.981L73.082,231.629Z" style="fill:rgb(94,94,94);"/>
    </g>
    <g transform="matrix(5.71621e-17,-0.861097,-0.942014,5.71621e-17,678.998,395.569)">
        <path d="M73.082,231.629L107.411,285.981L38.754,285.981L73.082,231.629Z" style="fill:rgb(94,94,94);"/>
    </g>
    <g transform="matrix(4.82919e-17,0.861097,0.942014,-1.72526e-16,140.202,269.707)">
        <path d="M73.082,231.629L107.411,285.981L38.754,285.981L73.082,231.629Z" style="fill:rgb(94,94,94);"/>
    </g>
    <g transform="matrix(0.745732,-0.430549,-0.471007,-0.815808,515.399,612.189)">
        <path d="M73.082,231.629L107.411,285.981L38.754,285.981L73.082,231.629Z" style="fill:rgb(94,94,94);"/>
    </g>
    <g transform="matrix(0.745732,0.430549,0.471007,-0.815808,297.201,549.258)">
        <path d="M73.082,231.629L107.411,285.981L38.754,285.981L73.082,231.629Z" style="fill:rgb(94,94,94);"/>
    </g>
    <g transform="matrix(1.71486e-16,0.861097,0.942014,-2.8581e-16,242.602,328.828)">
        <path d="M73.082,231.629L107.411,285.981L38.754,285.981L73.082,231.629Z" style="fill:rgb(94,94,94);"/>
    </g>
    <g transform="matrix(-0.745732,-0.430549,-0.471007,0.815808,624.399,234.259)">
        <path d="M73.082,231.629L107.411,285.981L38.754,285.981L73.082,231.629Z" style="fill:rgb(94,94,94);"/>
    </g>
    <g transform="matrix(-2.8581e-16,-0.861097,-0.942014,3.42972e-16,678.998,454.69)">
        <path d="M73.082,231.629L107.411,285.981L38.754,285.981L73.082,231.629Z" style="fill:rgb(94,94,94);"/>
    </g>
    <g transform="matrix(-0.745732,0.430549,0.471007,0.815808,406.201,171.328)">
        <path d="M73.082,231.629L107.411,285.981L38.754,285.981L73.082,231.629Z" style="fill:rgb(94,94,94);"/>
    </g>
    <g transform="matrix(5.71621e-17,-0.861097,-0.942014,5.71621e-17,781.398,395.569)">
        <path d="M73.082,231.629L107.411,285.981L38.754,285.981L73.082,231.629Z" style="fill:rgb(94,94,94);"/>
    </g>
    <g transform="matrix(4.82919e-17,0.861097,0.942014,-1.72526e-16,242.602,269.707)">
        <path d="M73.082,231.629L107.411,285.981L38.754,285.981L73.082,231.629Z" style="fill:rgb(94,94,94);"/>
    </g>
    <g transform="matrix(0.745732,-0.430549,-0.471007,-0.815808,617.799,612.189)">
        <path d="M73.082,231.629L107.411,285.981L38.754,285.981L73.082,231.629Z" style="fill:rgb(94,94,94);"/>
    </g>
    <g transform="matrix(0.745732,0.430549,0.471007,-0.815808,399.601,549.258)">
        <path d="M73.082,231.629L107.411,285.981L38.754,285.981L73.082,231.629Z" style="fill:rgb(94,94,94);"/>
    </g>
    <g transform="matrix(1.71486e-16,0.861097,0.942014,-2.8581e-16,345.002,328.828)">
        <path d="M73.082,231.629L107.411,285.981L38.754,285.981L73.082,231.629Z" style="fill:rgb(94,94,94);"/>
    </g>
    <g transform="matrix(-0.745732,-0.430549,-0.471007,0.815808,726.799,234.259)">
        <path d="M73.082,231.629L107.411,285.981L38.754,285.981L73.082,231.629Z" style="fill:rgb(94,94,94);"/>
    </g>
    <g transform="matrix(-2.8581e-16,-0.861097,-0.942014,3.42972e-16,781.398,454.69)">
        <path d="M73.082,231.629L107.411,285.981L38.754,285.981L73.082,231.629Z" style="fill:rgb(94,94,94);"/>
    </g>
    <g transform="matrix(-0.745732,0.430549,0.471007,0.815808,508.601,171.328)">
        <path d="M73.082,231.629L107.411,285.981L38.754,285.981L73.082,231.629Z" style="fill:rgb(94,94,94);"/>
    </g>
    <g transform="matrix(5.71621e-17,-0.861097,-0.942014,5.71621e-17,883.798,395.569)">
        <path d="M73.082,231.629L107.411,285.981L38.754,285.981L73.082,231.629Z" style="fill:rgb(94,94,94);"/>
    </g>
    <g transform="matrix(4.82919e-17,0.861097,0.942014,-1.72526e-16,345.002,269.707)">
        <path d="M73.082,231.629L107.411,285.981L38.754,285.981L73.082,231.629Z" style="fill:rgb(94,94,94);"/>
    </g>
    <g transform="matrix(0.745732,-0.430549,-0.471007,-0.815808,720.199,612.189)">
        <path d="M73.082,231.629L107.411,285.981L38.754,285.981L73.082,231.629Z" style="fill:rgb(94,94,94);"/>
    </g>
    <g transform="matrix(0.745732,0.430549,0.471007,-0.815808,502.001,549.258)">
        <path d="M73.082,231.629L107.411,285.981L38.754,285.981L73.082,231.629Z" style="fill:rgb(94,94,94);"/>
    </g>
    <g transform="matrix(1.71486e-16,0.861097,0.942014,-2.8581e-16,447.402,328.828)">
        <path d="M73.082,231.629L107.411,285.981L38.754,285.981L73.082,231.629Z" style="fill:rgb(94,94,94);"/>
    </g>
    <g transform="matrix(-0.745732,-0.430549,-0.471007,0.815808,829.199,234.259)">
        <path d="M73.082,231.629L107.411,285.981L38.754,285.981L73.082,231.629Z" style="fill:rgb(94,94,94);"/>
    </g>
    <g transform="matrix(-2.8581e-16,-0.861097,-0.942014,3.42972e-16,883.798,454.69)">
        <path d="M73.082,231.629L107.411,285.981L38.754,285.981L73.082,231.629Z" style="fill:rgb(94,94,94);"/>
    </g>
    <g transform="matrix(-0.745732,0.430549,0.471007,0.815808,611.001,171.328)">
        <path d="M73.082,231.629L107.411,285.981L38.754,285.981L73.082,231.629Z" style="fill:rgb(94,94,94);"/>
    </g>
    <g transform="matrix(5.71621e-17,-0.861097,-0.942014,5.71621e-17,986.198,395.569)">
        <path d="M73.082,231.629L107.411,285.981L38.754,285.981L73.082,231.629Z" style="fill:rgb(94,94,94);"/>
    </g>
    <g transform="matrix(4.82919e-17,0.861097,0.942014,-1.72526e-16,447.402,269.707)">
        <path d="M73.082,231.629L107.411,285.981L38.754,285.981L73.082,231.629Z" style="fill:rgb(94,94,94);"/>
    </g>
    <g transform="matrix(0.745732,-0.430549,-0.471007,-0.815808,822.599,612.189)">
        <path d="M73.082,231.629L107.411,285.981L38.754,285.981L73.082,231.629Z" style="fill:rgb(94,94,94);"/>
    </g>
    <g transform="matrix(0.745732,0.430549,0.471007,-0.815808,604.401,549.258)">
        <path d="M73.082,231.629L107.411,285.981L38.754,285.981L73.082,231.629Z" style="fill:rgb(94,94,94);"/>
    </g>
    <g transform="matrix(1.71486e-16,0.861097,0.942014,-2.8581e-16,549.802,328.828)">
        <path d="M73.082,231.629L107.411,285.981L38.754,285.981L73.082,231.629Z" style="fill:rgb(94,94,94);"/>
    </g>
    <g transform="matrix(-0.745732,-0.430549,-0.471007,0.815808,931.599,234.259)">
        <path d="M73.082,231.629L107.411,285.981L38.754,285.981L73.082,231.629Z" style="fill:rgb(94,94,94);"/>
    </g>
    <g transform="matrix(-2.8581e-16,-0.861097,-0.942014,3.42972e-16,986.198,454.69)">
        <path d="M73.082,231.629L107.411,285.981L38.754,285.981L73.082,231.629Z" style="fill:rgb(94,94,94);"/>
    </g>
    <g transform="matrix(-0.745732,0.430549,0.471007,0.815808,713.401,171.328)">
        <path d="M73.082,231.629L107.411,285.981L38.754,285.981L73.082,231.629Z" style="fill:rgb(94,94,94);"/>
    </g>
    <g transform="matrix(5.71621e-17,-0.861097,-0.942014,5.71621e-17,1088.6,395.569)">
        <path d="M73.082,231.629L107.411,285.981L38.754,285.981L73.082,231.629Z" style="fill:rgb(94,94,94);"/>
    </g>
    <g transform="matrix(4.82919e-17,0.861097,0.942014,-1.72526e-16,549.802,269.707)">
        <path d="M73.082,231.629L107.411,285.981L38.754,285.981L73.082,231.629Z" style="fill:rgb(94,94,94);"/>
    </g>
    <g transform="matrix(0.745732,-0.430549,-0.471007,-0.815808,924.999,612.189)">
        <path d="M73.082,231.629L107.411,285.981L38.754,285.981L73.082,231.629Z" style="fill:rgb(94,94,94);"/>
    </g>
    <g transform="matrix(0.745732,0.430549,0.471007,-0.815808,706.801,549.258)">
        <path d="M73.082,231.629L107.411,285.981L38.754,285.981L73.082,231.629Z" style="fill:rgb(94,94,94);"/>
    </g>
    <g transform="matrix(1.71486e-16,0.861097,0.942014,-2.8581e-16,652.202,328.828)">
        <path d="M73.082,231.629L107.411,285.981L38.754,285.981L73.082,231.629Z" style="fill:rgb(94,94,94);"/>
    </g>
    <g transform="matrix(-0.745732,-0.430549,-0.471007,0.815808,1034,234.259)">
        <path d="M73.082,231.629L107.411,285.981L38.754,285.981L73.082,231.629Z" style="fill:rgb(94,94,94);"/>
    </g>
    <g transform="matrix(-2.8581e-16,-0.861097,-0.942014,3.42972e-16,1088.6,454.69)">
        <path d="M73.082,231.629L107.411,285.981L38.754,285.981L73.082,231.629Z" style="fill:rgb(94,94,94);"/>
    </g>
    <g transform="matrix(-0.745732,0.430549,0.471007,0.815808,815.801,171.328)">
        <path d="M73.082,231.629L107.411,285.981L38.754,285.981L73.082,231.629Z" style="fill:rgb(94,94,94);"/>
    </g>
    <g transform="matrix(-0.745732,-0.430549,-0.471007,0.815808,1136.4,234.259)">
        <path d="M73.082,231.629L107.411,285.981L38.754,285.981L73.082,231.629Z" style="fill:rgb(94,94,94);"/>
    </g>
    <g transform="matrix(-2.8581e-16,-0.861097,-0.942014,3.42972e-16,1191,454.69)">
        <path d="M73.082,231.629L107.411,285.981L38.754,285.981L73.082,231.629Z" style="fill:rgb(94,94,94);"/>
    </g>
    <g transform="matrix(-0.745732,0.430549,0.471007,0.815808,918.201,171.328)">
        <path d="M73.082,231.629L107.411,285.981L38.754,285.981L73.082,231.629Z" style="fill:rgb(94,94,94);"/>
    </g>
    <g transform="matrix(0.745732,0.430549,0.471007,-0.815808,143.601,697.06)">
        <path d="M55.918,258.805L107.411,285.981L38.754,285.981L55.918,258.805Z" style="fill:rgb(94,94,94);"/>
    </g>
    <g transform="matrix(0.745732,0.430549,0.471007,-0.815808,246.001,697.06)">
        <path d="M55.918,258.805L107.411,285.981L38.754,285.981L55.918,258.805Z" style="fill:rgb(94,94,94);"/>
    </g>
    <g transform="matrix(-0.745732,0.430549,-0.471007,-0.815808,573.199,697.06)">
        <path d="M55.918,258.805L107.411,285.981L38.754,285.981L55.918,258.805Z" style="fill:rgb(94,94,94);"/>
    </g>
    <g transform="matrix(0.745732,0.430549,0.471007,-0.815808,348.401,697.06)">
        <path d="M55.918,258.805L107.411,285.981L38.754,285.981L55.918,258.805Z" style="fill:rgb(94,94,94);"/>
    </g>
    <g transform="matrix(-0.745732,0.430549,-0.471007,-0.815808,675.599,697.06)">
        <path d="M55.918,258.805L107.411,285.981L38.754,285.981L55.918,258.805Z" style="fill:rgb(94,94,94);"/>
    </g>
    <g transform="matrix(0.745732,0.430549,0.471007,-0.815808,450.801,697.06)">
        <path d="M55.918,258.805L107.411,285.981L38.754,285.981L55.918,258.805Z" style="fill:rgb(94,94,94);"/>
    </g>
    <g transform="matrix(-0.745732,0.430549,-0.471007,-0.815808,777.999,697.06)">
        <path d="M55.918,258.805L107.411,285.981L38.754,285.981L55.918,258.805Z" style="fill:rgb(94,94,94);"/>
    </g>
    <g transform="matrix(0.745732,0.430549,0.471007,-0.815808,553.201,697.06)">
        <path d="M55.918,258.805L107.411,285.981L38.754,285.981L55.918,258.805Z" style="fill:rgb(94,94,94);"/>
    </g>
    <g transform="matrix(-0.745732,0.430549,-0.471007,-0.815808,880.399,697.06)">
        <path d="M55.918,258.805L107.411,285.981L38.754,285.981L55.918,258.805Z" style="fill:rgb(94,94,94);"/>
    </g>
    <g transform="matrix(0.745732,0.430549,0.471007,-0.815808,655.601,697.06)">
        <path d="M55.918,258.805L107.411,285.981L38.754,285.981L55.918,258.805Z" style="fill:rgb(94,94,94);"/>
    </g>
    <g transform="matrix(-0.745732,0.430549,-0.471007,-0.815808,982.799,697.06)">
        <path d="M55.918,258.805L107.411,285.981L38.754,285.981L55.918,258.805Z" style="fill:rgb(94,94,94);"/>
    </g>
    <g transform="matrix(0.745732,0.430549,0.471007,-0.815808,758.001,697.06)">
        <path d="M55.918,258.805L107.411,285.981L38.754,285.981L55.918,258.805Z" style="fill:rgb(94,94,94);"/>
    </g>
    <g transform="matrix(-0.745732,0.430549,-0.471007,-0.815808,1085.2,697.06)">
        <path d="M55.918,258.805L107.411,285.981L38.754,285.981L55.918,258.805Z" style="fill:rgb(94,94,94);"/>
    </g>
    <g transform="matrix(-0.745732,0.430549,-0.471007,-0.815808,1187.6,697.06)">
        <path d="M55.918,258.805L107.411,285.981L38.754,285.981L55.918,258.805Z" style="fill:rgb(94,94,94);"/>
    </g>
    <g transform="matrix(5.71621e-17,-0.861097,-0.942014,5.71621e-17,576.598,513.81)">
        <path d="M73.082,231.629L107.411,285.981L38.754,285.981L73.082,231.629Z" style="fill:rgb(94,94,94);"/>
    </g>
    <g transform="matrix(0.745732,-0.430549,-0.471007,-0.815808,412.999,730.43)">
        <path d="M73.082,231.629L107.411,285.981L38.754,285.981L73.082,231.629Z" style="fill:rgb(94,94,94);"/>
    </g>
    <g transform="matrix(0.745732,0.430549,0.471007,-0.815808,194.801,667.499)">
        <path d="M73.082,231.629L107.411,285.981L38.754,285.981L73.082,231.629Z" style="fill:rgb(94,94,94);"/>
    </g>
    <g transform="matrix(5.71621e-17,-0.861097,-0.942014,5.71621e-17,678.998,513.81)">
        <path d="M73.082,231.629L107.411,285.981L38.754,285.981L73.082,231.629Z" style="fill:rgb(94,94,94);"/>
    </g>
    <g transform="matrix(4.82919e-17,0.861097,0.942014,-1.72526e-16,140.202,387.948)">
        <path d="M73.082,231.629L107.411,285.981L38.754,285.981L73.082,231.629Z" style="fill:rgb(94,94,94);"/>
    </g>
    <g transform="matrix(0.745732,-0.430549,-0.471007,-0.815808,515.399,730.43)">
        <path d="M73.082,231.629L107.411,285.981L38.754,285.981L73.082,231.629Z" style="fill:rgb(94,94,94);"/>
    </g>
    <g transform="matrix(0.745732,0.430549,0.471007,-0.815808,297.201,667.499)">
        <path d="M73.082,231.629L107.411,285.981L38.754,285.981L73.082,231.629Z" style="fill:rgb(94,94,94);"/>
    </g>
    <g transform="matrix(5.71621e-17,-0.861097,-0.942014,5.71621e-17,781.398,513.81)">
        <path d="M73.082,231.629L107.411,285.981L38.754,285.981L73.082,231.629Z" style="fill:rgb(94,94,94);"/>
    </g>
    <g transform="matrix(4.82919e-17,0.861097,0.942014,-1.72526e-16,242.602,387.948)">
        <path d="M73.082,231.629L107.411,285.981L38.754,285.981L73.082,231.629Z" style="fill:rgb(94,94,94);"/>
    </g>
    <g transform="matrix(0.745732,-0.430549,-0.471007,-0.815808,617.799,730.43)">
        <path d="M73.082,231.629L107.411,285.981L38.754,285.981L73.082,231.629Z" style="fill:rgb(94,94,94);"/>
    </g>
    <g transform="matrix(0.745732,0.430549,0.471007,-0.815808,399.601,667.499)">
        <path d="M73.082,231.629L107.411,285.981L38.754,285.981L73.082,231.629Z" style="fill:rgb(94,94,94);"/>
    </g>
    <g transform="matrix(5.71621e-17,-0.861097,-0.942014,5.71621e-17,883.798,513.81)">
        <path d="M73.082,231.629L107.411,285.981L38.754,285.981L73.082,231.629Z" style="fill:rgb(94,94,94);"/>
    </g>
    <g transform="matrix(4.82919e-17,0.861097,0.942014,-1.72526e-16,345.002,387.948)">
        <path d="M73.082,231.629L107.411,285.981L38.754,285.981L73.082,231.629Z" style="fill:rgb(94,94,94);"/>
    </g>
    <g transform="matrix(0.745732,-0.430549,-0.471007,-0.815808,720.199,730.43)">
        <path d="M73.082,231.629L107.411,285.981L38.754,285.981L73.082,231.629Z" style="fill:rgb(94,94,94);"/>
    </g>
    <g transform="matrix(0.745732,0.430549,0.471007,-0.815808,502.001,667.499)">
        <path d="M73.082,231.629L107.411,285.981L38.754,285.981L73.082,231.629Z" style="fill:rgb(94,94,94);"/>
    </g>
    <g transform="matrix(5.71621e-17,-0.861097,-0.942014,5.71621e-17,986.198,513.81)">
        <path d="M73.082,231.629L107.411,285.981L38.754,285.981L73.082,231.629Z" style="fill:rgb(94,94,94);"/>
    </g>
    <g transform="matrix(4.82919e-17,0.861097,0.942014,-1.72526e-16,447.402,387.948)">
        <path d="M73.082,231.629L107.411,285.981L38.754,285.981L73.082,231.629Z" style="fill:rgb(94,94,94);"/>
    </g>
    <g transform="matrix(0.745732,-0.430549,-0.471007,-0.815808,822.599,730.43)">
        <path d="M73.082,231.629L107.411,285.981L38.754,285.981L73.082,231.629Z" style="fill:rgb(94,94,94);"/>
    </g>
    <g transform="matrix(0.745732,0.430549,0.471007,-0.815808,604.401,667.499)">
        <path d="M73.082,231.629L107.411,285.981L38.754,285.981L73.082,231.629Z" style="fill:rgb(94,94,94);"/>
    </g>
    <g transform="matrix(5.71621e-17,-0.861097,-0.942014,5.71621e-17,1088.6,513.81)">
        <path d="M73.082,231.629L107.411,285.981L38.754,285.981L73.082,231.629Z" style="fill:rgb(94,94,94);"/>
    </g>
    <g transform="matrix(4.82919e-17,0.861097,0.942014,-1.72526e-16,549.802,387.948)">
        <path d="M73.082,231.629L107.411,285.981L38.754,285.981L73.082,231.629Z" style="fill:rgb(94,94,94);"/>
    </g>
    <g transform="matrix(0.745732,-0.430549,-0.471007,-0.815808,924.999,730.43)">
        <path d="M73.082,231.629L107.411,285.981L38.754,285.981L73.082,231.629Z" style="fill:rgb(94,94,94);"/>
    </g>
    <g transform="matrix(0.745732,0.430549,0.471007,-0.815808,706.801,667.499)">
        <path d="M73.082,231.629L107.411,285.981L38.754,285.981L73.082,231.629Z" style="fill:rgb(94,94,94);"/>
    </g>
    <g transform="matrix(5.71621e-17,-0.861097,-0.942014,5.71621e-17,1191,513.81)">
        <path d="M73.082,231.629L107.411,285.981L38.754,285.981L73.082,231.629Z" style="fill:rgb(94,94,94);"/>
    </g>
    <g transform="matrix(4.82919e-17,0.861097,0.942014,-1.72526e-16,652.202,387.948)">
        <path d="M73.082,231.629L107.411,285.981L38.754,285.981L73.082,231.629Z" style="fill:rgb(94,94,94);"/>
    </g>
    <g transform="matrix(0.745732,-0.430549,-0.471007,-0.815808,1027.4,730.43)">
        <path d="M73.082,231.629L107.411,285.981L38.754,285.981L73.082,231.629Z" style="fill:rgb(94,94,94);"/>
    </g>
    <g transform="matrix(0.745732,0.430549,0.471007,-0.815808,809.201,667.499)">
        <path d="M73.082,231.629L107.411,285.981L38.754,285.981L73.082,231.629Z" style="fill:rgb(94,94,94);"/>
    </g>
    <g transform="matrix(4.82919e-17,0.861097,0.942014,-1.72526e-16,754.602,387.948)">
        <path d="M73.082,231.629L107.411,285.981L38.754,285.981L73.082,231.629Z" style="fill:rgb(94,94,94);"/>
    </g>
    <g transform="matrix(5.71621e-17,-0.861097,-0.942014,5.71621e-17,371.798,277.328)">
        <path d="M73.082,231.629L107.411,285.981L38.754,285.981L73.082,231.629Z" style="fill:rgb(94,94,94);"/>
    </g>
    <g transform="matrix(4.82919e-17,0.861097,0.942014,-1.72526e-16,-166.998,151.466)">
        <path d="M73.082,231.629L107.411,285.981L38.754,285.981L73.082,231.629Z" style="fill:rgb(94,94,94);"/>
    </g>
    <g transform="matrix(1.71486e-16,0.861097,0.942014,-2.8581e-16,-166.998,210.586)">
        <path d="M73.082,231.629L107.411,285.981L38.754,285.981L73.082,231.629Z" style="fill:rgb(94,94,94);"/>
    </g>
    <g transform="matrix(-0.745732,-0.430549,-0.471007,0.815808,214.799,116.018)">
        <path d="M73.082,231.629L107.411,285.981L38.754,285.981L73.082,231.629Z" style="fill:rgb(94,94,94);"/>
    </g>
    <g transform="matrix(-2.8581e-16,-0.861097,-0.942014,3.42972e-16,269.398,336.448)">
        <path d="M73.082,231.629L107.411,285.981L38.754,285.981L73.082,231.629Z" style="fill:rgb(94,94,94);"/>
    </g>
    <g transform="matrix(-0.745732,0.430549,0.471007,0.815808,-3.39893,53.0869)">
        <path d="M73.082,231.629L107.411,285.981L38.754,285.981L73.082,231.629Z" style="fill:rgb(94,94,94);"/>
    </g>
    <g transform="matrix(-0.745732,-0.430549,-0.471007,0.815808,214.799,-2.22327)">
        <path d="M73.082,231.629L107.411,285.981L38.754,285.981L73.082,231.629Z" style="fill:rgb(94,94,94);"/>
    </g>
    <g transform="matrix(-0.745732,0.430549,0.471007,0.815808,-3.39893,-65.1544)">
        <path d="M73.082,231.629L107.411,285.981L38.754,285.981L73.082,231.629Z" style="fill:rgb(94,94,94);"/>
    </g>
    <g transform="matrix(0.745732,-0.430549,-0.471007,-0.815808,208.199,493.948)">
        <path d="M73.082,231.629L107.411,285.981L38.754,285.981L73.082,231.629Z" style="fill:rgb(94,94,94);"/>
    </g>
    <g transform="matrix(1.71486e-16,0.861097,0.942014,-2.8581e-16,-64.5978,210.586)">
        <path d="M73.082,231.629L107.411,285.981L38.754,285.981L73.082,231.629Z" style="fill:rgb(94,94,94);"/>
    </g>
    <g transform="matrix(-0.745732,-0.430549,-0.471007,0.815808,317.199,116.018)">
        <path d="M73.082,231.629L107.411,285.981L38.754,285.981L73.082,231.629Z" style="fill:rgb(94,94,94);"/>
    </g>
    <g transform="matrix(-2.8581e-16,-0.861097,-0.942014,3.42972e-16,371.798,336.448)">
        <path d="M73.082,231.629L107.411,285.981L38.754,285.981L73.082,231.629Z" style="fill:rgb(94,94,94);"/>
    </g>
    <g transform="matrix(-0.745732,0.430549,0.471007,0.815808,99.0011,53.0869)">
        <path d="M73.082,231.629L107.411,285.981L38.754,285.981L73.082,231.629Z" style="fill:rgb(94,94,94);"/>
    </g>
    <g transform="matrix(-0.745732,-0.430549,-0.471007,0.815808,317.199,-2.22327)">
        <path d="M73.082,231.629L107.411,285.981L38.754,285.981L73.082,231.629Z" style="fill:rgb(94,94,94);"/>
    </g>
    <g transform="matrix(-2.8581e-16,-0.861097,-0.942014,3.42972e-16,371.798,218.207)">
        <path d="M73.082,231.629L107.411,285.981L38.754,285.981L73.082,231.629Z" style="fill:rgb(94,94,94);"/>
    </g>
    <g transform="matrix(5.71621e-17,-0.861097,-0.942014,5.71621e-17,474.198,277.328)">
        <path d="M73.082,231.629L107.411,285.981L38.754,285.981L73.082,231.629Z" style="fill:rgb(94,94,94);"/>
    </g>
    <g transform="matrix(4.82919e-17,0.861097,0.942014,-1.72526e-16,-64.5978,151.466)">
        <path d="M73.082,231.629L107.411,285.981L38.754,285.981L73.082,231.629Z" style="fill:rgb(94,94,94);"/>
    </g>
    <g transform="matrix(-0.745732,-0.430549,-0.471007,0.815808,419.599,116.018)">
        <path d="M73.082,231.629L107.411,285.981L38.754,285.981L73.082,231.629Z" style="fill:rgb(94,94,94);"/>
    </g>
    <g transform="matrix(-2.8581e-16,-0.861097,-0.942014,3.42972e-16,474.198,336.448)">
        <path d="M73.082,231.629L107.411,285.981L38.754,285.981L73.082,231.629Z" style="fill:rgb(94,94,94);"/>
    </g>
    <g transform="matrix(-2.8581e-16,-0.861097,-0.942014,3.42972e-16,474.198,218.207)">
        <path d="M73.082,231.629L107.411,285.981L38.754,285.981L73.082,231.629Z" style="fill:rgb(94,94,94);"/>
    </g>
    <g transform="matrix(0.745732,0.430549,0.471007,-0.815808,604.401,312.775)">
        <path d="M73.082,231.629L107.411,285.981L38.754,285.981L73.082,231.629Z" style="fill:rgb(94,94,94);"/>
    </g>
    <g transform="matrix(1.71486e-16,0.861097,0.942014,-2.8581e-16,549.802,92.3449)">
        <path d="M73.082,231.629L107.411,285.981L38.754,285.981L73.082,231.629Z" style="fill:rgb(94,94,94);"/>
    </g>
    <g transform="matrix(-0.745732,-0.430549,-0.471007,0.815808,931.599,-2.22327)">
        <path d="M73.082,231.629L107.411,285.981L38.754,285.981L73.082,231.629Z" style="fill:rgb(94,94,94);"/>
    </g>
    <g transform="matrix(-0.745732,0.430549,0.471007,0.815808,713.401,-65.1544)">
        <path d="M73.082,231.629L107.411,285.981L38.754,285.981L73.082,231.629Z" style="fill:rgb(94,94,94);"/>
    </g>
    <g transform="matrix(1.71486e-16,0.861097,0.942014,-2.8581e-16,549.802,-25.8965)">
        <path d="M73.082,231.629L107.411,285.981L38.754,285.981L73.082,231.629Z" style="fill:rgb(94,94,94);"/>
    </g>
    <g transform="matrix(-0.745732,-0.430549,-0.471007,0.815808,931.599,-120.465)">
        <path d="M73.082,231.629L107.411,285.981L38.754,285.981L73.082,231.629Z" style="fill:rgb(94,94,94);"/>
    </g>
    <g transform="matrix(-0.745732,0.430549,0.471007,0.815808,713.401,-183.396)">
        <path d="M73.082,231.629L107.411,285.981L38.754,285.981L73.082,231.629Z" style="fill:rgb(94,94,94);"/>
    </g>
    <g transform="matrix(4.82919e-17,0.861097,0.942014,-1.72526e-16,549.802,151.466)">
        <path d="M73.082,231.629L107.411,285.981L38.754,285.981L73.082,231.629Z" style="fill:rgb(94,94,94);"/>
    </g>
    <g transform="matrix(5.71621e-17,-0.861097,-0.942014,5.71621e-17,1088.6,159.086)">
        <path d="M73.082,231.629L107.411,285.981L38.754,285.981L73.082,231.629Z" style="fill:rgb(94,94,94);"/>
    </g>
    <g transform="matrix(4.82919e-17,0.861097,0.942014,-1.72526e-16,549.802,33.2242)">
        <path d="M73.082,231.629L107.411,285.981L38.754,285.981L73.082,231.629Z" style="fill:rgb(94,94,94);"/>
    </g>
    <g transform="matrix(0.745732,-0.430549,-0.471007,-0.815808,924.999,493.948)">
        <path d="M73.082,231.629L107.411,285.981L38.754,285.981L73.082,231.629Z" style="fill:rgb(94,94,94);"/>
    </g>
    <g transform="matrix(1.71486e-16,0.861097,0.942014,-2.8581e-16,652.202,210.586)">
        <path d="M73.082,231.629L107.411,285.981L38.754,285.981L73.082,231.629Z" style="fill:rgb(94,94,94);"/>
    </g>
    <g transform="matrix(-2.8581e-16,-0.861097,-0.942014,3.42972e-16,1088.6,336.448)">
        <path d="M73.082,231.629L107.411,285.981L38.754,285.981L73.082,231.629Z" style="fill:rgb(94,94,94);"/>
    </g>
    <g transform="matrix(-0.745732,0.430549,0.471007,0.815808,815.801,53.0869)">
        <path d="M73.082,231.629L107.411,285.981L38.754,285.981L73.082,231.629Z" style="fill:rgb(94,94,94);"/>
    </g>
    <g transform="matrix(0.745732,-0.430549,-0.471007,-0.815808,924.999,375.706)">
        <path d="M73.082,231.629L107.411,285.981L38.754,285.981L73.082,231.629Z" style="fill:rgb(94,94,94);"/>
    </g>
    <g transform="matrix(0.745732,0.430549,0.471007,-0.815808,706.801,312.775)">
        <path d="M73.082,231.629L107.411,285.981L38.754,285.981L73.082,231.629Z" style="fill:rgb(239,52,56);"/>
    </g>
    <g transform="matrix(1.71486e-16,0.861097,0.942014,-2.8581e-16,652.202,92.3449)">
        <path d="M73.082,231.629L107.411,285.981L38.754,285.981L73.082,231.629Z" style="fill:rgb(3,119,148);"/>
    </g>
    <g transform="matrix(-0.745732,-0.430549,-0.471007,0.815808,1034,-2.22327)">
        <path d="M73.082,231.629L107.411,285.981L38.754,285.981L73.082,231.629Z" style="fill:rgb(94,94,94);"/>
    </g>
    <g transform="matrix(-2.8581e-16,-0.861097,-0.942014,3.42972e-16,1088.6,218.207)">
        <path d="M73.082,231.629L107.411,285.981L38.754,285.981L73.082,231.629Z" style="fill:rgb(94,94,94);"/>
    </g>
    <g transform="matrix(-0.745732,0.430549,0.471007,0.815808,815.801,-65.1544)">
        <path d="M73.082,231.629L107.411,285.981L38.754,285.981L73.082,231.629Z" style="fill:rgb(94,94,94);"/>
    </g>
    <g transform="matrix(1.71486e-16,0.861097,0.942014,-2.8581e-16,652.202,-25.8965)">
        <path d="M73.082,231.629L107.411,285.981L38.754,285.981L73.082,231.629Z" style="fill:rgb(165,188,58);"/>
    </g>
    <g transform="matrix(-0.745732,-0.430549,-0.471007,0.815808,1034,-120.465)">
        <path d="M73.082,231.629L107.411,285.981L38.754,285.981L73.082,231.629Z" style="fill:rgb(3,119,148);"/>
    </g>
    <g transform="matrix(-2.8581e-16,-0.861097,-0.942014,3.42972e-16,1088.6,99.9658)">
        <path d="M73.082,231.629L107.411,285.981L38.754,285.981L73.082,231.629Z" style="fill:rgb(94,94,94);"/>
    </g>
    <g transform="matrix(-0.745732,0.430549,0.471007,0.815808,815.801,-183.396)">
        <path d="M73.082,231.629L107.411,285.981L38.754,285.981L73.082,231.629Z" style="fill:rgb(99,202,213);"/>
    </g>
    <g transform="matrix(5.71621e-17,-0.861097,-0.942014,5.71621e-17,1191,277.328)">
        <path d="M73.082,231.629L107.411,285.981L38.754,285.981L73.082,231.629Z" style="fill:rgb(3,119,148);"/>
    </g>
    <g transform="matrix(4.82919e-17,0.861097,0.942014,-1.72526e-16,652.202,151.466)">
        <path d="M73.082,231.629L107.411,285.981L38.754,285.981L73.082,231.629Z" style="fill:rgb(94,94,94);"/>
    </g>
    <g transform="matrix(5.71621e-17,-0.861097,-0.942014,5.71621e-17,1191,159.086)">
        <path d="M73.082,231.629L107.411,285.981L38.754,285.981L73.082,231.629Z" style="fill:rgb(165,188,58);"/>
    </g>
    <g transform="matrix(4.82919e-17,0.861097,0.942014,-1.72526e-16,652.202,33.2242)">
        <path d="M73.082,231.629L107.411,285.981L38.754,285.981L73.082,231.629Z" style="fill:rgb(3,119,148);"/>
    </g>
    <g transform="matrix(0.745732,-0.430549,-0.471007,-0.815808,1027.4,493.948)">
        <path d="M73.082,231.629L107.411,285.981L38.754,285.981L73.082,231.629Z" style="fill:rgb(94,94,94);"/>
    </g>
    <g transform="matrix(0.745732,0.430549,0.471007,-0.815808,809.201,431.017)">
        <path d="M73.082,231.629L107.411,285.981L38.754,285.981L73.082,231.629Z" style="fill:rgb(94,94,94);"/>
    </g>
    <g transform="matrix(1.71486e-16,0.861097,0.942014,-2.8581e-16,754.602,210.586)">
        <path d="M73.082,231.629L107.411,285.981L38.754,285.981L73.082,231.629Z" style="fill:rgb(94,94,94);"/>
    </g>
    <g transform="matrix(-0.745732,-0.430549,-0.471007,0.815808,1136.4,116.018)">
        <path d="M73.082,231.629L107.411,285.981L38.754,285.981L73.082,231.629Z" style="fill:rgb(94,94,94);"/>
    </g>
    <g transform="matrix(-2.8581e-16,-0.861097,-0.942014,3.42972e-16,1191,336.448)">
        <path d="M73.082,231.629L107.411,285.981L38.754,285.981L73.082,231.629Z" style="fill:rgb(94,94,94);"/>
    </g>
    <g transform="matrix(-0.745732,0.430549,0.471007,0.815808,918.201,53.0869)">
        <path d="M73.082,231.629L107.411,285.981L38.754,285.981L73.082,231.629Z" style="fill:rgb(94,94,94);"/>
    </g>
    <g transform="matrix(0.745732,-0.430549,-0.471007,-0.815808,1027.4,375.706)">
        <path d="M73.082,231.629L107.411,285.981L38.754,285.981L73.082,231.629Z" style="fill:rgb(99,202,213);"/>
    </g>
    <g transform="matrix(0.745732,0.430549,0.471007,-0.815808,809.201,312.775)">
        <path d="M73.082,231.629L107.411,285.981L38.754,285.981L73.082,231.629Z" style="fill:rgb(3,119,148);"/>
    </g>
    <g transform="matrix(1.71486e-16,0.861097,0.942014,-2.8581e-16,754.602,92.3449)">
        <path d="M73.082,231.629L107.411,285.981L38.754,285.981L73.082,231.629Z" style="fill:rgb(3,119,148);"/>
    </g>
    <g transform="matrix(-0.745732,-0.430549,-0.471007,0.815808,1136.4,-2.22327)">
        <path d="M73.082,231.629L107.411,285.981L38.754,285.981L73.082,231.629Z" style="fill:rgb(3,119,148);"/>
    </g>
    <g transform="matrix(-2.8581e-16,-0.861097,-0.942014,3.42972e-16,1191,218.207)">
        <path d="M73.082,231.629L107.411,285.981L38.754,285.981L73.082,231.629Z" style="fill:rgb(99,202,213);"/>
    </g>
    <g transform="matrix(-0.745732,0.430549,0.471007,0.815808,918.201,-65.1544)">
        <path d="M73.082,231.629L107.411,285.981L38.754,285.981L73.082,231.629Z" style="fill:rgb(165,188,58);"/>
    </g>
    <g transform="matrix(1.71486e-16,0.861097,0.942014,-2.8581e-16,754.602,-25.8965)">
        <path d="M73.082,231.629L107.411,285.981L38.754,285.981L73.082,231.629Z" style="fill:rgb(3,119,148);"/>
    </g>
    <g transform="matrix(-0.745732,-0.430549,-0.471007,0.815808,1136.4,-120.465)">
        <path d="M73.082,231.629L107.411,285.981L38.754,285.981L73.082,231.629Z" style="fill:rgb(3,119,148);"/>
    </g>
    <g transform="matrix(-2.8581e-16,-0.861097,-0.942014,3.42972e-16,1191,99.9658)">
        <path d="M73.082,231.629L107.411,285.981L38.754,285.981L73.082,231.629Z" style="fill:rgb(3,119,148);"/>
    </g>
    <g transform="matrix(-0.745732,0.430549,0.471007,0.815808,918.201,-183.396)">
        <path d="M73.082,231.629L107.411,285.981L38.754,285.981L73.082,231.629Z" style="fill:rgb(239,52,56);"/>
    </g>
    <g transform="matrix(4.82919e-17,0.861097,0.942014,-1.72526e-16,754.602,151.466)">
        <path d="M73.082,231.629L107.411,285.981L38.754,285.981L73.082,231.629Z" style="fill:rgb(99,202,213);"/>
    </g>
    <g transform="matrix(0.745732,-0.430549,-0.471007,-0.815808,105.799,612.189)">
        <path d="M73.082,231.629L107.411,285.981L38.754,285.981L73.082,231.629Z" style="fill:rgb(3,119,148);"/>
    </g>
    <g transform="matrix(0.745732,0.430549,0.471007,-0.815808,-112.399,549.258)">
        <path d="M73.082,231.629L107.411,285.981L38.754,285.981L73.082,231.629Z" style="fill:rgb(94,94,94);"/>
    </g>
    <g transform="matrix(5.71621e-17,-0.861097,-0.942014,5.71621e-17,371.798,395.569)">
        <path d="M73.082,231.629L107.411,285.981L38.754,285.981L73.082,231.629Z" style="fill:rgb(94,94,94);"/>
    </g>
    <g transform="matrix(5.71621e-17,-0.861097,-0.942014,5.71621e-17,269.398,395.569)">
        <path d="M73.082,231.629L107.411,285.981L38.754,285.981L73.082,231.629Z" style="fill:rgb(3,119,148);"/>
    </g>
    <g transform="matrix(4.82919e-17,0.861097,0.942014,-1.72526e-16,-166.998,269.707)">
        <path d="M73.082,231.629L107.411,285.981L38.754,285.981L73.082,231.629Z" style="fill:rgb(94,94,94);"/>
    </g>
    <g transform="matrix(1.71486e-16,0.861097,0.942014,-2.8581e-16,-166.998,328.828)">
        <path d="M73.082,231.629L107.411,285.981L38.754,285.981L73.082,231.629Z" style="fill:rgb(239,52,56);"/>
    </g>
    <g transform="matrix(-0.745732,-0.430549,-0.471007,0.815808,214.799,234.259)">
        <path d="M73.082,231.629L107.411,285.981L38.754,285.981L73.082,231.629Z" style="fill:rgb(3,119,148);"/>
    </g>
    <g transform="matrix(-2.8581e-16,-0.861097,-0.942014,3.42972e-16,269.398,454.69)">
        <path d="M73.082,231.629L107.411,285.981L38.754,285.981L73.082,231.629Z" style="fill:rgb(94,94,94);"/>
    </g>
    <g transform="matrix(-0.745732,0.430549,0.471007,0.815808,-3.39893,171.328)">
        <path d="M73.082,231.629L107.411,285.981L38.754,285.981L73.082,231.629Z" style="fill:rgb(165,188,58);"/>
    </g>
    <g transform="matrix(0.745732,-0.430549,-0.471007,-0.815808,208.199,612.189)">
        <path d="M73.082,231.629L107.411,285.981L38.754,285.981L73.082,231.629Z" style="fill:rgb(3,119,148);"/>
    </g>
    <g transform="matrix(0.745732,0.430549,0.471007,-0.815808,-9.99886,549.258)">
        <path d="M73.082,231.629L107.411,285.981L38.754,285.981L73.082,231.629Z" style="fill:rgb(94,94,94);"/>
    </g>
    <g transform="matrix(1.71486e-16,0.861097,0.942014,-2.8581e-16,-64.5978,328.828)">
        <path d="M73.082,231.629L107.411,285.981L38.754,285.981L73.082,231.629Z" style="fill:rgb(94,94,94);"/>
    </g>
    <g transform="matrix(-0.745732,-0.430549,-0.471007,0.815808,317.199,234.259)">
        <path d="M73.082,231.629L107.411,285.981L38.754,285.981L73.082,231.629Z" style="fill:rgb(99,202,213);"/>
    </g>
    <g transform="matrix(-2.8581e-16,-0.861097,-0.942014,3.42972e-16,371.798,454.69)">
        <path d="M73.082,231.629L107.411,285.981L38.754,285.981L73.082,231.629Z" style="fill:rgb(99,202,213);"/>
    </g>
    <g transform="matrix(-0.745732,0.430549,0.471007,0.815808,99.0011,171.328)">
        <path d="M73.082,231.629L107.411,285.981L38.754,285.981L73.082,231.629Z" style="fill:rgb(3,119,148);"/>
    </g>
    <g transform="matrix(5.71621e-17,-0.861097,-0.942014,5.71621e-17,474.198,395.569)">
        <path d="M73.082,231.629L107.411,285.981L38.754,285.981L73.082,231.629Z" style="fill:rgb(94,94,94);"/>
    </g>
    <g transform="matrix(4.82919e-17,0.861097,0.942014,-1.72526e-16,-64.5978,269.707)">
        <path d="M73.082,231.629L107.411,285.981L38.754,285.981L73.082,231.629Z" style="fill:rgb(94,94,94);"/>
    </g>
    <g transform="matrix(-2.8581e-16,-0.861097,-0.942014,3.42972e-16,474.198,454.69)">
        <path d="M73.082,231.629L107.411,285.981L38.754,285.981L73.082,231.629Z" style="fill:rgb(94,94,94);"/>
    </g>
    <g transform="matrix(5.71621e-17,-0.861097,-0.942014,5.71621e-17,1191,395.569)">
        <path d="M73.082,231.629L107.411,285.981L38.754,285.981L73.082,231.629Z" style="fill:rgb(94,94,94);"/>
    </g>
    <g transform="matrix(4.82919e-17,0.861097,0.942014,-1.72526e-16,652.202,269.707)">
        <path d="M73.082,231.629L107.411,285.981L38.754,285.981L73.082,231.629Z" style="fill:rgb(94,94,94);"/>
    </g>
    <g transform="matrix(0.745732,-0.430549,-0.471007,-0.815808,1027.4,612.189)">
        <path d="M73.082,231.629L107.411,285.981L38.754,285.981L73.082,231.629Z" style="fill:rgb(94,94,94);"/>
    </g>
    <g transform="matrix(0.745732,0.430549,0.471007,-0.815808,809.201,549.258)">
        <path d="M73.082,231.629L107.411,285.981L38.754,285.981L73.082,231.629Z" style="fill:rgb(94,94,94);"/>
    </g>
    <g transform="matrix(1.71486e-16,0.861097,0.942014,-2.8581e-16,754.602,328.828)">
        <path d="M73.082,231.629L107.411,285.981L38.754,285.981L73.082,231.629Z" style="fill:rgb(94,94,94);"/>
    </g>
    <g transform="matrix(4.82919e-17,0.861097,0.942014,-1.72526e-16,754.602,269.707)">
        <path d="M73.082,231.629L107.411,285.981L38.754,285.981L73.082,231.629Z" style="fill:rgb(94,94,94);"/>
    </g>
    <g transform="matrix(0.745732,-0.430549,-0.471007,-0.815808,105.799,730.43)">
        <path d="M73.082,231.629L107.411,285.981L38.754,285.981L73.082,231.629Z" style="fill:rgb(239,52,56);"/>
    </g>
    <g transform="matrix(0.745732,0.430549,0.471007,-0.815808,-112.399,667.499)">
        <path d="M73.082,231.629L107.411,285.981L38.754,285.981L73.082,231.629Z" style="fill:rgb(3,119,148);"/>
    </g>
    <g transform="matrix(5.71621e-17,-0.861097,-0.942014,5.71621e-17,371.798,513.81)">
        <path d="M73.082,231.629L107.411,285.981L38.754,285.981L73.082,231.629Z" style="fill:rgb(165,188,58);"/>
    </g>
    <g transform="matrix(5.71621e-17,-0.861097,-0.942014,5.71621e-17,269.398,513.81)">
        <path d="M73.082,231.629L107.411,285.981L38.754,285.981L73.082,231.629Z" style="fill:rgb(3,119,148);"/>
    </g>
    <g transform="matrix(4.82919e-17,0.861097,0.942014,-1.72526e-16,-166.998,387.948)">
        <path d="M73.082,231.629L107.411,285.981L38.754,285.981L73.082,231.629Z" style="fill:rgb(3,119,148);"/>
    </g>
    <g transform="matrix(0.745732,-0.430549,-0.471007,-0.815808,208.199,730.43)">
        <path d="M73.082,231.629L107.411,285.981L38.754,285.981L73.082,231.629Z" style="fill:rgb(99,202,213);"/>
    </g>
    <g transform="matrix(0.745732,0.430549,0.471007,-0.815808,-9.99886,667.499)">
        <path d="M73.082,231.629L107.411,285.981L38.754,285.981L73.082,231.629Z" style="fill:rgb(94,94,94);"/>
    </g>
    <g transform="matrix(0.745732,0.430549,0.471007,-0.815808,-163.599,697.06)">
        <path d="M55.918,258.805L107.411,285.981L38.754,285.981L55.918,258.805Z" style="fill:rgb(99,202,213);"/>
    </g>
    <g transform="matrix(0.745732,0.430549,0.471007,-0.815808,-61.1989,697.06)">
        <path d="M55.918,258.805L107.411,285.981L38.754,285.981L55.918,258.805Z" style="fill:rgb(3,119,148);"/>
    </g>
    <g transform="matrix(-0.745732,0.430549,-0.471007,-0.815808,265.999,697.06)">
        <path d="M55.918,258.805L107.411,285.981L38.754,285.981L55.918,258.805Z" style="fill:rgb(165,188,58);"/>
    </g>
    <g transform="matrix(0.745732,0.430549,0.471007,-0.815808,41.2011,697.06)">
        <path d="M55.918,258.805L107.411,285.981L38.754,285.981L55.918,258.805Z" style="fill:rgb(94,94,94);"/>
    </g>
    <g transform="matrix(-0.745732,0.430549,-0.471007,-0.815808,368.399,697.06)">
        <path d="M55.918,258.805L107.411,285.981L38.754,285.981L55.918,258.805Z" style="fill:rgb(239,52,56);"/>
    </g>
    <g transform="matrix(-0.745732,0.430549,-0.471007,-0.815808,470.799,697.06)">
        <path d="M55.918,258.805L107.411,285.981L38.754,285.981L55.918,258.805Z" style="fill:rgb(94,94,94);"/>
    </g>
    <g transform="matrix(5.71621e-17,-0.861097,-0.942014,5.71621e-17,474.198,513.81)">
        <path d="M73.082,231.629L107.411,285.981L38.754,285.981L73.082,231.629Z" style="fill:rgb(94,94,94);"/>
    </g>
    <g transform="matrix(4.82919e-17,0.861097,0.942014,-1.72526e-16,-64.5978,387.948)">
        <path d="M73.082,231.629L107.411,285.981L38.754,285.981L73.082,231.629Z" style="fill:rgb(3,119,148);"/>
    </g>
    <g transform="matrix(0.745732,-0.430549,-0.471007,-0.815808,310.599,730.43)">
        <path d="M73.082,231.629L107.411,285.981L38.754,285.981L73.082,231.629Z" style="fill:rgb(3,119,148);"/>
    </g>
    <g transform="matrix(0.745732,0.430549,0.471007,-0.815808,92.4011,667.499)">
        <path d="M73.082,231.629L107.411,285.981L38.754,285.981L73.082,231.629Z" style="fill:rgb(94,94,94);"/>
    </g>
    <g transform="matrix(4.82919e-17,0.861097,0.942014,-1.72526e-16,37.8022,387.948)">
        <path d="M73.082,231.629L107.411,285.981L38.754,285.981L73.082,231.629Z" style="fill:rgb(94,94,94);"/>
    </g>
    <g transform="matrix(4.82919e-17,0.861097,0.942014,-1.72526e-16,754.602,33.2242)">
        <path d="M73.082,231.629L107.411,285.981L38.754,285.981L73.082,231.629Z" style="fill:rgb(3,119,148);"/>
    </g>
</svg>
