<?xml version="1.0" encoding="UTF-8" standalone="no"?>
<!DOCTYPE svg PUBLIC "-//W3C//DTD SVG 1.1//EN" "http://www.w3.org/Graphics/SVG/1.1/DTD/svg11.dtd">
<svg width="100%" height="100%" viewBox="0 0 1440 720" version="1.1" xmlns="http://www.w3.org/2000/svg" xmlns:xlink="http://www.w3.org/1999/xlink" xml:space="preserve" xmlns:serif="http://www.serif.com/" style="fill-rule:evenodd;clip-rule:evenodd;stroke-linejoin:round;stroke-miterlimit:2;">
    <g transform="matrix(2.13592,0,0,19.4412,-6.89492e-12,-9195.04)">
        <rect x="-0" y="472.965" width="674.182" height="37.035" style="fill:rgb(35,35,35);"/>
    </g>
    <g transform="matrix(1.04869,0.605459,-0.662354,1.14723,148.78,22.5735)">
        <path d="M73.082,231.629L107.411,285.981L38.754,285.981L73.082,231.629Z" style="fill:rgb(99,202,213);"/>
    </g>
    <g transform="matrix(8.03842e-17,1.21092,-1.32471,-8.03842e-17,522.841,327.195)">
        <path d="M73.082,231.629L107.411,285.981L38.754,285.981L73.082,231.629Z" style="fill:rgb(99,202,213);"/>
    </g>
    <g transform="matrix(6.79105e-17,-1.21092,1.32471,2.42614e-16,-234.841,504.189)">
        <path d="M73.082,231.629L107.411,285.981L38.754,285.981L73.082,231.629Z" style="fill:rgb(3,119,148);"/>
    </g>
    <g transform="matrix(2.41153e-16,-1.21092,1.32471,4.01921e-16,-234.841,421.051)">
        <path d="M73.082,231.629L107.411,285.981L38.754,285.981L73.082,231.629Z" style="fill:rgb(165,188,58);"/>
    </g>
    <g transform="matrix(-1.04869,0.605459,-0.662354,-1.14723,302.061,554.037)">
        <path d="M73.082,231.629L107.411,285.981L38.754,285.981L73.082,231.629Z" style="fill:rgb(239,52,56);"/>
    </g>
    <g transform="matrix(-4.01921e-16,1.21092,-1.32471,-4.82305e-16,378.841,244.057)">
        <path d="M73.082,231.629L107.411,285.981L38.754,285.981L73.082,231.629Z" style="fill:rgb(3,119,148);"/>
    </g>
    <g transform="matrix(-1.04869,-0.605459,0.662354,-1.14723,-4.77975,642.534)">
        <path d="M73.082,231.629L107.411,285.981L38.754,285.981L73.082,231.629Z" style="fill:rgb(3,87,106);"/>
    </g>
    <g transform="matrix(-1.04869,0.605459,-0.662354,-1.14723,302.061,720.314)">
        <path d="M73.082,231.629L107.411,285.981L38.754,285.981L73.082,231.629Z" style="fill:rgb(165,188,58);"/>
    </g>
    <g transform="matrix(-1.04869,-0.605459,0.662354,-1.14723,-4.77975,808.811)">
        <path d="M73.082,231.629L107.411,285.981L38.754,285.981L73.082,231.629Z" style="fill:rgb(3,87,106);"/>
    </g>
    <g transform="matrix(1.04869,0.605459,-0.662354,1.14723,292.78,22.5735)">
        <path d="M73.082,231.629L107.411,285.981L38.754,285.981L73.082,231.629Z" style="fill:rgb(3,119,148);"/>
    </g>
    <g transform="matrix(2.41153e-16,-1.21092,1.32471,4.01921e-16,-90.8406,421.051)">
        <path d="M73.082,231.629L107.411,285.981L38.754,285.981L73.082,231.629Z" style="fill:rgb(3,87,106);"/>
    </g>
    <g transform="matrix(-1.04869,0.605459,-0.662354,-1.14723,446.061,554.037)">
        <path d="M73.082,231.629L107.411,285.981L38.754,285.981L73.082,231.629Z" style="fill:rgb(165,188,58);"/>
    </g>
    <g transform="matrix(-4.01921e-16,1.21092,-1.32471,-4.82305e-16,522.841,244.057)">
        <path d="M73.082,231.629L107.411,285.981L38.754,285.981L73.082,231.629Z" style="fill:rgb(3,87,106);"/>
    </g>
    <g transform="matrix(-1.04869,-0.605459,0.662354,-1.14723,139.22,642.534)">
        <path d="M73.082,231.629L107.411,285.981L38.754,285.981L73.082,231.629Z" style="fill:rgb(3,119,148);"/>
    </g>
    <g transform="matrix(-1.04869,0.605459,-0.662354,-1.14723,446.061,720.314)">
        <path d="M73.082,231.629L107.411,285.981L38.754,285.981L73.082,231.629Z" style="fill:rgb(239,52,56);"/>
    </g>
    <g transform="matrix(-4.01921e-16,1.21092,-1.32471,-4.82305e-16,522.841,410.334)">
        <path d="M73.082,231.629L107.411,285.981L38.754,285.981L73.082,231.629Z" style="fill:rgb(3,119,148);"/>
    </g>
    <g transform="matrix(8.03842e-17,1.21092,-1.32471,-8.03842e-17,666.841,327.195)">
        <path d="M73.082,231.629L107.411,285.981L38.754,285.981L73.082,231.629Z" style="fill:rgb(165,188,58);"/>
    </g>
    <g transform="matrix(6.79105e-17,-1.21092,1.32471,2.42614e-16,-90.8406,504.189)">
        <path d="M73.082,231.629L107.411,285.981L38.754,285.981L73.082,231.629Z" style="fill:rgb(3,87,106);"/>
    </g>
    <g transform="matrix(-1.04869,0.605459,-0.662354,-1.14723,590.061,554.037)">
        <path d="M73.082,231.629L107.411,285.981L38.754,285.981L73.082,231.629Z" style="fill:rgb(99,202,213);"/>
    </g>
    <g transform="matrix(-4.01921e-16,1.21092,-1.32471,-4.82305e-16,666.841,244.057)">
        <path d="M73.082,231.629L107.411,285.981L38.754,285.981L73.082,231.629Z" style="fill:rgb(3,87,106);"/>
    </g>
    <g transform="matrix(-4.01921e-16,1.21092,-1.32471,-4.82305e-16,666.841,410.334)">
        <path d="M73.082,231.629L107.411,285.981L38.754,285.981L73.082,231.629Z" style="fill:rgb(99,202,213);"/>
    </g>
    <g transform="matrix(1.04869,-0.605459,0.662354,1.14723,849.939,277.347)">
        <path d="M73.082,231.629L107.411,285.981L38.754,285.981L73.082,231.629Z" style="fill:rgb(3,87,106);"/>
    </g>
    <g transform="matrix(2.41153e-16,-1.21092,1.32471,4.01921e-16,773.159,587.328)">
        <path d="M73.082,231.629L107.411,285.981L38.754,285.981L73.082,231.629Z" style="fill:rgb(239,52,56);"/>
    </g>
    <g transform="matrix(-1.04869,0.605459,-0.662354,-1.14723,1310.06,720.314)">
        <path d="M73.082,231.629L107.411,285.981L38.754,285.981L73.082,231.629Z" style="fill:rgb(3,87,106);"/>
    </g>
    <g transform="matrix(-1.04869,-0.605459,0.662354,-1.14723,1003.22,808.811)">
        <path d="M73.082,231.629L107.411,285.981L38.754,285.981L73.082,231.629Z" style="fill:rgb(3,119,148);"/>
    </g>
    <g transform="matrix(2.41153e-16,-1.21092,1.32471,4.01921e-16,773.159,753.604)">
        <path d="M73.082,231.629L107.411,285.981L38.754,285.981L73.082,231.629Z" style="fill:rgb(3,87,106);"/>
    </g>
    <g transform="matrix(-1.04869,0.605459,-0.662354,-1.14723,1310.06,886.591)">
        <path d="M73.082,231.629L107.411,285.981L38.754,285.981L73.082,231.629Z" style="fill:rgb(239,52,56);"/>
    </g>
    <g transform="matrix(-1.04869,-0.605459,0.662354,-1.14723,1003.22,975.088)">
        <path d="M73.082,231.629L107.411,285.981L38.754,285.981L73.082,231.629Z" style="fill:rgb(99,202,213);"/>
    </g>
    <g transform="matrix(6.79105e-17,-1.21092,1.32471,2.42614e-16,773.159,504.189)">
        <path d="M73.082,231.629L107.411,285.981L38.754,285.981L73.082,231.629Z" style="fill:rgb(165,188,58);"/>
    </g>
    <g transform="matrix(8.03842e-17,1.21092,-1.32471,-8.03842e-17,1530.84,493.472)">
        <path d="M73.082,231.629L107.411,285.981L38.754,285.981L73.082,231.629Z" style="fill:rgb(3,87,106);"/>
    </g>
    <g transform="matrix(6.79105e-17,-1.21092,1.32471,2.42614e-16,773.159,670.466)">
        <path d="M73.082,231.629L107.411,285.981L38.754,285.981L73.082,231.629Z" style="fill:rgb(165,188,58);"/>
    </g>
    <g transform="matrix(1.04869,0.605459,-0.662354,1.14723,1300.78,22.5735)">
        <path d="M73.082,231.629L107.411,285.981L38.754,285.981L73.082,231.629Z" style="fill:rgb(3,87,106);"/>
    </g>
    <g transform="matrix(2.41153e-16,-1.21092,1.32471,4.01921e-16,917.159,421.051)">
        <path d="M73.082,231.629L107.411,285.981L38.754,285.981L73.082,231.629Z" style="fill:rgb(3,119,148);"/>
    </g>
    <g transform="matrix(-4.01921e-16,1.21092,-1.32471,-4.82305e-16,1530.84,244.057)">
        <path d="M73.082,231.629L107.411,285.981L38.754,285.981L73.082,231.629Z" style="fill:rgb(3,87,106);"/>
    </g>
    <g transform="matrix(-1.04869,-0.605459,0.662354,-1.14723,1147.22,642.534)">
        <path d="M73.082,231.629L107.411,285.981L38.754,285.981L73.082,231.629Z" style="fill:rgb(239,52,56);"/>
    </g>
    <g transform="matrix(1.04869,0.605459,-0.662354,1.14723,1300.78,188.85)">
        <path d="M73.082,231.629L107.411,285.981L38.754,285.981L73.082,231.629Z" style="fill:rgb(3,87,106);"/>
    </g>
    <g transform="matrix(1.04869,-0.605459,0.662354,1.14723,993.939,277.347)">
        <path d="M73.082,231.629L107.411,285.981L38.754,285.981L73.082,231.629Z" style="fill:rgb(3,119,148);"/>
    </g>
    <g transform="matrix(2.41153e-16,-1.21092,1.32471,4.01921e-16,917.159,587.328)">
        <path d="M73.082,231.629L107.411,285.981L38.754,285.981L73.082,231.629Z" style="fill:rgb(3,87,106);"/>
    </g>
    <g transform="matrix(-1.04869,0.605459,-0.662354,-1.14723,1454.06,720.314)">
        <path d="M73.082,231.629L107.411,285.981L38.754,285.981L73.082,231.629Z" style="fill:rgb(3,119,148);"/>
    </g>
    <g transform="matrix(-4.01921e-16,1.21092,-1.32471,-4.82305e-16,1530.84,410.334)">
        <path d="M73.082,231.629L107.411,285.981L38.754,285.981L73.082,231.629Z" style="fill:rgb(99,202,213);"/>
    </g>
    <g transform="matrix(-1.04869,-0.605459,0.662354,-1.14723,1147.22,808.811)">
        <path d="M73.082,231.629L107.411,285.981L38.754,285.981L73.082,231.629Z" style="fill:rgb(3,119,148);"/>
    </g>
    <g transform="matrix(2.41153e-16,-1.21092,1.32471,4.01921e-16,917.159,753.604)">
        <path d="M73.082,231.629L107.411,285.981L38.754,285.981L73.082,231.629Z" style="fill:rgb(3,87,106);"/>
    </g>
    <g transform="matrix(-1.04869,0.605459,-0.662354,-1.14723,1454.06,886.591)">
        <path d="M73.082,231.629L107.411,285.981L38.754,285.981L73.082,231.629Z" style="fill:rgb(3,87,106);"/>
    </g>
    <g transform="matrix(-4.01921e-16,1.21092,-1.32471,-4.82305e-16,1530.84,576.611)">
        <path d="M73.082,231.629L107.411,285.981L38.754,285.981L73.082,231.629Z" style="fill:rgb(3,119,148);"/>
    </g>
    <g transform="matrix(-1.04869,-0.605459,0.662354,-1.14723,1147.22,975.088)">
        <path d="M73.082,231.629L107.411,285.981L38.754,285.981L73.082,231.629Z" style="fill:rgb(239,52,56);"/>
    </g>
    <g transform="matrix(8.03842e-17,1.21092,-1.32471,-8.03842e-17,1674.84,327.195)">
        <path d="M73.082,231.629L107.411,285.981L38.754,285.981L73.082,231.629Z" style="fill:rgb(3,87,106);"/>
    </g>
    <g transform="matrix(6.79105e-17,-1.21092,1.32471,2.42614e-16,917.159,504.189)">
        <path d="M73.082,231.629L107.411,285.981L38.754,285.981L73.082,231.629Z" style="fill:rgb(99,202,213);"/>
    </g>
    <g transform="matrix(8.03842e-17,1.21092,-1.32471,-8.03842e-17,1674.84,493.472)">
        <path d="M73.082,231.629L107.411,285.981L38.754,285.981L73.082,231.629Z" style="fill:rgb(239,52,56);"/>
    </g>
    <g transform="matrix(6.79105e-17,-1.21092,1.32471,2.42614e-16,917.159,670.466)">
        <path d="M73.082,231.629L107.411,285.981L38.754,285.981L73.082,231.629Z" style="fill:rgb(165,188,58);"/>
    </g>
    <g transform="matrix(1.04869,0.605459,-0.662354,1.14723,1444.78,22.5735)">
        <path d="M73.082,231.629L107.411,285.981L38.754,285.981L73.082,231.629Z" style="fill:rgb(3,119,148);"/>
    </g>
    <g transform="matrix(1.04869,-0.605459,0.662354,1.14723,1137.94,111.07)">
        <path d="M73.082,231.629L107.411,285.981L38.754,285.981L73.082,231.629Z" style="fill:rgb(3,87,106);"/>
    </g>
    <g transform="matrix(2.41153e-16,-1.21092,1.32471,4.01921e-16,1061.16,421.051)">
        <path d="M73.082,231.629L107.411,285.981L38.754,285.981L73.082,231.629Z" style="fill:rgb(99,202,213);"/>
    </g>
    <g transform="matrix(-1.04869,0.605459,-0.662354,-1.14723,1598.06,554.037)">
        <path d="M73.082,231.629L107.411,285.981L38.754,285.981L73.082,231.629Z" style="fill:rgb(3,119,148);"/>
    </g>
    <g transform="matrix(-4.01921e-16,1.21092,-1.32471,-4.82305e-16,1674.84,244.057)">
        <path d="M73.082,231.629L107.411,285.981L38.754,285.981L73.082,231.629Z" style="fill:rgb(165,188,58);"/>
    </g>
    <g transform="matrix(-1.04869,-0.605459,0.662354,-1.14723,1291.22,642.534)">
        <path d="M73.082,231.629L107.411,285.981L38.754,285.981L73.082,231.629Z" style="fill:rgb(3,87,106);"/>
    </g>
    <g transform="matrix(1.04869,0.605459,-0.662354,1.14723,1444.78,188.85)">
        <path d="M73.082,231.629L107.411,285.981L38.754,285.981L73.082,231.629Z" style="fill:rgb(99,202,213);"/>
    </g>
    <g transform="matrix(1.04869,-0.605459,0.662354,1.14723,1137.94,277.347)">
        <path d="M73.082,231.629L107.411,285.981L38.754,285.981L73.082,231.629Z" style="fill:rgb(165,188,58);"/>
    </g>
    <g transform="matrix(2.41153e-16,-1.21092,1.32471,4.01921e-16,1061.16,587.328)">
        <path d="M73.082,231.629L107.411,285.981L38.754,285.981L73.082,231.629Z" style="fill:rgb(165,188,58);"/>
    </g>
    <g transform="matrix(-1.04869,0.605459,-0.662354,-1.14723,1598.06,720.314)">
        <path d="M73.082,231.629L107.411,285.981L38.754,285.981L73.082,231.629Z" style="fill:rgb(3,119,148);"/>
    </g>
    <g transform="matrix(-4.01921e-16,1.21092,-1.32471,-4.82305e-16,1674.84,410.334)">
        <path d="M73.082,231.629L107.411,285.981L38.754,285.981L73.082,231.629Z" style="fill:rgb(3,119,148);"/>
    </g>
    <g transform="matrix(-1.04869,-0.605459,0.662354,-1.14723,1291.22,808.811)">
        <path d="M73.082,231.629L107.411,285.981L38.754,285.981L73.082,231.629Z" style="fill:rgb(3,87,106);"/>
    </g>
    <g transform="matrix(2.41153e-16,-1.21092,1.32471,4.01921e-16,1061.16,753.604)">
        <path d="M73.082,231.629L107.411,285.981L38.754,285.981L73.082,231.629Z" style="fill:rgb(3,87,106);"/>
    </g>
    <g transform="matrix(-1.04869,0.605459,-0.662354,-1.14723,1598.06,886.591)">
        <path d="M73.082,231.629L107.411,285.981L38.754,285.981L73.082,231.629Z" style="fill:rgb(3,119,148);"/>
    </g>
    <g transform="matrix(-4.01921e-16,1.21092,-1.32471,-4.82305e-16,1674.84,576.611)">
        <path d="M73.082,231.629L107.411,285.981L38.754,285.981L73.082,231.629Z" style="fill:rgb(3,119,148);"/>
    </g>
    <g transform="matrix(-1.04869,-0.605459,0.662354,-1.14723,1291.22,975.088)">
        <path d="M73.082,231.629L107.411,285.981L38.754,285.981L73.082,231.629Z" style="fill:rgb(3,119,148);"/>
    </g>
    <g transform="matrix(6.79105e-17,-1.21092,1.32471,2.42614e-16,1061.16,504.189)">
        <path d="M73.082,231.629L107.411,285.981L38.754,285.981L73.082,231.629Z" style="fill:rgb(165,188,58);"/>
    </g>
    <g transform="matrix(1.04869,0.605459,-0.662354,1.14723,148.78,-143.703)">
        <path d="M73.082,231.629L107.411,285.981L38.754,285.981L73.082,231.629Z" style="fill:rgb(165,188,58);"/>
    </g>
    <g transform="matrix(1.04869,-0.605459,0.662354,1.14723,-158.061,-55.2065)">
        <path d="M73.082,231.629L107.411,285.981L38.754,285.981L73.082,231.629Z" style="fill:rgb(3,87,106);"/>
    </g>
    <g transform="matrix(8.03842e-17,1.21092,-1.32471,-8.03842e-17,522.841,160.918)">
        <path d="M73.082,231.629L107.411,285.981L38.754,285.981L73.082,231.629Z" style="fill:rgb(3,119,148);"/>
    </g>
    <g transform="matrix(8.03842e-17,1.21092,-1.32471,-8.03842e-17,378.841,160.918)">
        <path d="M73.082,231.629L107.411,285.981L38.754,285.981L73.082,231.629Z" style="fill:rgb(3,87,106);"/>
    </g>
    <g transform="matrix(6.79105e-17,-1.21092,1.32471,2.42614e-16,-234.841,337.912)">
        <path d="M73.082,231.629L107.411,285.981L38.754,285.981L73.082,231.629Z" style="fill:rgb(3,87,106);"/>
    </g>
    <g transform="matrix(2.41153e-16,-1.21092,1.32471,4.01921e-16,-234.841,254.774)">
        <path d="M73.082,231.629L107.411,285.981L38.754,285.981L73.082,231.629Z" style="fill:rgb(3,119,148);"/>
    </g>
    <g transform="matrix(-1.04869,0.605459,-0.662354,-1.14723,302.061,387.76)">
        <path d="M73.082,231.629L107.411,285.981L38.754,285.981L73.082,231.629Z" style="fill:rgb(3,119,148);"/>
    </g>
    <g transform="matrix(-4.01921e-16,1.21092,-1.32471,-4.82305e-16,378.841,77.78)">
        <path d="M73.082,231.629L107.411,285.981L38.754,285.981L73.082,231.629Z" style="fill:rgb(99,202,213);"/>
    </g>
    <g transform="matrix(-1.04869,-0.605459,0.662354,-1.14723,-4.77975,476.257)">
        <path d="M73.082,231.629L107.411,285.981L38.754,285.981L73.082,231.629Z" style="fill:rgb(165,188,58);"/>
    </g>
    <g transform="matrix(1.04869,0.605459,-0.662354,1.14723,292.78,-143.703)">
        <path d="M73.082,231.629L107.411,285.981L38.754,285.981L73.082,231.629Z" style="fill:rgb(239,52,56);"/>
    </g>
    <g transform="matrix(1.04869,-0.605459,0.662354,1.14723,-14.0609,-55.2065)">
        <path d="M73.082,231.629L107.411,285.981L38.754,285.981L73.082,231.629Z" style="fill:rgb(99,202,213);"/>
    </g>
    <g transform="matrix(2.41153e-16,-1.21092,1.32471,4.01921e-16,-90.8406,254.774)">
        <path d="M73.082,231.629L107.411,285.981L38.754,285.981L73.082,231.629Z" style="fill:rgb(3,119,148);"/>
    </g>
    <g transform="matrix(-1.04869,0.605459,-0.662354,-1.14723,446.061,387.76)">
        <path d="M73.082,231.629L107.411,285.981L38.754,285.981L73.082,231.629Z" style="fill:rgb(99,202,213);"/>
    </g>
    <g transform="matrix(-4.01921e-16,1.21092,-1.32471,-4.82305e-16,522.841,77.78)">
        <path d="M73.082,231.629L107.411,285.981L38.754,285.981L73.082,231.629Z" style="fill:rgb(3,87,106);"/>
    </g>
    <g transform="matrix(-1.04869,-0.605459,0.662354,-1.14723,139.22,476.257)">
        <path d="M73.082,231.629L107.411,285.981L38.754,285.981L73.082,231.629Z" style="fill:rgb(3,119,148);"/>
    </g>
    <g transform="matrix(8.03842e-17,1.21092,-1.32471,-8.03842e-17,666.841,160.918)">
        <path d="M73.082,231.629L107.411,285.981L38.754,285.981L73.082,231.629Z" style="fill:rgb(239,52,56);"/>
    </g>
    <g transform="matrix(6.79105e-17,-1.21092,1.32471,2.42614e-16,-90.8406,337.912)">
        <path d="M73.082,231.629L107.411,285.981L38.754,285.981L73.082,231.629Z" style="fill:rgb(3,87,106);"/>
    </g>
    <g transform="matrix(-4.01921e-16,1.21092,-1.32471,-4.82305e-16,666.841,77.78)">
        <path d="M73.082,231.629L107.411,285.981L38.754,285.981L73.082,231.629Z" style="fill:rgb(165,188,58);"/>
    </g>
    <g transform="matrix(8.03842e-17,1.21092,-1.32471,-8.03842e-17,1674.84,160.918)">
        <path d="M73.082,231.629L107.411,285.981L38.754,285.981L73.082,231.629Z" style="fill:rgb(3,119,148);"/>
    </g>
    <g transform="matrix(6.79105e-17,-1.21092,1.32471,2.42614e-16,917.159,337.912)">
        <path d="M73.082,231.629L107.411,285.981L38.754,285.981L73.082,231.629Z" style="fill:rgb(3,87,106);"/>
    </g>
    <g transform="matrix(1.04869,0.605459,-0.662354,1.14723,1444.78,-143.703)">
        <path d="M73.082,231.629L107.411,285.981L38.754,285.981L73.082,231.629Z" style="fill:rgb(3,87,106);"/>
    </g>
    <g transform="matrix(1.04869,-0.605459,0.662354,1.14723,1137.94,-55.2065)">
        <path d="M73.082,231.629L107.411,285.981L38.754,285.981L73.082,231.629Z" style="fill:rgb(3,119,148);"/>
    </g>
    <g transform="matrix(2.41153e-16,-1.21092,1.32471,4.01921e-16,1061.16,254.774)">
        <path d="M73.082,231.629L107.411,285.981L38.754,285.981L73.082,231.629Z" style="fill:rgb(3,119,148);"/>
    </g>
    <g transform="matrix(6.79105e-17,-1.21092,1.32471,2.42614e-16,1061.16,337.912)">
        <path d="M73.082,231.629L107.411,285.981L38.754,285.981L73.082,231.629Z" style="fill:rgb(239,52,56);"/>
    </g>
    <g transform="matrix(1.04869,0.605459,-0.662354,1.14723,148.78,-309.98)">
        <path d="M73.082,231.629L107.411,285.981L38.754,285.981L73.082,231.629Z" style="fill:rgb(3,87,106);"/>
    </g>
    <g transform="matrix(1.04869,-0.605459,0.662354,1.14723,-158.061,-221.483)">
        <path d="M73.082,231.629L107.411,285.981L38.754,285.981L73.082,231.629Z" style="fill:rgb(165,188,58);"/>
    </g>
    <g transform="matrix(8.03842e-17,1.21092,-1.32471,-8.03842e-17,522.841,-5.35847)">
        <path d="M73.082,231.629L107.411,285.981L38.754,285.981L73.082,231.629Z" style="fill:rgb(239,52,56);"/>
    </g>
    <g transform="matrix(8.03842e-17,1.21092,-1.32471,-8.03842e-17,378.841,-5.35847)">
        <path d="M73.082,231.629L107.411,285.981L38.754,285.981L73.082,231.629Z" style="fill:rgb(3,119,148);"/>
    </g>
    <g transform="matrix(6.79105e-17,-1.21092,1.32471,2.42614e-16,-234.841,171.635)">
        <path d="M73.082,231.629L107.411,285.981L38.754,285.981L73.082,231.629Z" style="fill:rgb(3,87,106);"/>
    </g>
    <g transform="matrix(1.04869,0.605459,-0.662354,1.14723,292.78,-309.98)">
        <path d="M73.082,231.629L107.411,285.981L38.754,285.981L73.082,231.629Z" style="fill:rgb(3,119,148);"/>
    </g>
    <g transform="matrix(1.04869,-0.605459,0.662354,1.14723,-14.0609,-221.483)">
        <path d="M73.082,231.629L107.411,285.981L38.754,285.981L73.082,231.629Z" style="fill:rgb(3,87,106);"/>
    </g>
    <g transform="matrix(1.04869,-0.605459,0.662354,1.14723,-230.061,-263.053)">
        <path d="M55.918,258.805L107.411,285.981L38.754,285.981L55.918,258.805Z" style="fill:rgb(239,52,56);"/>
    </g>
    <g transform="matrix(1.04869,-0.605459,0.662354,1.14723,-86.0609,-263.053)">
        <path d="M55.918,258.805L107.411,285.981L38.754,285.981L55.918,258.805Z" style="fill:rgb(3,119,148);"/>
    </g>
    <g transform="matrix(-1.04869,-0.605459,-0.662354,1.14723,374.061,-263.053)">
        <path d="M55.918,258.805L107.411,285.981L38.754,285.981L55.918,258.805Z" style="fill:rgb(3,87,106);"/>
    </g>
    <g transform="matrix(1.04869,-0.605459,0.662354,1.14723,57.9391,-263.053)">
        <path d="M55.918,258.805L107.411,285.981L38.754,285.981L55.918,258.805Z" style="fill:rgb(239,52,56);"/>
    </g>
    <g transform="matrix(-1.04869,-0.605459,-0.662354,1.14723,518.061,-263.053)">
        <path d="M55.918,258.805L107.411,285.981L38.754,285.981L55.918,258.805Z" style="fill:rgb(99,202,213);"/>
    </g>
    <g transform="matrix(-1.04869,-0.605459,-0.662354,1.14723,662.061,-263.053)">
        <path d="M55.918,258.805L107.411,285.981L38.754,285.981L55.918,258.805Z" style="fill:rgb(3,119,148);"/>
    </g>
    <g transform="matrix(8.03842e-17,1.21092,-1.32471,-8.03842e-17,666.841,-5.35847)">
        <path d="M73.082,231.629L107.411,285.981L38.754,285.981L73.082,231.629Z" style="fill:rgb(99,202,213);"/>
    </g>
    <g transform="matrix(6.79105e-17,-1.21092,1.32471,2.42614e-16,-90.8406,171.635)">
        <path d="M73.082,231.629L107.411,285.981L38.754,285.981L73.082,231.629Z" style="fill:rgb(3,87,106);"/>
    </g>
    <g transform="matrix(1.04869,0.605459,-0.662354,1.14723,436.78,-309.98)">
        <path d="M73.082,231.629L107.411,285.981L38.754,285.981L73.082,231.629Z" style="fill:rgb(3,119,148);"/>
    </g>
    <g transform="matrix(1.04869,-0.605459,0.662354,1.14723,129.939,-221.483)">
        <path d="M73.082,231.629L107.411,285.981L38.754,285.981L73.082,231.629Z" style="fill:rgb(3,87,106);"/>
    </g>
    <g transform="matrix(6.79105e-17,-1.21092,1.32471,2.42614e-16,53.1594,171.635)">
        <path d="M73.082,231.629L107.411,285.981L38.754,285.981L73.082,231.629Z" style="fill:rgb(3,87,106);"/>
    </g>
    <g transform="matrix(6.79105e-17,-1.21092,1.32471,2.42614e-16,1061.16,670.466)">
        <path d="M73.082,231.629L107.411,285.981L38.754,285.981L73.082,231.629Z" style="fill:rgb(239,52,56);"/>
    </g>
</svg>
