<?xml version="1.0" encoding="UTF-8" standalone="no"?>
<!DOCTYPE svg PUBLIC "-//W3C//DTD SVG 1.1//EN" "http://www.w3.org/Graphics/SVG/1.1/DTD/svg11.dtd">
<svg width="100%" height="100%" viewBox="0 0 748 451" version="1.1" xmlns="http://www.w3.org/2000/svg" xmlns:xlink="http://www.w3.org/1999/xlink" xml:space="preserve" xmlns:serif="http://www.serif.com/" style="fill-rule:evenodd;clip-rule:evenodd;stroke-linejoin:round;stroke-miterlimit:2;">
    <g transform="matrix(1,0,0,1,-142.758,-176.067)">
        <g id="Logo" transform="matrix(1,0,0,1,-759.257,-847.725)">
            <g>
                <g transform="matrix(5.13067,0,0,5.62252,-7146.99,-4325.76)">
                    <text x="1589.69px" y="971.867px" style="font-family:'CourierNewBold', 'Courier New', serif;font-weight:700;font-size:32.099px;fill:rgb(138,138,138);">ECPI</text>
                </g>
                <g transform="matrix(0.740998,0,0,0.740998,900.541,1013.12)">
                    <path d="M103.29,34.35C108.03,34.26 112.83,37.67 113.41,42.68C115.71,47.85 111.17,51.76 107.67,54.62C86.27,67.64 64.46,79.95 43.16,93.11L43.26,93.73C55.48,100.34 67.01,108.13 79.23,114.76C89.62,121.45 100.86,126.81 110.8,134.19C117.81,140.06 111.54,154.68 102.08,151.94C96.81,149.83 91.98,146.84 87.21,143.78C58.81,126.96 30.08,110.09 1.99,93.08C25.76,79.22 49.34,65.05 73.02,51.05C83.17,45.6 92.32,38.15 103.29,34.35Z" style="fill:rgb(176,30,45);fill-rule:nonzero;"/>
                </g>
                <g transform="matrix(0.740998,0,0,0.740998,1007.84,1013.12)">
                    <path d="M608.29,34.34C611.93,34.31 615.35,36.94 618.67,38.38C648.29,56.11 678.05,73.61 707.71,91.29C708.86,91.84 710.4,92.2 709.98,93.86C686.29,107.85 662.64,121.91 638.98,135.95C629.78,141.03 621.27,147.33 611.67,151.64C601.47,155.63 594.69,139.54 602.76,133.74C610.99,127.36 620.75,123.27 629.37,117.43C642.92,109.65 656.16,101.26 669.85,93.72L669.76,93.11C648.58,79.79 626.57,67.85 605.35,54.6C595.54,50.87 598.22,35.31 608.29,34.34Z" style="fill:rgb(176,30,45);fill-rule:nonzero;"/>
                </g>
            </g>
            <g transform="matrix(14.6701,0,0,10.6191,-25884.5,-15536.6)">
                <g transform="matrix(29.2911,0,0,32.099,1832.04,1597.08)">
                    <path d="M0.513,-0.5L0.307,-0.5L0.307,-0.571C0.307,-0.617 0.305,-0.645 0.301,-0.656C0.297,-0.668 0.288,-0.673 0.273,-0.673C0.261,-0.673 0.252,-0.668 0.248,-0.659C0.243,-0.649 0.241,-0.624 0.241,-0.583L0.241,-0.204C0.241,-0.169 0.243,-0.145 0.248,-0.134C0.252,-0.123 0.261,-0.117 0.275,-0.117C0.29,-0.117 0.3,-0.124 0.305,-0.136C0.311,-0.149 0.313,-0.174 0.313,-0.21L0.313,-0.304L0.272,-0.304L0.272,-0.424L0.513,-0.424L0.513,-0L0.383,-0L0.364,-0.057C0.35,-0.032 0.333,-0.014 0.311,-0.002C0.29,0.01 0.265,0.017 0.236,0.017C0.201,0.017 0.169,0.008 0.139,-0.009C0.109,-0.025 0.086,-0.046 0.07,-0.071C0.055,-0.096 0.045,-0.122 0.041,-0.149C0.037,-0.176 0.035,-0.217 0.035,-0.271L0.035,-0.506C0.035,-0.581 0.039,-0.636 0.047,-0.67C0.056,-0.705 0.079,-0.736 0.117,-0.764C0.156,-0.793 0.206,-0.807 0.267,-0.807C0.327,-0.807 0.377,-0.795 0.417,-0.77C0.457,-0.745 0.483,-0.716 0.495,-0.682C0.507,-0.648 0.513,-0.598 0.513,-0.534L0.513,-0.5Z" style="fill:rgb(138,138,138);fill-rule:nonzero;"/>
                </g>
                <g transform="matrix(29.2911,0,0,32.099,1848.19,1597.08)">
                    <path d="M0.041,-0.791L0.246,-0.791C0.311,-0.791 0.36,-0.785 0.393,-0.775C0.427,-0.765 0.454,-0.745 0.474,-0.714C0.495,-0.683 0.505,-0.634 0.505,-0.565C0.505,-0.519 0.498,-0.487 0.483,-0.469C0.469,-0.451 0.44,-0.437 0.397,-0.427C0.445,-0.416 0.477,-0.398 0.494,-0.373C0.511,-0.348 0.52,-0.31 0.52,-0.259L0.52,-0.186C0.52,-0.132 0.513,-0.093 0.501,-0.067C0.489,-0.041 0.47,-0.024 0.443,-0.014C0.416,-0.005 0.361,-0 0.279,-0L0.041,-0L0.041,-0.791ZM0.247,-0.655L0.247,-0.479C0.255,-0.48 0.262,-0.48 0.267,-0.48C0.287,-0.48 0.3,-0.485 0.306,-0.495C0.311,-0.505 0.314,-0.533 0.314,-0.58C0.314,-0.605 0.312,-0.622 0.307,-0.632C0.303,-0.642 0.297,-0.648 0.289,-0.651C0.282,-0.653 0.268,-0.655 0.247,-0.655ZM0.247,-0.356L0.247,-0.135C0.276,-0.136 0.294,-0.141 0.302,-0.149C0.31,-0.157 0.314,-0.177 0.314,-0.209L0.314,-0.283C0.314,-0.317 0.31,-0.337 0.303,-0.344C0.296,-0.351 0.277,-0.355 0.247,-0.356Z" style="fill:rgb(138,138,138);fill-rule:nonzero;"/>
                </g>
            </g>
            <path d="M1212.03,1405.67L1126.42,1337.29L1126.42,1319.16L1108.59,1319.16L1108.59,1278.22L1212.03,1278.22L1212.03,1405.67Z" style="fill:rgb(1,85,122);fill-rule:nonzero;"/>
            <path d="M1334.56,1336.66L1334.56,1376.75C1347.01,1376.41 1354.94,1374.86 1358.37,1372.09C1360.81,1370.12 1362.38,1366.1 1363.08,1360.04L1428.98,1414.07C1425.94,1415.67 1422.58,1416.99 1418.9,1418.02C1407.5,1421.22 1384.21,1422.83 1349.03,1422.85L1246.23,1375.47L1246.23,1264.24L1334.56,1336.66Z" style="fill:rgb(1,85,122);fill-rule:nonzero;"/>
            <path d="M1088.53,1305.97L1007.22,1350.37C1006.96,1344.47 1006.83,1337.84 1006.83,1330.48L1006.83,1250.42C1006.83,1235.4 1007.42,1222.78 1008.61,1212.56L1088.53,1305.97Z" style="fill:rgb(0,175,202);fill-rule:nonzero;"/>
            <path d="M1334.56,1204.29L1334.56,1259.41C1338.34,1259.3 1341.27,1259.24 1343.37,1259.24C1352.04,1259.24 1357.57,1257.55 1359.95,1254.17C1361.51,1251.94 1362.56,1246.99 1363.1,1239.31L1451.85,1348.23L1451.85,1359.61C1451.85,1377.8 1449.22,1391.28 1443.98,1400.05C1440.54,1405.8 1435.75,1410.36 1429.63,1413.72L1363.13,1359.56C1363.39,1357.21 1363.51,1354.56 1363.51,1351.62L1363.51,1326.48C1363.51,1314.94 1361.97,1307.95 1358.9,1305.51C1355.82,1303.07 1347.71,1301.68 1334.56,1301.35L1334.56,1336.29L1246.23,1264.35L1246.23,1233.18L1307.02,1170.5L1334.56,1204.29Z" style="fill:rgb(0,59,69);fill-rule:nonzero;"/>
            <path d="M1095.16,1311.33L1095.16,1353.28C1095.16,1365.38 1096.14,1373.34 1098.1,1377.16C1100.05,1380.99 1103.97,1382.91 1109.85,1382.91C1116.28,1382.91 1120.65,1380.74 1122.96,1376.41C1125.27,1372.09 1126.42,1363.65 1126.42,1351.12L1126.42,1336.59L1212.03,1405.77L1212.03,1422.85L1156.42,1422.85L1148.24,1403.54C1142.23,1411.87 1134.64,1418.11 1125.48,1422.27C1116.32,1426.43 1105.51,1428.51 1093.06,1428.51C1078.23,1428.51 1064.35,1425.65 1051.41,1419.94C1038.47,1414.22 1028.65,1407.15 1021.93,1398.72C1015.22,1390.29 1011.02,1381.44 1009.34,1372.17C1008.33,1366.59 1007.63,1359.33 1007.23,1350.39L1088.53,1305.97L1095.16,1311.33Z" style="fill:rgb(247,20,16);fill-rule:nonzero;"/>
            <g transform="matrix(5.13067,0,0,5.62252,-6702.12,-3989.79)">
                <text x="1589.69px" y="971.867px" style="font-family:'CourierNewBold', 'Courier New', serif;font-weight:700;font-size:32.099px;fill:rgb(176,30,45);">21</text>
            </g>
            <path d="M1303.21,1174.37L1246.23,1233.15L1246.23,1162.22L1303.21,1174.37Z" style="fill:rgb(1,85,122);fill-rule:nonzero;"/>
            <path d="M1052.87,1156.99C1067.65,1150.82 1085.53,1147.73 1106.49,1147.73C1132.37,1147.73 1153.84,1151.95 1170.9,1160.38C1187.97,1168.81 1199.09,1178.83 1204.26,1190.42C1209.38,1201.89 1211.97,1218.48 1212.03,1240.2L1151.95,1252.59L1148.3,1252.59L1123.69,1227.94C1123.69,1212.62 1122.85,1203.03 1121.18,1199.16C1119.5,1195.28 1115.51,1193.34 1109.22,1193.34C1103.76,1193.34 1100.05,1195 1098.1,1198.33C1097.68,1199.04 1097.31,1199.99 1096.98,1201.17L1052.87,1156.99Z" style="fill:rgb(1,85,122);fill-rule:nonzero;"/>
            <path d="M1287.03,1153.39L1334.35,1153.39C1362.18,1153.39 1383.27,1155.11 1397.61,1158.55C1411.94,1161.99 1423.52,1168.95 1432.33,1179.44C1441.14,1189.92 1445.55,1206.82 1445.55,1230.12C1445.55,1245.87 1442.44,1256.86 1436.21,1263.07C1429.99,1269.29 1417.71,1274.06 1399.39,1277.39C1419.81,1281.05 1433.66,1287.12 1440.93,1295.61C1448.21,1304.1 1451.85,1317.11 1451.85,1334.64L1451.85,1359.61C1451.85,1362.18 1451.79,1364.65 1451.69,1367.04L1361.59,1250.13C1362.87,1245.19 1363.51,1236.86 1363.51,1225.12C1363.51,1216.69 1362.53,1210.78 1360.58,1207.4C1358.62,1204.02 1356.06,1201.88 1352.92,1200.99C1349.77,1200.1 1343.65,1199.6 1334.56,1199.49L1334.56,1215.06L1287.03,1153.39Z" style="fill:rgb(114,172,10);fill-rule:nonzero;"/>
            <path d="M1364.63,1154.22C1378.04,1155.05 1389.03,1156.49 1397.61,1158.55C1411.94,1161.99 1423.52,1168.95 1432.33,1179.44C1437.87,1186.02 1441.66,1195.14 1443.72,1206.78L1303.21,1174.35L1364.63,1154.22Z" style="fill:rgb(1,85,122);fill-rule:nonzero;"/>
            <path d="M1246.23,1375.47L1349.04,1422.85L1348.41,1422.85L1246.23,1422.85L1246.23,1375.47Z" style="fill:rgb(0,175,202);fill-rule:nonzero;"/>
            <path d="M1212.03,1240.2C1212.03,1240.45 1212.03,1240.69 1212.03,1240.94L1212.03,1252.59L1151.43,1252.59L1212.03,1240.2L1212.03,1240.2Z" style="fill:rgb(0,59,69);fill-rule:nonzero;"/>
            <path d="M1123.69,1228.1L1148.66,1252.59L1123.69,1252.59L1123.69,1228.12L1123.69,1228.1Z" style="fill:rgb(247,20,16);fill-rule:nonzero;"/>
            <path d="M1287.03,1153.39L1246.23,1153.39L1246.23,1162.22L1303.21,1174.35L1287.03,1153.39Z" style="fill:rgb(247,20,16);fill-rule:nonzero;"/>
            <path d="M1053.37,1156.78L1097.08,1200.81C1095.8,1205.11 1095.16,1212.83 1095.16,1223.96L1095.16,1313.44L1008.45,1213.97C1009.32,1206.04 1010.52,1199.5 1012.07,1194.33C1015.57,1182.68 1025.61,1172 1042.18,1162.3C1045.69,1160.24 1049.42,1158.4 1053.37,1156.78Z" style="fill:rgb(0,59,69);fill-rule:nonzero;"/>
        </g>
    </g>
</svg>
