<?xml version="1.0" encoding="UTF-8" standalone="no"?>
<!DOCTYPE svg PUBLIC "-//W3C//DTD SVG 1.1//EN" "http://www.w3.org/Graphics/SVG/1.1/DTD/svg11.dtd">
<svg width="100%" height="100%" viewBox="0 0 1024 1024" version="1.1" xmlns="http://www.w3.org/2000/svg" xmlns:xlink="http://www.w3.org/1999/xlink" xml:space="preserve" xmlns:serif="http://www.serif.com/" style="fill-rule:evenodd;clip-rule:evenodd;stroke-linejoin:round;stroke-miterlimit:2;">
    <g transform="matrix(1.51888,0,0,27.6498,1.47793e-12,-13077.4)">
        <rect x="-0" y="472.965" width="674.182" height="37.035" style="fill:rgb(3,119,148);"/>
    </g>
    <g transform="matrix(0.745732,-0.430549,-0.471007,-0.815808,105.799,493.948)">
        <path d="M73.082,231.629L107.411,285.981L38.754,285.981L73.082,231.629Z" style="fill:rgb(3,119,148);"/>
    </g>
    <g transform="matrix(0.745732,0.430549,0.471007,-0.815808,-112.399,431.017)">
        <path d="M73.082,231.629L107.411,285.981L38.754,285.981L73.082,231.629Z" style="fill:rgb(3,119,148);"/>
    </g>
    <g transform="matrix(5.71621e-17,-0.861097,-0.942014,5.71621e-17,269.398,277.328)">
        <path d="M73.082,231.629L107.411,285.981L38.754,285.981L73.082,231.629Z" style="fill:rgb(3,119,148);"/>
    </g>
    <g transform="matrix(5.71621e-17,-0.861097,-0.942014,5.71621e-17,371.798,159.086)">
        <path d="M73.082,231.629L107.411,285.981L38.754,285.981L73.082,231.629Z" style="fill:rgb(165,188,58);"/>
    </g>
    <g transform="matrix(5.71621e-17,-0.861097,-0.942014,5.71621e-17,269.398,159.086)">
        <path d="M73.082,231.629L107.411,285.981L38.754,285.981L73.082,231.629Z" style="fill:rgb(239,52,56);"/>
    </g>
    <g transform="matrix(4.82919e-17,0.861097,0.942014,-1.72526e-16,-166.998,33.2242)">
        <path d="M73.082,231.629L107.411,285.981L38.754,285.981L73.082,231.629Z" style="fill:rgb(0,70,87);"/>
    </g>
    <g transform="matrix(0.745732,-0.430549,-0.471007,-0.815808,105.799,375.706)">
        <path d="M73.082,231.629L107.411,285.981L38.754,285.981L73.082,231.629Z" style="fill:rgb(3,119,148);"/>
    </g>
    <g transform="matrix(0.745732,0.430549,0.471007,-0.815808,-112.399,312.775)">
        <path d="M73.082,231.629L107.411,285.981L38.754,285.981L73.082,231.629Z" style="fill:rgb(0,70,87);"/>
    </g>
    <g transform="matrix(1.71486e-16,0.861097,0.942014,-2.8581e-16,-166.998,92.3449)">
        <path d="M73.082,231.629L107.411,285.981L38.754,285.981L73.082,231.629Z" style="fill:rgb(3,119,148);"/>
    </g>
    <g transform="matrix(-2.8581e-16,-0.861097,-0.942014,3.42972e-16,269.398,218.207)">
        <path d="M73.082,231.629L107.411,285.981L38.754,285.981L73.082,231.629Z" style="fill:rgb(99,202,213);"/>
    </g>
    <g transform="matrix(1.71486e-16,0.861097,0.942014,-2.8581e-16,-166.998,-25.8965)">
        <path d="M73.082,231.629L107.411,285.981L38.754,285.981L73.082,231.629Z" style="fill:rgb(99,202,213);"/>
    </g>
    <g transform="matrix(-0.745732,-0.430549,-0.471007,0.815808,214.799,-120.465)">
        <path d="M73.082,231.629L107.411,285.981L38.754,285.981L73.082,231.629Z" style="fill:rgb(0,70,87);"/>
    </g>
    <g transform="matrix(-2.8581e-16,-0.861097,-0.942014,3.42972e-16,269.398,99.9658)">
        <path d="M73.082,231.629L107.411,285.981L38.754,285.981L73.082,231.629Z" style="fill:rgb(0,70,87);"/>
    </g>
    <g transform="matrix(-0.745732,0.430549,0.471007,0.815808,-3.39893,-183.396)">
        <path d="M73.082,231.629L107.411,285.981L38.754,285.981L73.082,231.629Z" style="fill:rgb(165,188,58);"/>
    </g>
    <g transform="matrix(0.745732,0.430549,0.471007,-0.815808,-9.99886,431.017)">
        <path d="M73.082,231.629L107.411,285.981L38.754,285.981L73.082,231.629Z" style="fill:rgb(3,119,148);"/>
    </g>
    <g transform="matrix(0.745732,-0.430549,-0.471007,-0.815808,208.199,375.706)">
        <path d="M73.082,231.629L107.411,285.981L38.754,285.981L73.082,231.629Z" style="fill:rgb(99,202,213);"/>
    </g>
    <g transform="matrix(0.745732,0.430549,0.471007,-0.815808,-9.99886,312.775)">
        <path d="M73.082,231.629L107.411,285.981L38.754,285.981L73.082,231.629Z" style="fill:rgb(3,119,148);"/>
    </g>
    <g transform="matrix(1.71486e-16,0.861097,0.942014,-2.8581e-16,-64.5978,92.3449)">
        <path d="M73.082,231.629L107.411,285.981L38.754,285.981L73.082,231.629Z" style="fill:rgb(3,119,148);"/>
    </g>
    <g transform="matrix(-0.745732,0.430549,0.471007,0.815808,99.0011,-65.1544)">
        <path d="M73.082,231.629L107.411,285.981L38.754,285.981L73.082,231.629Z" style="fill:rgb(3,119,148);"/>
    </g>
    <g transform="matrix(1.71486e-16,0.861097,0.942014,-2.8581e-16,-64.5978,-25.8965)">
        <path d="M73.082,231.629L107.411,285.981L38.754,285.981L73.082,231.629Z" style="fill:rgb(3,119,148);"/>
    </g>
    <g transform="matrix(-0.745732,-0.430549,-0.471007,0.815808,317.199,-120.465)">
        <path d="M73.082,231.629L107.411,285.981L38.754,285.981L73.082,231.629Z" style="fill:rgb(3,119,148);"/>
    </g>
    <g transform="matrix(-2.8581e-16,-0.861097,-0.942014,3.42972e-16,371.798,99.9658)">
        <path d="M73.082,231.629L107.411,285.981L38.754,285.981L73.082,231.629Z" style="fill:rgb(0,70,87);"/>
    </g>
    <g transform="matrix(-0.745732,0.430549,0.471007,0.815808,99.0011,-183.396)">
        <path d="M73.082,231.629L107.411,285.981L38.754,285.981L73.082,231.629Z" style="fill:rgb(239,52,56);"/>
    </g>
    <g transform="matrix(5.71621e-17,-0.861097,-0.942014,5.71621e-17,474.198,159.086)">
        <path d="M73.082,231.629L107.411,285.981L38.754,285.981L73.082,231.629Z" style="fill:rgb(3,119,148);"/>
    </g>
    <g transform="matrix(4.82919e-17,0.861097,0.942014,-1.72526e-16,-64.5978,33.2242)">
        <path d="M73.082,231.629L107.411,285.981L38.754,285.981L73.082,231.629Z" style="fill:rgb(0,70,87);"/>
    </g>
    <g transform="matrix(0.745732,-0.430549,-0.471007,-0.815808,310.599,493.948)">
        <path d="M73.082,231.629L107.411,285.981L38.754,285.981L73.082,231.629Z" style="fill:rgb(3,119,148);"/>
    </g>
    <g transform="matrix(0.745732,0.430549,0.471007,-0.815808,92.4011,431.017)">
        <path d="M73.082,231.629L107.411,285.981L38.754,285.981L73.082,231.629Z" style="fill:rgb(3,119,148);"/>
    </g>
    <g transform="matrix(1.71486e-16,0.861097,0.942014,-2.8581e-16,37.8022,210.586)">
        <path d="M73.082,231.629L107.411,285.981L38.754,285.981L73.082,231.629Z" style="fill:rgb(3,119,148);"/>
    </g>
    <g transform="matrix(-0.745732,0.430549,0.471007,0.815808,201.401,567.087)">
        <path d="M73.082,231.629L107.411,285.981L38.754,285.981L73.082,231.629Z" style="fill:rgb(3,119,148);"/>
    </g>
    <g transform="matrix(0.745732,-0.430549,-0.471007,-0.815808,310.599,375.706)">
        <path d="M73.082,231.629L107.411,285.981L38.754,285.981L73.082,231.629Z" style="fill:rgb(3,119,148);"/>
    </g>
    <g transform="matrix(0.745732,0.430549,0.471007,-0.815808,92.4011,312.775)">
        <path d="M73.082,231.629L107.411,285.981L38.754,285.981L73.082,231.629Z" style="fill:rgb(3,119,148);"/>
    </g>
    <g transform="matrix(1.71486e-16,0.861097,0.942014,-2.8581e-16,37.8022,92.3449)">
        <path d="M73.082,231.629L107.411,285.981L38.754,285.981L73.082,231.629Z" style="fill:rgb(3,119,148);"/>
    </g>
    <g transform="matrix(-0.745732,-0.430549,-0.471007,0.815808,419.599,-2.22327)">
        <path d="M73.082,231.629L107.411,285.981L38.754,285.981L73.082,231.629Z" style="fill:rgb(3,119,148);"/>
    </g>
    <g transform="matrix(-0.745732,0.430549,0.471007,0.815808,201.401,-65.1544)">
        <path d="M73.082,231.629L107.411,285.981L38.754,285.981L73.082,231.629Z" style="fill:rgb(3,119,148);"/>
    </g>
    <g transform="matrix(1.71486e-16,0.861097,0.942014,-2.8581e-16,37.8022,-25.8965)">
        <path d="M73.082,231.629L107.411,285.981L38.754,285.981L73.082,231.629Z" style="fill:rgb(3,119,148);"/>
    </g>
    <g transform="matrix(-0.745732,-0.430549,-0.471007,0.815808,419.599,-120.465)">
        <path d="M73.082,231.629L107.411,285.981L38.754,285.981L73.082,231.629Z" style="fill:rgb(0,70,87);"/>
    </g>
    <g transform="matrix(-2.8581e-16,-0.861097,-0.942014,3.42972e-16,474.198,99.9658)">
        <path d="M73.082,231.629L107.411,285.981L38.754,285.981L73.082,231.629Z" style="fill:rgb(3,119,148);"/>
    </g>
    <g transform="matrix(-0.745732,0.430549,0.471007,0.815808,201.401,-183.396)">
        <path d="M73.082,231.629L107.411,285.981L38.754,285.981L73.082,231.629Z" style="fill:rgb(99,202,213);"/>
    </g>
    <g transform="matrix(5.71621e-17,-0.861097,-0.942014,5.71621e-17,576.598,277.328)">
        <path d="M73.082,231.629L107.411,285.981L38.754,285.981L73.082,231.629Z" style="fill:rgb(3,119,148);"/>
    </g>
    <g transform="matrix(4.82919e-17,0.861097,0.942014,-1.72526e-16,37.8022,151.466)">
        <path d="M73.082,231.629L107.411,285.981L38.754,285.981L73.082,231.629Z" style="fill:rgb(3,119,148);"/>
    </g>
    <g transform="matrix(5.71621e-17,-0.861097,-0.942014,5.71621e-17,576.598,159.086)">
        <path d="M73.082,231.629L107.411,285.981L38.754,285.981L73.082,231.629Z" style="fill:rgb(3,119,148);"/>
    </g>
    <g transform="matrix(4.82919e-17,0.861097,0.942014,-1.72526e-16,37.8022,33.2242)">
        <path d="M73.082,231.629L107.411,285.981L38.754,285.981L73.082,231.629Z" style="fill:rgb(3,119,148);"/>
    </g>
    <g transform="matrix(0.745732,-0.430549,-0.471007,-0.815808,412.999,493.948)">
        <path d="M73.082,231.629L107.411,285.981L38.754,285.981L73.082,231.629Z" style="fill:rgb(3,119,148);"/>
    </g>
    <g transform="matrix(0.745732,0.430549,0.471007,-0.815808,194.801,431.017)">
        <path d="M73.082,231.629L107.411,285.981L38.754,285.981L73.082,231.629Z" style="fill:rgb(3,119,148);"/>
    </g>
    <g transform="matrix(1.71486e-16,0.861097,0.942014,-2.8581e-16,140.202,210.586)">
        <path d="M73.082,231.629L107.411,285.981L38.754,285.981L73.082,231.629Z" style="fill:rgb(3,119,148);"/>
    </g>
    <g transform="matrix(-0.745732,-0.430549,-0.471007,0.815808,521.999,630.018)">
        <path d="M73.082,231.629L107.411,285.981L38.754,285.981L73.082,231.629Z" style="fill:rgb(3,119,148);"/>
    </g>
    <g transform="matrix(-2.8581e-16,-0.861097,-0.942014,3.42972e-16,576.598,336.448)">
        <path d="M73.082,231.629L107.411,285.981L38.754,285.981L73.082,231.629Z" style="fill:rgb(3,119,148);"/>
    </g>
    <g transform="matrix(-0.745732,0.430549,0.471007,0.815808,303.801,567.087)">
        <path d="M73.082,231.629L107.411,285.981L38.754,285.981L73.082,231.629Z" style="fill:rgb(3,119,148);"/>
    </g>
    <g transform="matrix(0.745732,-0.430549,-0.471007,-0.815808,412.999,375.706)">
        <path d="M73.082,231.629L107.411,285.981L38.754,285.981L73.082,231.629Z" style="fill:rgb(3,119,148);"/>
    </g>
    <g transform="matrix(0.745732,0.430549,0.471007,-0.815808,194.801,312.775)">
        <path d="M73.082,231.629L107.411,285.981L38.754,285.981L73.082,231.629Z" style="fill:rgb(3,119,148);"/>
    </g>
    <g transform="matrix(1.71486e-16,0.861097,0.942014,-2.8581e-16,140.202,92.3449)">
        <path d="M73.082,231.629L107.411,285.981L38.754,285.981L73.082,231.629Z" style="fill:rgb(3,119,148);"/>
    </g>
    <g transform="matrix(-0.745732,-0.430549,-0.471007,0.815808,521.999,-2.22327)">
        <path d="M73.082,231.629L107.411,285.981L38.754,285.981L73.082,231.629Z" style="fill:rgb(3,119,148);"/>
    </g>
    <g transform="matrix(-2.8581e-16,-0.861097,-0.942014,3.42972e-16,576.598,218.207)">
        <path d="M73.082,231.629L107.411,285.981L38.754,285.981L73.082,231.629Z" style="fill:rgb(3,119,148);"/>
    </g>
    <g transform="matrix(-0.745732,0.430549,0.471007,0.815808,303.801,-65.1544)">
        <path d="M73.082,231.629L107.411,285.981L38.754,285.981L73.082,231.629Z" style="fill:rgb(3,119,148);"/>
    </g>
    <g transform="matrix(1.71486e-16,0.861097,0.942014,-2.8581e-16,140.202,-25.8965)">
        <path d="M73.082,231.629L107.411,285.981L38.754,285.981L73.082,231.629Z" style="fill:rgb(3,119,148);"/>
    </g>
    <g transform="matrix(-0.745732,-0.430549,-0.471007,0.815808,521.999,-120.465)">
        <path d="M73.082,231.629L107.411,285.981L38.754,285.981L73.082,231.629Z" style="fill:rgb(3,119,148);"/>
    </g>
    <g transform="matrix(-2.8581e-16,-0.861097,-0.942014,3.42972e-16,576.598,99.9658)">
        <path d="M73.082,231.629L107.411,285.981L38.754,285.981L73.082,231.629Z" style="fill:rgb(3,119,148);"/>
    </g>
    <g transform="matrix(-0.745732,0.430549,0.471007,0.815808,303.801,-183.396)">
        <path d="M73.082,231.629L107.411,285.981L38.754,285.981L73.082,231.629Z" style="fill:rgb(3,119,148);"/>
    </g>
    <g transform="matrix(5.71621e-17,-0.861097,-0.942014,5.71621e-17,678.998,277.328)">
        <path d="M73.082,231.629L107.411,285.981L38.754,285.981L73.082,231.629Z" style="fill:rgb(3,119,148);"/>
    </g>
    <g transform="matrix(4.82919e-17,0.861097,0.942014,-1.72526e-16,140.202,151.466)">
        <path d="M73.082,231.629L107.411,285.981L38.754,285.981L73.082,231.629Z" style="fill:rgb(3,119,148);"/>
    </g>
    <g transform="matrix(5.71621e-17,-0.861097,-0.942014,5.71621e-17,678.998,159.086)">
        <path d="M73.082,231.629L107.411,285.981L38.754,285.981L73.082,231.629Z" style="fill:rgb(3,119,148);"/>
    </g>
    <g transform="matrix(4.82919e-17,0.861097,0.942014,-1.72526e-16,140.202,33.2242)">
        <path d="M73.082,231.629L107.411,285.981L38.754,285.981L73.082,231.629Z" style="fill:rgb(3,119,148);"/>
    </g>
    <g transform="matrix(0.745732,-0.430549,-0.471007,-0.815808,515.399,493.948)">
        <path d="M73.082,231.629L107.411,285.981L38.754,285.981L73.082,231.629Z" style="fill:rgb(3,119,148);"/>
    </g>
    <g transform="matrix(0.745732,0.430549,0.471007,-0.815808,297.201,431.017)">
        <path d="M73.082,231.629L107.411,285.981L38.754,285.981L73.082,231.629Z" style="fill:rgb(3,119,148);"/>
    </g>
    <g transform="matrix(1.71486e-16,0.861097,0.942014,-2.8581e-16,242.602,210.586)">
        <path d="M73.082,231.629L107.411,285.981L38.754,285.981L73.082,231.629Z" style="fill:rgb(3,119,148);"/>
    </g>
    <g transform="matrix(-0.745732,-0.430549,-0.471007,0.815808,624.399,630.018)">
        <path d="M73.082,231.629L107.411,285.981L38.754,285.981L73.082,231.629Z" style="fill:rgb(3,119,148);"/>
    </g>
    <g transform="matrix(-2.8581e-16,-0.861097,-0.942014,3.42972e-16,678.998,336.448)">
        <path d="M73.082,231.629L107.411,285.981L38.754,285.981L73.082,231.629Z" style="fill:rgb(3,119,148);"/>
    </g>
    <g transform="matrix(-0.745732,0.430549,0.471007,0.815808,406.201,567.087)">
        <path d="M73.082,231.629L107.411,285.981L38.754,285.981L73.082,231.629Z" style="fill:rgb(3,119,148);"/>
    </g>
    <g transform="matrix(0.745732,-0.430549,-0.471007,-0.815808,515.399,375.706)">
        <path d="M73.082,231.629L107.411,285.981L38.754,285.981L73.082,231.629Z" style="fill:rgb(3,119,148);"/>
    </g>
    <g transform="matrix(0.745732,0.430549,0.471007,-0.815808,297.201,312.775)">
        <path d="M73.082,231.629L107.411,285.981L38.754,285.981L73.082,231.629Z" style="fill:rgb(3,119,148);"/>
    </g>
    <g transform="matrix(1.71486e-16,0.861097,0.942014,-2.8581e-16,242.602,92.3449)">
        <path d="M73.082,231.629L107.411,285.981L38.754,285.981L73.082,231.629Z" style="fill:rgb(3,119,148);"/>
    </g>
    <g transform="matrix(-0.745732,-0.430549,-0.471007,0.815808,624.399,-2.22327)">
        <path d="M73.082,231.629L107.411,285.981L38.754,285.981L73.082,231.629Z" style="fill:rgb(3,119,148);"/>
    </g>
    <g transform="matrix(-2.8581e-16,-0.861097,-0.942014,3.42972e-16,678.998,218.207)">
        <path d="M73.082,231.629L107.411,285.981L38.754,285.981L73.082,231.629Z" style="fill:rgb(3,119,148);"/>
    </g>
    <g transform="matrix(-0.745732,0.430549,0.471007,0.815808,406.201,-65.1544)">
        <path d="M73.082,231.629L107.411,285.981L38.754,285.981L73.082,231.629Z" style="fill:rgb(3,119,148);"/>
    </g>
    <g transform="matrix(1.71486e-16,0.861097,0.942014,-2.8581e-16,242.602,-25.8965)">
        <path d="M73.082,231.629L107.411,285.981L38.754,285.981L73.082,231.629Z" style="fill:rgb(3,119,148);"/>
    </g>
    <g transform="matrix(-0.745732,-0.430549,-0.471007,0.815808,624.399,-120.465)">
        <path d="M73.082,231.629L107.411,285.981L38.754,285.981L73.082,231.629Z" style="fill:rgb(3,119,148);"/>
    </g>
    <g transform="matrix(-2.8581e-16,-0.861097,-0.942014,3.42972e-16,678.998,99.9658)">
        <path d="M73.082,231.629L107.411,285.981L38.754,285.981L73.082,231.629Z" style="fill:rgb(3,119,148);"/>
    </g>
    <g transform="matrix(-0.745732,0.430549,0.471007,0.815808,406.201,-183.396)">
        <path d="M73.082,231.629L107.411,285.981L38.754,285.981L73.082,231.629Z" style="fill:rgb(3,119,148);"/>
    </g>
    <g transform="matrix(5.71621e-17,-0.861097,-0.942014,5.71621e-17,781.398,277.328)">
        <path d="M73.082,231.629L107.411,285.981L38.754,285.981L73.082,231.629Z" style="fill:rgb(3,119,148);"/>
    </g>
    <g transform="matrix(4.82919e-17,0.861097,0.942014,-1.72526e-16,242.602,151.466)">
        <path d="M73.082,231.629L107.411,285.981L38.754,285.981L73.082,231.629Z" style="fill:rgb(3,119,148);"/>
    </g>
    <g transform="matrix(5.71621e-17,-0.861097,-0.942014,5.71621e-17,781.398,159.086)">
        <path d="M73.082,231.629L107.411,285.981L38.754,285.981L73.082,231.629Z" style="fill:rgb(3,119,148);"/>
    </g>
    <g transform="matrix(4.82919e-17,0.861097,0.942014,-1.72526e-16,242.602,33.2242)">
        <path d="M73.082,231.629L107.411,285.981L38.754,285.981L73.082,231.629Z" style="fill:rgb(3,119,148);"/>
    </g>
    <g transform="matrix(0.745732,-0.430549,-0.471007,-0.815808,617.799,493.948)">
        <path d="M73.082,231.629L107.411,285.981L38.754,285.981L73.082,231.629Z" style="fill:rgb(3,119,148);"/>
    </g>
    <g transform="matrix(0.745732,0.430549,0.471007,-0.815808,399.601,431.017)">
        <path d="M73.082,231.629L107.411,285.981L38.754,285.981L73.082,231.629Z" style="fill:rgb(3,119,148);"/>
    </g>
    <g transform="matrix(1.71486e-16,0.861097,0.942014,-2.8581e-16,345.002,210.586)">
        <path d="M73.082,231.629L107.411,285.981L38.754,285.981L73.082,231.629Z" style="fill:rgb(3,119,148);"/>
    </g>
    <g transform="matrix(-0.745732,-0.430549,-0.471007,0.815808,726.799,630.018)">
        <path d="M73.082,231.629L107.411,285.981L38.754,285.981L73.082,231.629Z" style="fill:rgb(3,119,148);"/>
    </g>
    <g transform="matrix(-2.8581e-16,-0.861097,-0.942014,3.42972e-16,781.398,336.448)">
        <path d="M73.082,231.629L107.411,285.981L38.754,285.981L73.082,231.629Z" style="fill:rgb(3,119,148);"/>
    </g>
    <g transform="matrix(-0.745732,0.430549,0.471007,0.815808,508.601,567.087)">
        <path d="M73.082,231.629L107.411,285.981L38.754,285.981L73.082,231.629Z" style="fill:rgb(3,119,148);"/>
    </g>
    <g transform="matrix(0.745732,-0.430549,-0.471007,-0.815808,617.799,375.706)">
        <path d="M73.082,231.629L107.411,285.981L38.754,285.981L73.082,231.629Z" style="fill:rgb(3,119,148);"/>
    </g>
    <g transform="matrix(0.745732,0.430549,0.471007,-0.815808,399.601,312.775)">
        <path d="M73.082,231.629L107.411,285.981L38.754,285.981L73.082,231.629Z" style="fill:rgb(3,119,148);"/>
    </g>
    <g transform="matrix(1.71486e-16,0.861097,0.942014,-2.8581e-16,345.002,92.3449)">
        <path d="M73.082,231.629L107.411,285.981L38.754,285.981L73.082,231.629Z" style="fill:rgb(3,119,148);"/>
    </g>
    <g transform="matrix(-0.745732,-0.430549,-0.471007,0.815808,726.799,-2.22327)">
        <path d="M73.082,231.629L107.411,285.981L38.754,285.981L73.082,231.629Z" style="fill:rgb(3,119,148);"/>
    </g>
    <g transform="matrix(-2.8581e-16,-0.861097,-0.942014,3.42972e-16,781.398,218.207)">
        <path d="M73.082,231.629L107.411,285.981L38.754,285.981L73.082,231.629Z" style="fill:rgb(3,119,148);"/>
    </g>
    <g transform="matrix(-0.745732,0.430549,0.471007,0.815808,251.601,-65.1544)">
        <path d="M73.082,231.629L107.411,285.981L38.754,285.981L73.082,231.629Z" style="fill:rgb(3,119,148);"/>
    </g>
    <g transform="matrix(1.71486e-16,0.861097,0.942014,-2.8581e-16,345.002,-25.8965)">
        <path d="M73.082,231.629L107.411,285.981L38.754,285.981L73.082,231.629Z" style="fill:rgb(3,119,148);"/>
    </g>
    <g transform="matrix(-0.745732,-0.430549,-0.471007,0.815808,726.799,-120.465)">
        <path d="M73.082,231.629L107.411,285.981L38.754,285.981L73.082,231.629Z" style="fill:rgb(3,119,148);"/>
    </g>
    <g transform="matrix(-2.8581e-16,-0.861097,-0.942014,3.42972e-16,781.398,99.9658)">
        <path d="M73.082,231.629L107.411,285.981L38.754,285.981L73.082,231.629Z" style="fill:rgb(3,119,148);"/>
    </g>
    <g transform="matrix(-0.745732,0.430549,0.471007,0.815808,508.601,-183.396)">
        <path d="M73.082,231.629L107.411,285.981L38.754,285.981L73.082,231.629Z" style="fill:rgb(3,119,148);"/>
    </g>
    <g transform="matrix(5.71621e-17,-0.861097,-0.942014,5.71621e-17,883.798,277.328)">
        <path d="M73.082,231.629L107.411,285.981L38.754,285.981L73.082,231.629Z" style="fill:rgb(3,119,148);"/>
    </g>
    <g transform="matrix(4.82919e-17,0.861097,0.942014,-1.72526e-16,345.002,151.466)">
        <path d="M73.082,231.629L107.411,285.981L38.754,285.981L73.082,231.629Z" style="fill:rgb(3,119,148);"/>
    </g>
    <g transform="matrix(5.71621e-17,-0.861097,-0.942014,5.71621e-17,883.798,159.086)">
        <path d="M73.082,231.629L107.411,285.981L38.754,285.981L73.082,231.629Z" style="fill:rgb(3,119,148);"/>
    </g>
    <g transform="matrix(4.82919e-17,0.861097,0.942014,-1.72526e-16,345.002,33.2242)">
        <path d="M73.082,231.629L107.411,285.981L38.754,285.981L73.082,231.629Z" style="fill:rgb(3,119,148);"/>
    </g>
    <g transform="matrix(0.745732,-0.430549,-0.471007,-0.815808,720.199,493.948)">
        <path d="M73.082,231.629L107.411,285.981L38.754,285.981L73.082,231.629Z" style="fill:rgb(3,119,148);"/>
    </g>
    <g transform="matrix(0.745732,0.430549,0.471007,-0.815808,502.001,431.017)">
        <path d="M73.082,231.629L107.411,285.981L38.754,285.981L73.082,231.629Z" style="fill:rgb(3,119,148);"/>
    </g>
    <g transform="matrix(1.71486e-16,0.861097,0.942014,-2.8581e-16,447.402,210.586)">
        <path d="M73.082,231.629L107.411,285.981L38.754,285.981L73.082,231.629Z" style="fill:rgb(3,119,148);"/>
    </g>
    <g transform="matrix(-0.745732,-0.430549,-0.471007,0.815808,829.199,630.018)">
        <path d="M73.082,231.629L107.411,285.981L38.754,285.981L73.082,231.629Z" style="fill:rgb(3,119,148);"/>
    </g>
    <g transform="matrix(-2.8581e-16,-0.861097,-0.942014,3.42972e-16,883.798,336.448)">
        <path d="M73.082,231.629L107.411,285.981L38.754,285.981L73.082,231.629Z" style="fill:rgb(3,119,148);"/>
    </g>
    <g transform="matrix(-0.745732,0.430549,0.471007,0.815808,611.001,567.087)">
        <path d="M73.082,231.629L107.411,285.981L38.754,285.981L73.082,231.629Z" style="fill:rgb(3,119,148);"/>
    </g>
    <g transform="matrix(0.745732,-0.430549,-0.471007,-0.815808,720.199,375.706)">
        <path d="M73.082,231.629L107.411,285.981L38.754,285.981L73.082,231.629Z" style="fill:rgb(3,119,148);"/>
    </g>
    <g transform="matrix(0.745732,0.430549,0.471007,-0.815808,502.001,312.775)">
        <path d="M73.082,231.629L107.411,285.981L38.754,285.981L73.082,231.629Z" style="fill:rgb(3,119,148);"/>
    </g>
    <g transform="matrix(1.71486e-16,0.861097,0.942014,-2.8581e-16,447.402,92.3449)">
        <path d="M73.082,231.629L107.411,285.981L38.754,285.981L73.082,231.629Z" style="fill:rgb(3,119,148);"/>
    </g>
    <g transform="matrix(-0.745732,-0.430549,-0.471007,0.815808,829.199,-2.22327)">
        <path d="M73.082,231.629L107.411,285.981L38.754,285.981L73.082,231.629Z" style="fill:rgb(3,119,148);"/>
    </g>
    <g transform="matrix(-2.8581e-16,-0.861097,-0.942014,3.42972e-16,883.798,218.207)">
        <path d="M73.082,231.629L107.411,285.981L38.754,285.981L73.082,231.629Z" style="fill:rgb(3,119,148);"/>
    </g>
    <g transform="matrix(-0.745732,0.430549,0.471007,0.815808,611.001,-65.1544)">
        <path d="M73.082,231.629L107.411,285.981L38.754,285.981L73.082,231.629Z" style="fill:rgb(3,119,148);"/>
    </g>
    <g transform="matrix(1.71486e-16,0.861097,0.942014,-2.8581e-16,447.402,-25.8965)">
        <path d="M73.082,231.629L107.411,285.981L38.754,285.981L73.082,231.629Z" style="fill:rgb(3,119,148);"/>
    </g>
    <g transform="matrix(-0.745732,-0.430549,-0.471007,0.815808,829.199,-120.465)">
        <path d="M73.082,231.629L107.411,285.981L38.754,285.981L73.082,231.629Z" style="fill:rgb(3,119,148);"/>
    </g>
    <g transform="matrix(-2.8581e-16,-0.861097,-0.942014,3.42972e-16,883.798,99.9658)">
        <path d="M73.082,231.629L107.411,285.981L38.754,285.981L73.082,231.629Z" style="fill:rgb(3,119,148);"/>
    </g>
    <g transform="matrix(-0.745732,0.430549,0.471007,0.815808,611.001,-183.396)">
        <path d="M73.082,231.629L107.411,285.981L38.754,285.981L73.082,231.629Z" style="fill:rgb(3,119,148);"/>
    </g>
    <g transform="matrix(5.71621e-17,-0.861097,-0.942014,5.71621e-17,986.198,277.328)">
        <path d="M73.082,231.629L107.411,285.981L38.754,285.981L73.082,231.629Z" style="fill:rgb(3,119,148);"/>
    </g>
    <g transform="matrix(4.82919e-17,0.861097,0.942014,-1.72526e-16,447.402,151.466)">
        <path d="M73.082,231.629L107.411,285.981L38.754,285.981L73.082,231.629Z" style="fill:rgb(3,119,148);"/>
    </g>
    <g transform="matrix(5.71621e-17,-0.861097,-0.942014,5.71621e-17,986.198,159.086)">
        <path d="M73.082,231.629L107.411,285.981L38.754,285.981L73.082,231.629Z" style="fill:rgb(3,119,148);"/>
    </g>
    <g transform="matrix(4.82919e-17,0.861097,0.942014,-1.72526e-16,447.402,33.2242)">
        <path d="M73.082,231.629L107.411,285.981L38.754,285.981L73.082,231.629Z" style="fill:rgb(3,119,148);"/>
    </g>
    <g transform="matrix(0.745732,-0.430549,-0.471007,-0.815808,822.599,493.948)">
        <path d="M73.082,231.629L107.411,285.981L38.754,285.981L73.082,231.629Z" style="fill:rgb(3,119,148);"/>
    </g>
    <g transform="matrix(0.745732,0.430549,0.471007,-0.815808,604.401,431.017)">
        <path d="M73.082,231.629L107.411,285.981L38.754,285.981L73.082,231.629Z" style="fill:rgb(3,119,148);"/>
    </g>
    <g transform="matrix(1.71486e-16,0.861097,0.942014,-2.8581e-16,549.802,210.586)">
        <path d="M73.082,231.629L107.411,285.981L38.754,285.981L73.082,231.629Z" style="fill:rgb(3,119,148);"/>
    </g>
    <g transform="matrix(-0.745732,-0.430549,-0.471007,0.815808,931.599,630.018)">
        <path d="M73.082,231.629L107.411,285.981L38.754,285.981L73.082,231.629Z" style="fill:rgb(3,119,148);"/>
    </g>
    <g transform="matrix(-2.8581e-16,-0.861097,-0.942014,3.42972e-16,986.198,336.448)">
        <path d="M73.082,231.629L107.411,285.981L38.754,285.981L73.082,231.629Z" style="fill:rgb(3,119,148);"/>
    </g>
    <g transform="matrix(-0.745732,0.430549,0.471007,0.815808,713.401,567.087)">
        <path d="M73.082,231.629L107.411,285.981L38.754,285.981L73.082,231.629Z" style="fill:rgb(3,119,148);"/>
    </g>
    <g transform="matrix(0.745732,-0.430549,-0.471007,-0.815808,822.599,375.706)">
        <path d="M73.082,231.629L107.411,285.981L38.754,285.981L73.082,231.629Z" style="fill:rgb(3,119,148);"/>
    </g>
    <g transform="matrix(-2.8581e-16,-0.861097,-0.942014,3.42972e-16,986.198,218.207)">
        <path d="M73.082,231.629L107.411,285.981L38.754,285.981L73.082,231.629Z" style="fill:rgb(3,119,148);"/>
    </g>
    <g transform="matrix(-2.8581e-16,-0.861097,-0.942014,3.42972e-16,986.198,99.9658)">
        <path d="M73.082,231.629L107.411,285.981L38.754,285.981L73.082,231.629Z" style="fill:rgb(3,119,148);"/>
    </g>
    <g transform="matrix(5.71621e-17,-0.861097,-0.942014,5.71621e-17,1088.6,277.328)">
        <path d="M73.082,231.629L107.411,285.981L38.754,285.981L73.082,231.629Z" style="fill:rgb(3,119,148);"/>
    </g>
    <g transform="matrix(0.745732,0.430549,0.471007,-0.815808,706.801,431.017)">
        <path d="M73.082,231.629L107.411,285.981L38.754,285.981L73.082,231.629Z" style="fill:rgb(3,119,148);"/>
    </g>
    <g transform="matrix(-0.745732,-0.430549,-0.471007,0.815808,1034,630.018)">
        <path d="M73.082,231.629L107.411,285.981L38.754,285.981L73.082,231.629Z" style="fill:rgb(3,119,148);"/>
    </g>
    <g transform="matrix(0.745732,-0.430549,-0.471007,-0.815808,310.599,1126.19)">
        <path d="M73.082,231.629L107.411,285.981L38.754,285.981L73.082,231.629Z" style="fill:rgb(3,119,148);"/>
    </g>
    <g transform="matrix(0.745732,0.430549,0.471007,-0.815808,92.4011,1063.26)">
        <path d="M73.082,231.629L107.411,285.981L38.754,285.981L73.082,231.629Z" style="fill:rgb(3,119,148);"/>
    </g>
    <g transform="matrix(1.71486e-16,0.861097,0.942014,-2.8581e-16,37.8022,842.828)">
        <path d="M73.082,231.629L107.411,285.981L38.754,285.981L73.082,231.629Z" style="fill:rgb(3,119,148);"/>
    </g>
    <g transform="matrix(-0.745732,-0.430549,-0.471007,0.815808,419.599,748.259)">
        <path d="M73.082,231.629L107.411,285.981L38.754,285.981L73.082,231.629Z" style="fill:rgb(3,119,148);"/>
    </g>
    <g transform="matrix(-0.745732,0.430549,0.471007,0.815808,201.401,685.328)">
        <path d="M73.082,231.629L107.411,285.981L38.754,285.981L73.082,231.629Z" style="fill:rgb(3,119,148);"/>
    </g>
    <g transform="matrix(5.71621e-17,-0.861097,-0.942014,5.71621e-17,576.598,909.569)">
        <path d="M73.082,231.629L107.411,285.981L38.754,285.981L73.082,231.629Z" style="fill:rgb(3,119,148);"/>
    </g>
    <g transform="matrix(4.82919e-17,0.861097,0.942014,-1.72526e-16,37.8022,783.707)">
        <path d="M73.082,231.629L107.411,285.981L38.754,285.981L73.082,231.629Z" style="fill:rgb(3,119,148);"/>
    </g>
    <g transform="matrix(0.745732,-0.430549,-0.471007,-0.815808,412.999,1126.19)">
        <path d="M73.082,231.629L107.411,285.981L38.754,285.981L73.082,231.629Z" style="fill:rgb(3,119,148);"/>
    </g>
    <g transform="matrix(0.745732,0.430549,0.471007,-0.815808,194.801,1063.26)">
        <path d="M73.082,231.629L107.411,285.981L38.754,285.981L73.082,231.629Z" style="fill:rgb(3,119,148);"/>
    </g>
    <g transform="matrix(1.71486e-16,0.861097,0.942014,-2.8581e-16,140.202,842.828)">
        <path d="M73.082,231.629L107.411,285.981L38.754,285.981L73.082,231.629Z" style="fill:rgb(3,119,148);"/>
    </g>
    <g transform="matrix(-0.745732,-0.430549,-0.471007,0.815808,521.999,748.259)">
        <path d="M73.082,231.629L107.411,285.981L38.754,285.981L73.082,231.629Z" style="fill:rgb(3,119,148);"/>
    </g>
    <g transform="matrix(-2.8581e-16,-0.861097,-0.942014,3.42972e-16,576.598,968.69)">
        <path d="M73.082,231.629L107.411,285.981L38.754,285.981L73.082,231.629Z" style="fill:rgb(3,119,148);"/>
    </g>
    <g transform="matrix(-0.745732,0.430549,0.471007,0.815808,303.801,685.328)">
        <path d="M73.082,231.629L107.411,285.981L38.754,285.981L73.082,231.629Z" style="fill:rgb(3,119,148);"/>
    </g>
    <g transform="matrix(5.71621e-17,-0.861097,-0.942014,5.71621e-17,678.998,909.569)">
        <path d="M73.082,231.629L107.411,285.981L38.754,285.981L73.082,231.629Z" style="fill:rgb(3,119,148);"/>
    </g>
    <g transform="matrix(4.82919e-17,0.861097,0.942014,-1.72526e-16,140.202,783.707)">
        <path d="M73.082,231.629L107.411,285.981L38.754,285.981L73.082,231.629Z" style="fill:rgb(3,119,148);"/>
    </g>
    <g transform="matrix(0.745732,-0.430549,-0.471007,-0.815808,515.399,1126.19)">
        <path d="M73.082,231.629L107.411,285.981L38.754,285.981L73.082,231.629Z" style="fill:rgb(3,119,148);"/>
    </g>
    <g transform="matrix(0.745732,0.430549,0.471007,-0.815808,297.201,1063.26)">
        <path d="M73.082,231.629L107.411,285.981L38.754,285.981L73.082,231.629Z" style="fill:rgb(3,119,148);"/>
    </g>
    <g transform="matrix(1.71486e-16,0.861097,0.942014,-2.8581e-16,242.602,842.828)">
        <path d="M73.082,231.629L107.411,285.981L38.754,285.981L73.082,231.629Z" style="fill:rgb(3,119,148);"/>
    </g>
    <g transform="matrix(-0.745732,-0.430549,-0.471007,0.815808,624.399,748.259)">
        <path d="M73.082,231.629L107.411,285.981L38.754,285.981L73.082,231.629Z" style="fill:rgb(3,119,148);"/>
    </g>
    <g transform="matrix(-2.8581e-16,-0.861097,-0.942014,3.42972e-16,678.998,968.69)">
        <path d="M73.082,231.629L107.411,285.981L38.754,285.981L73.082,231.629Z" style="fill:rgb(3,119,148);"/>
    </g>
    <g transform="matrix(-0.745732,0.430549,0.471007,0.815808,406.201,685.328)">
        <path d="M73.082,231.629L107.411,285.981L38.754,285.981L73.082,231.629Z" style="fill:rgb(3,119,148);"/>
    </g>
    <g transform="matrix(5.71621e-17,-0.861097,-0.942014,5.71621e-17,781.398,909.569)">
        <path d="M73.082,231.629L107.411,285.981L38.754,285.981L73.082,231.629Z" style="fill:rgb(3,119,148);"/>
    </g>
    <g transform="matrix(4.82919e-17,0.861097,0.942014,-1.72526e-16,242.602,783.707)">
        <path d="M73.082,231.629L107.411,285.981L38.754,285.981L73.082,231.629Z" style="fill:rgb(3,119,148);"/>
    </g>
    <g transform="matrix(0.745732,-0.430549,-0.471007,-0.815808,617.799,1126.19)">
        <path d="M73.082,231.629L107.411,285.981L38.754,285.981L73.082,231.629Z" style="fill:rgb(3,119,148);"/>
    </g>
    <g transform="matrix(0.745732,0.430549,0.471007,-0.815808,399.601,1063.26)">
        <path d="M73.082,231.629L107.411,285.981L38.754,285.981L73.082,231.629Z" style="fill:rgb(3,119,148);"/>
    </g>
    <g transform="matrix(1.71486e-16,0.861097,0.942014,-2.8581e-16,345.002,842.828)">
        <path d="M73.082,231.629L107.411,285.981L38.754,285.981L73.082,231.629Z" style="fill:rgb(3,119,148);"/>
    </g>
    <g transform="matrix(-0.745732,-0.430549,-0.471007,0.815808,726.799,748.259)">
        <path d="M73.082,231.629L107.411,285.981L38.754,285.981L73.082,231.629Z" style="fill:rgb(3,119,148);"/>
    </g>
    <g transform="matrix(-2.8581e-16,-0.861097,-0.942014,3.42972e-16,781.398,968.69)">
        <path d="M73.082,231.629L107.411,285.981L38.754,285.981L73.082,231.629Z" style="fill:rgb(3,119,148);"/>
    </g>
    <g transform="matrix(-0.745732,0.430549,0.471007,0.815808,508.601,685.328)">
        <path d="M73.082,231.629L107.411,285.981L38.754,285.981L73.082,231.629Z" style="fill:rgb(3,119,148);"/>
    </g>
    <g transform="matrix(5.71621e-17,-0.861097,-0.942014,5.71621e-17,883.798,909.569)">
        <path d="M73.082,231.629L107.411,285.981L38.754,285.981L73.082,231.629Z" style="fill:rgb(3,119,148);"/>
    </g>
    <g transform="matrix(4.82919e-17,0.861097,0.942014,-1.72526e-16,345.002,783.707)">
        <path d="M73.082,231.629L107.411,285.981L38.754,285.981L73.082,231.629Z" style="fill:rgb(3,119,148);"/>
    </g>
    <g transform="matrix(0.745732,-0.430549,-0.471007,-0.815808,720.199,1126.19)">
        <path d="M73.082,231.629L107.411,285.981L38.754,285.981L73.082,231.629Z" style="fill:rgb(3,119,148);"/>
    </g>
    <g transform="matrix(0.745732,0.430549,0.471007,-0.815808,502.001,1063.26)">
        <path d="M73.082,231.629L107.411,285.981L38.754,285.981L73.082,231.629Z" style="fill:rgb(3,119,148);"/>
    </g>
    <g transform="matrix(1.71486e-16,0.861097,0.942014,-2.8581e-16,447.402,842.828)">
        <path d="M73.082,231.629L107.411,285.981L38.754,285.981L73.082,231.629Z" style="fill:rgb(3,119,148);"/>
    </g>
    <g transform="matrix(-0.745732,-0.430549,-0.471007,0.815808,829.199,748.259)">
        <path d="M73.082,231.629L107.411,285.981L38.754,285.981L73.082,231.629Z" style="fill:rgb(3,119,148);"/>
    </g>
    <g transform="matrix(-2.8581e-16,-0.861097,-0.942014,3.42972e-16,883.798,968.69)">
        <path d="M73.082,231.629L107.411,285.981L38.754,285.981L73.082,231.629Z" style="fill:rgb(3,119,148);"/>
    </g>
    <g transform="matrix(-0.745732,0.430549,0.471007,0.815808,611.001,685.328)">
        <path d="M73.082,231.629L107.411,285.981L38.754,285.981L73.082,231.629Z" style="fill:rgb(3,119,148);"/>
    </g>
    <g transform="matrix(5.71621e-17,-0.861097,-0.942014,5.71621e-17,986.198,909.569)">
        <path d="M73.082,231.629L107.411,285.981L38.754,285.981L73.082,231.629Z" style="fill:rgb(3,119,148);"/>
    </g>
    <g transform="matrix(4.82919e-17,0.861097,0.942014,-1.72526e-16,447.402,783.707)">
        <path d="M73.082,231.629L107.411,285.981L38.754,285.981L73.082,231.629Z" style="fill:rgb(3,119,148);"/>
    </g>
    <g transform="matrix(0.745732,-0.430549,-0.471007,-0.815808,822.599,1126.19)">
        <path d="M73.082,231.629L107.411,285.981L38.754,285.981L73.082,231.629Z" style="fill:rgb(3,119,148);"/>
    </g>
    <g transform="matrix(0.745732,0.430549,0.471007,-0.815808,604.401,1063.26)">
        <path d="M73.082,231.629L107.411,285.981L38.754,285.981L73.082,231.629Z" style="fill:rgb(3,119,148);"/>
    </g>
    <g transform="matrix(1.71486e-16,0.861097,0.942014,-2.8581e-16,549.802,842.828)">
        <path d="M73.082,231.629L107.411,285.981L38.754,285.981L73.082,231.629Z" style="fill:rgb(3,119,148);"/>
    </g>
    <g transform="matrix(-0.745732,-0.430549,-0.471007,0.815808,931.599,748.259)">
        <path d="M73.082,231.629L107.411,285.981L38.754,285.981L73.082,231.629Z" style="fill:rgb(3,119,148);"/>
    </g>
    <g transform="matrix(-2.8581e-16,-0.861097,-0.942014,3.42972e-16,986.198,968.69)">
        <path d="M73.082,231.629L107.411,285.981L38.754,285.981L73.082,231.629Z" style="fill:rgb(3,119,148);"/>
    </g>
    <g transform="matrix(-0.745732,0.430549,0.471007,0.815808,713.401,685.328)">
        <path d="M73.082,231.629L107.411,285.981L38.754,285.981L73.082,231.629Z" style="fill:rgb(0,70,87);"/>
    </g>
    <g transform="matrix(5.71621e-17,-0.861097,-0.942014,5.71621e-17,1088.6,909.569)">
        <path d="M73.082,231.629L107.411,285.981L38.754,285.981L73.082,231.629Z" style="fill:rgb(3,119,148);"/>
    </g>
    <g transform="matrix(4.82919e-17,0.861097,0.942014,-1.72526e-16,549.802,783.707)">
        <path d="M73.082,231.629L107.411,285.981L38.754,285.981L73.082,231.629Z" style="fill:rgb(3,119,148);"/>
    </g>
    <g transform="matrix(0.745732,-0.430549,-0.471007,-0.815808,924.999,1126.19)">
        <path d="M73.082,231.629L107.411,285.981L38.754,285.981L73.082,231.629Z" style="fill:rgb(3,119,148);"/>
    </g>
    <g transform="matrix(0.745732,0.430549,0.471007,-0.815808,706.801,1063.26)">
        <path d="M73.082,231.629L107.411,285.981L38.754,285.981L73.082,231.629Z" style="fill:rgb(0,70,87);"/>
    </g>
    <g transform="matrix(1.71486e-16,0.861097,0.942014,-2.8581e-16,652.202,842.828)">
        <path d="M73.082,231.629L107.411,285.981L38.754,285.981L73.082,231.629Z" style="fill:rgb(3,119,148);"/>
    </g>
    <g transform="matrix(-0.745732,-0.430549,-0.471007,0.815808,1034,748.259)">
        <path d="M73.082,231.629L107.411,285.981L38.754,285.981L73.082,231.629Z" style="fill:rgb(239,52,56);"/>
    </g>
    <g transform="matrix(-2.8581e-16,-0.861097,-0.942014,3.42972e-16,1088.6,968.69)">
        <path d="M73.082,231.629L107.411,285.981L38.754,285.981L73.082,231.629Z" style="fill:rgb(0,70,87);"/>
    </g>
    <g transform="matrix(-0.745732,0.430549,0.471007,0.815808,815.801,685.328)">
        <path d="M73.082,231.629L107.411,285.981L38.754,285.981L73.082,231.629Z" style="fill:rgb(165,188,58);"/>
    </g>
    <g transform="matrix(-0.745732,-0.430549,-0.471007,0.815808,1136.4,748.259)">
        <path d="M73.082,231.629L107.411,285.981L38.754,285.981L73.082,231.629Z" style="fill:rgb(239,52,56);"/>
    </g>
    <g transform="matrix(-2.8581e-16,-0.861097,-0.942014,3.42972e-16,1191,968.69)">
        <path d="M73.082,231.629L107.411,285.981L38.754,285.981L73.082,231.629Z" style="fill:rgb(3,119,148);"/>
    </g>
    <g transform="matrix(-0.745732,0.430549,0.471007,0.815808,918.201,685.328)">
        <path d="M73.082,231.629L107.411,285.981L38.754,285.981L73.082,231.629Z" style="fill:rgb(3,119,148);"/>
    </g>
    <g transform="matrix(0.745732,0.430549,0.471007,-0.815808,143.601,1211.06)">
        <path d="M55.918,258.805L107.411,285.981L38.754,285.981L55.918,258.805Z" style="fill:rgb(3,119,148);"/>
    </g>
    <g transform="matrix(0.745732,0.430549,0.471007,-0.815808,246.001,1211.06)">
        <path d="M55.918,258.805L107.411,285.981L38.754,285.981L55.918,258.805Z" style="fill:rgb(3,119,148);"/>
    </g>
    <g transform="matrix(-0.745732,0.430549,-0.471007,-0.815808,573.199,1211.06)">
        <path d="M55.918,258.805L107.411,285.981L38.754,285.981L55.918,258.805Z" style="fill:rgb(3,119,148);"/>
    </g>
    <g transform="matrix(0.745732,0.430549,0.471007,-0.815808,348.401,1211.06)">
        <path d="M55.918,258.805L107.411,285.981L38.754,285.981L55.918,258.805Z" style="fill:rgb(3,119,148);"/>
    </g>
    <g transform="matrix(-0.745732,0.430549,-0.471007,-0.815808,675.599,1211.06)">
        <path d="M55.918,258.805L107.411,285.981L38.754,285.981L55.918,258.805Z" style="fill:rgb(3,119,148);"/>
    </g>
    <g transform="matrix(0.745732,0.430549,0.471007,-0.815808,450.801,1211.06)">
        <path d="M55.918,258.805L107.411,285.981L38.754,285.981L55.918,258.805Z" style="fill:rgb(3,119,148);"/>
    </g>
    <g transform="matrix(-0.745732,0.430549,-0.471007,-0.815808,777.999,1211.06)">
        <path d="M55.918,258.805L107.411,285.981L38.754,285.981L55.918,258.805Z" style="fill:rgb(3,119,148);"/>
    </g>
    <g transform="matrix(0.745732,0.430549,0.471007,-0.815808,553.201,1211.06)">
        <path d="M55.918,258.805L107.411,285.981L38.754,285.981L55.918,258.805Z" style="fill:rgb(3,119,148);"/>
    </g>
    <g transform="matrix(-0.745732,0.430549,-0.471007,-0.815808,880.399,1211.06)">
        <path d="M55.918,258.805L107.411,285.981L38.754,285.981L55.918,258.805Z" style="fill:rgb(3,119,148);"/>
    </g>
    <g transform="matrix(0.745732,0.430549,0.471007,-0.815808,655.601,1211.06)">
        <path d="M55.918,258.805L107.411,285.981L38.754,285.981L55.918,258.805Z" style="fill:rgb(3,119,148);"/>
    </g>
    <g transform="matrix(-0.745732,0.430549,-0.471007,-0.815808,982.799,1211.06)">
        <path d="M55.918,258.805L107.411,285.981L38.754,285.981L55.918,258.805Z" style="fill:rgb(3,119,148);"/>
    </g>
    <g transform="matrix(0.745732,0.430549,0.471007,-0.815808,758.001,1211.06)">
        <path d="M55.918,258.805L107.411,285.981L38.754,285.981L55.918,258.805Z" style="fill:rgb(165,188,58);"/>
    </g>
    <g transform="matrix(-0.745732,0.430549,-0.471007,-0.815808,1085.2,1211.06)">
        <path d="M55.918,258.805L107.411,285.981L38.754,285.981L55.918,258.805Z" style="fill:rgb(3,119,148);"/>
    </g>
    <g transform="matrix(-0.745732,0.430549,-0.471007,-0.815808,1187.6,1211.06)">
        <path d="M55.918,258.805L107.411,285.981L38.754,285.981L55.918,258.805Z" style="fill:rgb(3,119,148);"/>
    </g>
    <g transform="matrix(5.71621e-17,-0.861097,-0.942014,5.71621e-17,576.598,1027.81)">
        <path d="M73.082,231.629L107.411,285.981L38.754,285.981L73.082,231.629Z" style="fill:rgb(3,119,148);"/>
    </g>
    <g transform="matrix(0.745732,-0.430549,-0.471007,-0.815808,412.999,1244.43)">
        <path d="M73.082,231.629L107.411,285.981L38.754,285.981L73.082,231.629Z" style="fill:rgb(3,119,148);"/>
    </g>
    <g transform="matrix(0.745732,0.430549,0.471007,-0.815808,194.801,1181.5)">
        <path d="M73.082,231.629L107.411,285.981L38.754,285.981L73.082,231.629Z" style="fill:rgb(3,119,148);"/>
    </g>
    <g transform="matrix(5.71621e-17,-0.861097,-0.942014,5.71621e-17,678.998,1027.81)">
        <path d="M73.082,231.629L107.411,285.981L38.754,285.981L73.082,231.629Z" style="fill:rgb(3,119,148);"/>
    </g>
    <g transform="matrix(4.82919e-17,0.861097,0.942014,-1.72526e-16,140.202,901.948)">
        <path d="M73.082,231.629L107.411,285.981L38.754,285.981L73.082,231.629Z" style="fill:rgb(3,119,148);"/>
    </g>
    <g transform="matrix(0.745732,-0.430549,-0.471007,-0.815808,515.399,1244.43)">
        <path d="M73.082,231.629L107.411,285.981L38.754,285.981L73.082,231.629Z" style="fill:rgb(3,119,148);"/>
    </g>
    <g transform="matrix(0.745732,0.430549,0.471007,-0.815808,297.201,1181.5)">
        <path d="M73.082,231.629L107.411,285.981L38.754,285.981L73.082,231.629Z" style="fill:rgb(3,119,148);"/>
    </g>
    <g transform="matrix(5.71621e-17,-0.861097,-0.942014,5.71621e-17,781.398,1027.81)">
        <path d="M73.082,231.629L107.411,285.981L38.754,285.981L73.082,231.629Z" style="fill:rgb(3,119,148);"/>
    </g>
    <g transform="matrix(4.82919e-17,0.861097,0.942014,-1.72526e-16,242.602,901.948)">
        <path d="M73.082,231.629L107.411,285.981L38.754,285.981L73.082,231.629Z" style="fill:rgb(3,119,148);"/>
    </g>
    <g transform="matrix(0.745732,-0.430549,-0.471007,-0.815808,617.799,1244.43)">
        <path d="M73.082,231.629L107.411,285.981L38.754,285.981L73.082,231.629Z" style="fill:rgb(3,119,148);"/>
    </g>
    <g transform="matrix(0.745732,0.430549,0.471007,-0.815808,399.601,1181.5)">
        <path d="M73.082,231.629L107.411,285.981L38.754,285.981L73.082,231.629Z" style="fill:rgb(3,119,148);"/>
    </g>
    <g transform="matrix(5.71621e-17,-0.861097,-0.942014,5.71621e-17,883.798,1027.81)">
        <path d="M73.082,231.629L107.411,285.981L38.754,285.981L73.082,231.629Z" style="fill:rgb(3,119,148);"/>
    </g>
    <g transform="matrix(4.82919e-17,0.861097,0.942014,-1.72526e-16,345.002,901.948)">
        <path d="M73.082,231.629L107.411,285.981L38.754,285.981L73.082,231.629Z" style="fill:rgb(3,119,148);"/>
    </g>
    <g transform="matrix(0.745732,-0.430549,-0.471007,-0.815808,720.199,1244.43)">
        <path d="M73.082,231.629L107.411,285.981L38.754,285.981L73.082,231.629Z" style="fill:rgb(3,119,148);"/>
    </g>
    <g transform="matrix(0.745732,0.430549,0.471007,-0.815808,502.001,1181.5)">
        <path d="M73.082,231.629L107.411,285.981L38.754,285.981L73.082,231.629Z" style="fill:rgb(3,119,148);"/>
    </g>
    <g transform="matrix(5.71621e-17,-0.861097,-0.942014,5.71621e-17,986.198,1027.81)">
        <path d="M73.082,231.629L107.411,285.981L38.754,285.981L73.082,231.629Z" style="fill:rgb(3,119,148);"/>
    </g>
    <g transform="matrix(4.82919e-17,0.861097,0.942014,-1.72526e-16,447.402,901.948)">
        <path d="M73.082,231.629L107.411,285.981L38.754,285.981L73.082,231.629Z" style="fill:rgb(3,119,148);"/>
    </g>
    <g transform="matrix(0.745732,-0.430549,-0.471007,-0.815808,822.599,1244.43)">
        <path d="M73.082,231.629L107.411,285.981L38.754,285.981L73.082,231.629Z" style="fill:rgb(3,119,148);"/>
    </g>
    <g transform="matrix(0.745732,0.430549,0.471007,-0.815808,604.401,1181.5)">
        <path d="M73.082,231.629L107.411,285.981L38.754,285.981L73.082,231.629Z" style="fill:rgb(3,119,148);"/>
    </g>
    <g transform="matrix(5.71621e-17,-0.861097,-0.942014,5.71621e-17,1088.6,1027.81)">
        <path d="M73.082,231.629L107.411,285.981L38.754,285.981L73.082,231.629Z" style="fill:rgb(3,119,148);"/>
    </g>
    <g transform="matrix(4.82919e-17,0.861097,0.942014,-1.72526e-16,549.802,901.948)">
        <path d="M73.082,231.629L107.411,285.981L38.754,285.981L73.082,231.629Z" style="fill:rgb(99,202,213);"/>
    </g>
    <g transform="matrix(0.745732,-0.430549,-0.471007,-0.815808,924.999,1244.43)">
        <path d="M73.082,231.629L107.411,285.981L38.754,285.981L73.082,231.629Z" style="fill:rgb(0,70,87);"/>
    </g>
    <g transform="matrix(0.745732,0.430549,0.471007,-0.815808,706.801,1181.5)">
        <path d="M73.082,231.629L107.411,285.981L38.754,285.981L73.082,231.629Z" style="fill:rgb(3,119,148);"/>
    </g>
    <g transform="matrix(5.71621e-17,-0.861097,-0.942014,5.71621e-17,1191,1027.81)">
        <path d="M73.082,231.629L107.411,285.981L38.754,285.981L73.082,231.629Z" style="fill:rgb(0,70,87);"/>
    </g>
    <g transform="matrix(4.82919e-17,0.861097,0.942014,-1.72526e-16,652.202,901.948)">
        <path d="M73.082,231.629L107.411,285.981L38.754,285.981L73.082,231.629Z" style="fill:rgb(99,202,213);"/>
    </g>
    <g transform="matrix(0.745732,-0.430549,-0.471007,-0.815808,1027.4,1244.43)">
        <path d="M73.082,231.629L107.411,285.981L38.754,285.981L73.082,231.629Z" style="fill:rgb(0,70,87);"/>
    </g>
    <g transform="matrix(0.745732,0.430549,0.471007,-0.815808,809.201,1181.5)">
        <path d="M73.082,231.629L107.411,285.981L38.754,285.981L73.082,231.629Z" style="fill:rgb(239,52,56);"/>
    </g>
    <g transform="matrix(4.82919e-17,0.861097,0.942014,-1.72526e-16,754.602,901.948)">
        <path d="M73.082,231.629L107.411,285.981L38.754,285.981L73.082,231.629Z" style="fill:rgb(165,188,58);"/>
    </g>
    <g transform="matrix(5.71621e-17,-0.861097,-0.942014,5.71621e-17,371.798,277.328)">
        <path d="M73.082,231.629L107.411,285.981L38.754,285.981L73.082,231.629Z" style="fill:rgb(3,119,148);"/>
    </g>
    <g transform="matrix(4.82919e-17,0.861097,0.942014,-1.72526e-16,-166.998,151.466)">
        <path d="M73.082,231.629L107.411,285.981L38.754,285.981L73.082,231.629Z" style="fill:rgb(3,119,148);"/>
    </g>
    <g transform="matrix(1.71486e-16,0.861097,0.942014,-2.8581e-16,-166.998,210.586)">
        <path d="M73.082,231.629L107.411,285.981L38.754,285.981L73.082,231.629Z" style="fill:rgb(3,119,148);"/>
    </g>
    <g transform="matrix(-0.745732,-0.430549,-0.471007,0.815808,214.799,630.018)">
        <path d="M73.082,231.629L107.411,285.981L38.754,285.981L73.082,231.629Z" style="fill:rgb(3,119,148);"/>
    </g>
    <g transform="matrix(-2.8581e-16,-0.861097,-0.942014,3.42972e-16,269.398,336.448)">
        <path d="M73.082,231.629L107.411,285.981L38.754,285.981L73.082,231.629Z" style="fill:rgb(3,119,148);"/>
    </g>
    <g transform="matrix(-0.745732,0.430549,0.471007,0.815808,-3.39893,567.087)">
        <path d="M73.082,231.629L107.411,285.981L38.754,285.981L73.082,231.629Z" style="fill:rgb(3,119,148);"/>
    </g>
    <g transform="matrix(-0.745732,-0.430549,-0.471007,0.815808,214.799,-2.22327)">
        <path d="M73.082,231.629L107.411,285.981L38.754,285.981L73.082,231.629Z" style="fill:rgb(3,119,148);"/>
    </g>
    <g transform="matrix(-0.745732,0.430549,0.471007,0.815808,-3.39893,-65.1544)">
        <path d="M73.082,231.629L107.411,285.981L38.754,285.981L73.082,231.629Z" style="fill:rgb(3,119,148);"/>
    </g>
    <g transform="matrix(0.745732,-0.430549,-0.471007,-0.815808,208.199,493.948)">
        <path d="M73.082,231.629L107.411,285.981L38.754,285.981L73.082,231.629Z" style="fill:rgb(3,119,148);"/>
    </g>
    <g transform="matrix(1.71486e-16,0.861097,0.942014,-2.8581e-16,-64.5978,210.586)">
        <path d="M73.082,231.629L107.411,285.981L38.754,285.981L73.082,231.629Z" style="fill:rgb(3,119,148);"/>
    </g>
    <g transform="matrix(-0.745732,-0.430549,-0.471007,0.815808,317.199,630.018)">
        <path d="M73.082,231.629L107.411,285.981L38.754,285.981L73.082,231.629Z" style="fill:rgb(3,119,148);"/>
    </g>
    <g transform="matrix(-2.8581e-16,-0.861097,-0.942014,3.42972e-16,371.798,336.448)">
        <path d="M73.082,231.629L107.411,285.981L38.754,285.981L73.082,231.629Z" style="fill:rgb(3,119,148);"/>
    </g>
    <g transform="matrix(-0.745732,0.430549,0.471007,0.815808,99.0011,567.087)">
        <path d="M73.082,231.629L107.411,285.981L38.754,285.981L73.082,231.629Z" style="fill:rgb(3,119,148);"/>
    </g>
    <g transform="matrix(-0.745732,-0.430549,-0.471007,0.815808,317.199,-2.22327)">
        <path d="M73.082,231.629L107.411,285.981L38.754,285.981L73.082,231.629Z" style="fill:rgb(3,119,148);"/>
    </g>
    <g transform="matrix(-2.8581e-16,-0.861097,-0.942014,3.42972e-16,371.798,218.207)">
        <path d="M73.082,231.629L107.411,285.981L38.754,285.981L73.082,231.629Z" style="fill:rgb(0,70,87);"/>
    </g>
    <g transform="matrix(5.71621e-17,-0.861097,-0.942014,5.71621e-17,474.198,277.328)">
        <path d="M73.082,231.629L107.411,285.981L38.754,285.981L73.082,231.629Z" style="fill:rgb(3,119,148);"/>
    </g>
    <g transform="matrix(4.82919e-17,0.861097,0.942014,-1.72526e-16,-64.5978,151.466)">
        <path d="M73.082,231.629L107.411,285.981L38.754,285.981L73.082,231.629Z" style="fill:rgb(3,119,148);"/>
    </g>
    <g transform="matrix(-0.745732,-0.430549,-0.471007,0.815808,419.599,630.018)">
        <path d="M73.082,231.629L107.411,285.981L38.754,285.981L73.082,231.629Z" style="fill:rgb(3,119,148);"/>
    </g>
    <g transform="matrix(-2.8581e-16,-0.861097,-0.942014,3.42972e-16,474.198,336.448)">
        <path d="M73.082,231.629L107.411,285.981L38.754,285.981L73.082,231.629Z" style="fill:rgb(3,119,148);"/>
    </g>
    <g transform="matrix(-2.8581e-16,-0.861097,-0.942014,3.42972e-16,474.198,218.207)">
        <path d="M73.082,231.629L107.411,285.981L38.754,285.981L73.082,231.629Z" style="fill:rgb(3,119,148);"/>
    </g>
    <g transform="matrix(0.745732,0.430549,0.471007,-0.815808,604.401,312.775)">
        <path d="M73.082,231.629L107.411,285.981L38.754,285.981L73.082,231.629Z" style="fill:rgb(3,119,148);"/>
    </g>
    <g transform="matrix(1.71486e-16,0.861097,0.942014,-2.8581e-16,549.802,92.3449)">
        <path d="M73.082,231.629L107.411,285.981L38.754,285.981L73.082,231.629Z" style="fill:rgb(3,119,148);"/>
    </g>
    <g transform="matrix(-0.745732,-0.430549,-0.471007,0.815808,931.599,-2.22327)">
        <path d="M73.082,231.629L107.411,285.981L38.754,285.981L73.082,231.629Z" style="fill:rgb(3,119,148);"/>
    </g>
    <g transform="matrix(-0.745732,0.430549,0.471007,0.815808,713.401,-65.1544)">
        <path d="M73.082,231.629L107.411,285.981L38.754,285.981L73.082,231.629Z" style="fill:rgb(3,119,148);"/>
    </g>
    <g transform="matrix(1.71486e-16,0.861097,0.942014,-2.8581e-16,549.802,-25.8965)">
        <path d="M73.082,231.629L107.411,285.981L38.754,285.981L73.082,231.629Z" style="fill:rgb(3,119,148);"/>
    </g>
    <g transform="matrix(-0.745732,-0.430549,-0.471007,0.815808,931.599,-120.465)">
        <path d="M73.082,231.629L107.411,285.981L38.754,285.981L73.082,231.629Z" style="fill:rgb(3,119,148);"/>
    </g>
    <g transform="matrix(-0.745732,0.430549,0.471007,0.815808,713.401,-183.396)">
        <path d="M73.082,231.629L107.411,285.981L38.754,285.981L73.082,231.629Z" style="fill:rgb(3,119,148);"/>
    </g>
    <g transform="matrix(4.82919e-17,0.861097,0.942014,-1.72526e-16,549.802,151.466)">
        <path d="M73.082,231.629L107.411,285.981L38.754,285.981L73.082,231.629Z" style="fill:rgb(3,119,148);"/>
    </g>
    <g transform="matrix(5.71621e-17,-0.861097,-0.942014,5.71621e-17,1088.6,159.086)">
        <path d="M73.082,231.629L107.411,285.981L38.754,285.981L73.082,231.629Z" style="fill:rgb(3,119,148);"/>
    </g>
    <g transform="matrix(4.82919e-17,0.861097,0.942014,-1.72526e-16,549.802,33.2242)">
        <path d="M73.082,231.629L107.411,285.981L38.754,285.981L73.082,231.629Z" style="fill:rgb(3,119,148);"/>
    </g>
    <g transform="matrix(0.745732,-0.430549,-0.471007,-0.815808,924.999,493.948)">
        <path d="M73.082,231.629L107.411,285.981L38.754,285.981L73.082,231.629Z" style="fill:rgb(3,119,148);"/>
    </g>
    <g transform="matrix(1.71486e-16,0.861097,0.942014,-2.8581e-16,652.202,210.586)">
        <path d="M73.082,231.629L107.411,285.981L38.754,285.981L73.082,231.629Z" style="fill:rgb(3,119,148);"/>
    </g>
    <g transform="matrix(-2.8581e-16,-0.861097,-0.942014,3.42972e-16,1088.6,336.448)">
        <path d="M73.082,231.629L107.411,285.981L38.754,285.981L73.082,231.629Z" style="fill:rgb(3,119,148);"/>
    </g>
    <g transform="matrix(-0.745732,0.430549,0.471007,0.815808,815.801,567.087)">
        <path d="M73.082,231.629L107.411,285.981L38.754,285.981L73.082,231.629Z" style="fill:rgb(3,119,148);"/>
    </g>
    <g transform="matrix(0.745732,-0.430549,-0.471007,-0.815808,924.999,375.706)">
        <path d="M73.082,231.629L107.411,285.981L38.754,285.981L73.082,231.629Z" style="fill:rgb(3,119,148);"/>
    </g>
    <g transform="matrix(0.745732,0.430549,0.471007,-0.815808,706.801,312.775)">
        <path d="M73.082,231.629L107.411,285.981L38.754,285.981L73.082,231.629Z" style="fill:rgb(3,119,148);"/>
    </g>
    <g transform="matrix(1.71486e-16,0.861097,0.942014,-2.8581e-16,652.202,92.3449)">
        <path d="M73.082,231.629L107.411,285.981L38.754,285.981L73.082,231.629Z" style="fill:rgb(3,119,148);"/>
    </g>
    <g transform="matrix(-0.745732,-0.430549,-0.471007,0.815808,1034,-2.22327)">
        <path d="M73.082,231.629L107.411,285.981L38.754,285.981L73.082,231.629Z" style="fill:rgb(3,119,148);"/>
    </g>
    <g transform="matrix(-2.8581e-16,-0.861097,-0.942014,3.42972e-16,1088.6,218.207)">
        <path d="M73.082,231.629L107.411,285.981L38.754,285.981L73.082,231.629Z" style="fill:rgb(3,119,148);"/>
    </g>
    <g transform="matrix(-0.745732,0.430549,0.471007,0.815808,815.801,-65.1544)">
        <path d="M73.082,231.629L107.411,285.981L38.754,285.981L73.082,231.629Z" style="fill:rgb(3,119,148);"/>
    </g>
    <g transform="matrix(1.71486e-16,0.861097,0.942014,-2.8581e-16,652.202,-25.8965)">
        <path d="M73.082,231.629L107.411,285.981L38.754,285.981L73.082,231.629Z" style="fill:rgb(3,119,148);"/>
    </g>
    <g transform="matrix(-0.745732,-0.430549,-0.471007,0.815808,1034,-120.465)">
        <path d="M73.082,231.629L107.411,285.981L38.754,285.981L73.082,231.629Z" style="fill:rgb(3,119,148);"/>
    </g>
    <g transform="matrix(-2.8581e-16,-0.861097,-0.942014,3.42972e-16,1088.6,99.9658)">
        <path d="M73.082,231.629L107.411,285.981L38.754,285.981L73.082,231.629Z" style="fill:rgb(3,119,148);"/>
    </g>
    <g transform="matrix(-0.745732,0.430549,0.471007,0.815808,815.801,-183.396)">
        <path d="M73.082,231.629L107.411,285.981L38.754,285.981L73.082,231.629Z" style="fill:rgb(3,119,148);"/>
    </g>
    <g transform="matrix(5.71621e-17,-0.861097,-0.942014,5.71621e-17,1191,277.328)">
        <path d="M73.082,231.629L107.411,285.981L38.754,285.981L73.082,231.629Z" style="fill:rgb(3,119,148);"/>
    </g>
    <g transform="matrix(4.82919e-17,0.861097,0.942014,-1.72526e-16,652.202,151.466)">
        <path d="M73.082,231.629L107.411,285.981L38.754,285.981L73.082,231.629Z" style="fill:rgb(3,119,148);"/>
    </g>
    <g transform="matrix(5.71621e-17,-0.861097,-0.942014,5.71621e-17,1191,159.086)">
        <path d="M73.082,231.629L107.411,285.981L38.754,285.981L73.082,231.629Z" style="fill:rgb(3,119,148);"/>
    </g>
    <g transform="matrix(4.82919e-17,0.861097,0.942014,-1.72526e-16,652.202,33.2242)">
        <path d="M73.082,231.629L107.411,285.981L38.754,285.981L73.082,231.629Z" style="fill:rgb(3,119,148);"/>
    </g>
    <g transform="matrix(0.745732,-0.430549,-0.471007,-0.815808,1027.4,493.948)">
        <path d="M73.082,231.629L107.411,285.981L38.754,285.981L73.082,231.629Z" style="fill:rgb(3,119,148);"/>
    </g>
    <g transform="matrix(0.745732,0.430549,0.471007,-0.815808,809.201,431.017)">
        <path d="M73.082,231.629L107.411,285.981L38.754,285.981L73.082,231.629Z" style="fill:rgb(3,119,148);"/>
    </g>
    <g transform="matrix(1.71486e-16,0.861097,0.942014,-2.8581e-16,754.602,210.586)">
        <path d="M73.082,231.629L107.411,285.981L38.754,285.981L73.082,231.629Z" style="fill:rgb(3,119,148);"/>
    </g>
    <g transform="matrix(-0.745732,-0.430549,-0.471007,0.815808,1136.4,630.018)">
        <path d="M73.082,231.629L107.411,285.981L38.754,285.981L73.082,231.629Z" style="fill:rgb(3,119,148);"/>
    </g>
    <g transform="matrix(-2.8581e-16,-0.861097,-0.942014,3.42972e-16,1191,336.448)">
        <path d="M73.082,231.629L107.411,285.981L38.754,285.981L73.082,231.629Z" style="fill:rgb(3,119,148);"/>
    </g>
    <g transform="matrix(-0.745732,0.430549,0.471007,0.815808,918.201,567.087)">
        <path d="M73.082,231.629L107.411,285.981L38.754,285.981L73.082,231.629Z" style="fill:rgb(3,119,148);"/>
    </g>
    <g transform="matrix(0.745732,-0.430549,-0.471007,-0.815808,1027.4,375.706)">
        <path d="M73.082,231.629L107.411,285.981L38.754,285.981L73.082,231.629Z" style="fill:rgb(3,119,148);"/>
    </g>
    <g transform="matrix(0.745732,0.430549,0.471007,-0.815808,809.201,312.775)">
        <path d="M73.082,231.629L107.411,285.981L38.754,285.981L73.082,231.629Z" style="fill:rgb(3,119,148);"/>
    </g>
    <g transform="matrix(1.71486e-16,0.861097,0.942014,-2.8581e-16,754.602,92.3449)">
        <path d="M73.082,231.629L107.411,285.981L38.754,285.981L73.082,231.629Z" style="fill:rgb(3,119,148);"/>
    </g>
    <g transform="matrix(-0.745732,-0.430549,-0.471007,0.815808,1136.4,-2.22327)">
        <path d="M73.082,231.629L107.411,285.981L38.754,285.981L73.082,231.629Z" style="fill:rgb(3,119,148);"/>
    </g>
    <g transform="matrix(-2.8581e-16,-0.861097,-0.942014,3.42972e-16,1191,218.207)">
        <path d="M73.082,231.629L107.411,285.981L38.754,285.981L73.082,231.629Z" style="fill:rgb(3,119,148);"/>
    </g>
    <g transform="matrix(-0.745732,0.430549,0.471007,0.815808,918.201,-65.1544)">
        <path d="M73.082,231.629L107.411,285.981L38.754,285.981L73.082,231.629Z" style="fill:rgb(3,119,148);"/>
    </g>
    <g transform="matrix(1.71486e-16,0.861097,0.942014,-2.8581e-16,754.602,-25.8965)">
        <path d="M73.082,231.629L107.411,285.981L38.754,285.981L73.082,231.629Z" style="fill:rgb(3,119,148);"/>
    </g>
    <g transform="matrix(-0.745732,-0.430549,-0.471007,0.815808,1136.4,-120.465)">
        <path d="M73.082,231.629L107.411,285.981L38.754,285.981L73.082,231.629Z" style="fill:rgb(3,119,148);"/>
    </g>
    <g transform="matrix(-2.8581e-16,-0.861097,-0.942014,3.42972e-16,1191,99.9658)">
        <path d="M73.082,231.629L107.411,285.981L38.754,285.981L73.082,231.629Z" style="fill:rgb(3,119,148);"/>
    </g>
    <g transform="matrix(-0.745732,0.430549,0.471007,0.815808,918.201,-183.396)">
        <path d="M73.082,231.629L107.411,285.981L38.754,285.981L73.082,231.629Z" style="fill:rgb(3,119,148);"/>
    </g>
    <g transform="matrix(4.82919e-17,0.861097,0.942014,-1.72526e-16,754.602,151.466)">
        <path d="M73.082,231.629L107.411,285.981L38.754,285.981L73.082,231.629Z" style="fill:rgb(3,119,148);"/>
    </g>
    <g transform="matrix(0.745732,-0.430549,-0.471007,-0.815808,105.799,1126.19)">
        <path d="M73.082,231.629L107.411,285.981L38.754,285.981L73.082,231.629Z" style="fill:rgb(3,119,148);"/>
    </g>
    <g transform="matrix(0.745732,0.430549,0.471007,-0.815808,-112.399,1063.26)">
        <path d="M73.082,231.629L107.411,285.981L38.754,285.981L73.082,231.629Z" style="fill:rgb(3,119,148);"/>
    </g>
    <g transform="matrix(5.71621e-17,-0.861097,-0.942014,5.71621e-17,371.798,909.569)">
        <path d="M73.082,231.629L107.411,285.981L38.754,285.981L73.082,231.629Z" style="fill:rgb(3,119,148);"/>
    </g>
    <g transform="matrix(5.71621e-17,-0.861097,-0.942014,5.71621e-17,269.398,909.569)">
        <path d="M73.082,231.629L107.411,285.981L38.754,285.981L73.082,231.629Z" style="fill:rgb(3,119,148);"/>
    </g>
    <g transform="matrix(4.82919e-17,0.861097,0.942014,-1.72526e-16,-166.998,783.707)">
        <path d="M73.082,231.629L107.411,285.981L38.754,285.981L73.082,231.629Z" style="fill:rgb(3,119,148);"/>
    </g>
    <g transform="matrix(1.71486e-16,0.861097,0.942014,-2.8581e-16,-166.998,842.828)">
        <path d="M73.082,231.629L107.411,285.981L38.754,285.981L73.082,231.629Z" style="fill:rgb(3,119,148);"/>
    </g>
    <g transform="matrix(-0.745732,-0.430549,-0.471007,0.815808,214.799,748.259)">
        <path d="M73.082,231.629L107.411,285.981L38.754,285.981L73.082,231.629Z" style="fill:rgb(3,119,148);"/>
    </g>
    <g transform="matrix(-2.8581e-16,-0.861097,-0.942014,3.42972e-16,269.398,968.69)">
        <path d="M73.082,231.629L107.411,285.981L38.754,285.981L73.082,231.629Z" style="fill:rgb(3,119,148);"/>
    </g>
    <g transform="matrix(-0.745732,0.430549,0.471007,0.815808,-3.39893,685.328)">
        <path d="M73.082,231.629L107.411,285.981L38.754,285.981L73.082,231.629Z" style="fill:rgb(3,119,148);"/>
    </g>
    <g transform="matrix(0.745732,-0.430549,-0.471007,-0.815808,208.199,1126.19)">
        <path d="M73.082,231.629L107.411,285.981L38.754,285.981L73.082,231.629Z" style="fill:rgb(3,119,148);"/>
    </g>
    <g transform="matrix(0.745732,0.430549,0.471007,-0.815808,-9.99886,1063.26)">
        <path d="M73.082,231.629L107.411,285.981L38.754,285.981L73.082,231.629Z" style="fill:rgb(3,119,148);"/>
    </g>
    <g transform="matrix(1.71486e-16,0.861097,0.942014,-2.8581e-16,-64.5978,842.828)">
        <path d="M73.082,231.629L107.411,285.981L38.754,285.981L73.082,231.629Z" style="fill:rgb(3,119,148);"/>
    </g>
    <g transform="matrix(-0.745732,-0.430549,-0.471007,0.815808,317.199,748.259)">
        <path d="M73.082,231.629L107.411,285.981L38.754,285.981L73.082,231.629Z" style="fill:rgb(3,119,148);"/>
    </g>
    <g transform="matrix(-2.8581e-16,-0.861097,-0.942014,3.42972e-16,371.798,968.69)">
        <path d="M73.082,231.629L107.411,285.981L38.754,285.981L73.082,231.629Z" style="fill:rgb(3,119,148);"/>
    </g>
    <g transform="matrix(-0.745732,0.430549,0.471007,0.815808,99.0011,685.328)">
        <path d="M73.082,231.629L107.411,285.981L38.754,285.981L73.082,231.629Z" style="fill:rgb(3,119,148);"/>
    </g>
    <g transform="matrix(5.71621e-17,-0.861097,-0.942014,5.71621e-17,474.198,909.569)">
        <path d="M73.082,231.629L107.411,285.981L38.754,285.981L73.082,231.629Z" style="fill:rgb(3,119,148);"/>
    </g>
    <g transform="matrix(4.82919e-17,0.861097,0.942014,-1.72526e-16,-64.5978,783.707)">
        <path d="M73.082,231.629L107.411,285.981L38.754,285.981L73.082,231.629Z" style="fill:rgb(3,119,148);"/>
    </g>
    <g transform="matrix(-2.8581e-16,-0.861097,-0.942014,3.42972e-16,474.198,968.69)">
        <path d="M73.082,231.629L107.411,285.981L38.754,285.981L73.082,231.629Z" style="fill:rgb(3,119,148);"/>
    </g>
    <g transform="matrix(5.71621e-17,-0.861097,-0.942014,5.71621e-17,1191,909.569)">
        <path d="M73.082,231.629L107.411,285.981L38.754,285.981L73.082,231.629Z" style="fill:rgb(3,119,148);"/>
    </g>
    <g transform="matrix(4.82919e-17,0.861097,0.942014,-1.72526e-16,652.202,783.707)">
        <path d="M73.082,231.629L107.411,285.981L38.754,285.981L73.082,231.629Z" style="fill:rgb(3,119,148);"/>
    </g>
    <g transform="matrix(0.745732,-0.430549,-0.471007,-0.815808,1027.4,1126.19)">
        <path d="M73.082,231.629L107.411,285.981L38.754,285.981L73.082,231.629Z" style="fill:rgb(3,119,148);"/>
    </g>
    <g transform="matrix(0.745732,0.430549,0.471007,-0.815808,809.201,1063.26)">
        <path d="M73.082,231.629L107.411,285.981L38.754,285.981L73.082,231.629Z" style="fill:rgb(3,119,148);"/>
    </g>
    <g transform="matrix(1.71486e-16,0.861097,0.942014,-2.8581e-16,754.602,842.828)">
        <path d="M73.082,231.629L107.411,285.981L38.754,285.981L73.082,231.629Z" style="fill:rgb(0,70,87);"/>
    </g>
    <g transform="matrix(4.82919e-17,0.861097,0.942014,-1.72526e-16,754.602,783.707)">
        <path d="M73.082,231.629L107.411,285.981L38.754,285.981L73.082,231.629Z" style="fill:rgb(99,202,213);"/>
    </g>
    <g transform="matrix(0.745732,-0.430549,-0.471007,-0.815808,105.799,1244.43)">
        <path d="M73.082,231.629L107.411,285.981L38.754,285.981L73.082,231.629Z" style="fill:rgb(3,119,148);"/>
    </g>
    <g transform="matrix(0.745732,0.430549,0.471007,-0.815808,-112.399,1181.5)">
        <path d="M73.082,231.629L107.411,285.981L38.754,285.981L73.082,231.629Z" style="fill:rgb(3,119,148);"/>
    </g>
    <g transform="matrix(5.71621e-17,-0.861097,-0.942014,5.71621e-17,371.798,1027.81)">
        <path d="M73.082,231.629L107.411,285.981L38.754,285.981L73.082,231.629Z" style="fill:rgb(3,119,148);"/>
    </g>
    <g transform="matrix(5.71621e-17,-0.861097,-0.942014,5.71621e-17,269.398,1027.81)">
        <path d="M73.082,231.629L107.411,285.981L38.754,285.981L73.082,231.629Z" style="fill:rgb(3,119,148);"/>
    </g>
    <g transform="matrix(4.82919e-17,0.861097,0.942014,-1.72526e-16,-166.998,901.948)">
        <path d="M73.082,231.629L107.411,285.981L38.754,285.981L73.082,231.629Z" style="fill:rgb(3,119,148);"/>
    </g>
    <g transform="matrix(0.745732,-0.430549,-0.471007,-0.815808,208.199,1244.43)">
        <path d="M73.082,231.629L107.411,285.981L38.754,285.981L73.082,231.629Z" style="fill:rgb(3,119,148);"/>
    </g>
    <g transform="matrix(0.745732,0.430549,0.471007,-0.815808,-9.99886,1181.5)">
        <path d="M73.082,231.629L107.411,285.981L38.754,285.981L73.082,231.629Z" style="fill:rgb(3,119,148);"/>
    </g>
    <g transform="matrix(0.745732,0.430549,0.471007,-0.815808,-163.599,1211.06)">
        <path d="M55.918,258.805L107.411,285.981L38.754,285.981L55.918,258.805Z" style="fill:rgb(3,119,148);"/>
    </g>
    <g transform="matrix(0.745732,0.430549,0.471007,-0.815808,-61.1989,1211.06)">
        <path d="M55.918,258.805L107.411,285.981L38.754,285.981L55.918,258.805Z" style="fill:rgb(3,119,148);"/>
    </g>
    <g transform="matrix(-0.745732,0.430549,-0.471007,-0.815808,265.999,1211.06)">
        <path d="M55.918,258.805L107.411,285.981L38.754,285.981L55.918,258.805Z" style="fill:rgb(3,119,148);"/>
    </g>
    <g transform="matrix(0.745732,0.430549,0.471007,-0.815808,41.2011,1211.06)">
        <path d="M55.918,258.805L107.411,285.981L38.754,285.981L55.918,258.805Z" style="fill:rgb(3,119,148);"/>
    </g>
    <g transform="matrix(-0.745732,0.430549,-0.471007,-0.815808,368.399,1211.06)">
        <path d="M55.918,258.805L107.411,285.981L38.754,285.981L55.918,258.805Z" style="fill:rgb(3,119,148);"/>
    </g>
    <g transform="matrix(-0.745732,0.430549,-0.471007,-0.815808,470.799,1211.06)">
        <path d="M55.918,258.805L107.411,285.981L38.754,285.981L55.918,258.805Z" style="fill:rgb(3,119,148);"/>
    </g>
    <g transform="matrix(5.71621e-17,-0.861097,-0.942014,5.71621e-17,474.198,1027.81)">
        <path d="M73.082,231.629L107.411,285.981L38.754,285.981L73.082,231.629Z" style="fill:rgb(3,119,148);"/>
    </g>
    <g transform="matrix(4.82919e-17,0.861097,0.942014,-1.72526e-16,-64.5978,901.948)">
        <path d="M73.082,231.629L107.411,285.981L38.754,285.981L73.082,231.629Z" style="fill:rgb(3,119,148);"/>
    </g>
    <g transform="matrix(0.745732,-0.430549,-0.471007,-0.815808,310.599,1244.43)">
        <path d="M73.082,231.629L107.411,285.981L38.754,285.981L73.082,231.629Z" style="fill:rgb(3,119,148);"/>
    </g>
    <g transform="matrix(0.745732,0.430549,0.471007,-0.815808,92.4011,1181.5)">
        <path d="M73.082,231.629L107.411,285.981L38.754,285.981L73.082,231.629Z" style="fill:rgb(3,119,148);"/>
    </g>
    <g transform="matrix(4.82919e-17,0.861097,0.942014,-1.72526e-16,37.8022,901.948)">
        <path d="M73.082,231.629L107.411,285.981L38.754,285.981L73.082,231.629Z" style="fill:rgb(3,119,148);"/>
    </g>
    <g transform="matrix(4.82919e-17,0.861097,0.942014,-1.72526e-16,754.602,33.2242)">
        <path d="M73.082,231.629L107.411,285.981L38.754,285.981L73.082,231.629Z" style="fill:rgb(3,119,148);"/>
    </g>
</svg>
