<?xml version="1.0" encoding="UTF-8" standalone="no"?>
<!DOCTYPE svg PUBLIC "-//W3C//DTD SVG 1.1//EN" "http://www.w3.org/Graphics/SVG/1.1/DTD/svg11.dtd">
<svg width="100%" height="100%" viewBox="0 0 840 615" version="1.1" xmlns="http://www.w3.org/2000/svg" xmlns:xlink="http://www.w3.org/1999/xlink" xml:space="preserve" xmlns:serif="http://www.serif.com/" style="fill-rule:evenodd;clip-rule:evenodd;stroke-linecap:round;stroke-linejoin:round;stroke-miterlimit:1.5;">
    <g transform="matrix(1,0,0,1,-542.982,-1383.09)">
        <g transform="matrix(0.715891,0,0,0.715891,-566.242,469.679)">
            <g>
                <g>
                    <g transform="matrix(0.811927,0,0,1,1608.92,2133.03)">
                        <g transform="matrix(1.28368,0,0,1,0,0)">
                            <path d="M39.793,-1.222C34.317,0.346 29.542,1.13 25.47,1.13C18.283,1.13 12.771,-0.916 8.933,-5.009C5.095,-9.101 3.176,-14.965 3.176,-22.599C3.176,-30.092 5.121,-35.92 9.009,-40.084C12.898,-44.247 18.354,-46.329 25.379,-46.329C29.98,-46.329 34.765,-45.647 39.732,-44.283L39.732,-38.358C33.502,-40.475 28.728,-41.534 25.409,-41.534C20.523,-41.534 16.731,-39.875 14.033,-36.556C11.335,-33.238 9.987,-28.565 9.987,-22.538C9.987,-16.573 11.432,-11.936 14.323,-8.628C17.214,-5.319 21.266,-3.665 26.478,-3.665C28.616,-3.665 30.927,-4.041 33.411,-4.795L33.411,-19.515L39.793,-19.515L39.793,-1.222Z" style="fill:rgb(12,47,101);fill-rule:nonzero;"/>
                        </g>
                        <g transform="matrix(1.28368,0,0,1,-27.9809,0)">
                            <path d="M104.469,0L104.469,-45.199L129.725,-45.199L129.725,-40.404L110.882,-40.404L110.882,-25.898L126.671,-25.898L126.671,-21.164L110.882,-21.164L110.882,-4.795L131.038,-4.795L131.038,0L104.469,0Z" style="fill:rgb(12,47,101);fill-rule:nonzero;"/>
                        </g>
                        <g transform="matrix(1.28368,0,0,1,-51.8469,0)">
                            <path d="M188.599,0L188.599,-45.199L194.89,-45.199L217.642,-10.292L217.642,-45.199L223.14,-45.199L223.14,0L216.879,0L194.096,-34.907L194.096,0L188.599,0Z" style="fill:rgb(12,47,101);fill-rule:nonzero;"/>
                        </g>
                        <g transform="matrix(1.28368,0,0,1,-80.1947,0)">
                            <path d="M288.528,0L288.528,-45.199L313.785,-45.199L313.785,-40.404L294.942,-40.404L294.942,-25.898L310.731,-25.898L310.731,-21.164L294.942,-21.164L294.942,-4.795L315.098,-4.795L315.098,0L288.528,0Z" style="fill:rgb(12,47,101);fill-rule:nonzero;"/>
                        </g>
                        <g transform="matrix(1.28368,0,0,1,-104.061,0)">
                            <path d="M372.659,0L372.659,-45.199L386.341,-45.199C390.677,-45.199 394.001,-44.242 396.312,-42.328C398.623,-40.414 399.778,-37.635 399.778,-33.991C399.778,-27.964 396.734,-23.689 390.647,-21.164L405.733,0L397.854,0L384.997,-19.118L379.011,-19.118L379.011,0L372.659,0ZM379.011,-23.913L381.088,-23.913C389.15,-23.913 393.181,-27.079 393.181,-33.411C393.181,-38.073 389.802,-40.404 383.042,-40.404L379.011,-40.404L379.011,-23.913Z" style="fill:rgb(12,47,101);fill-rule:nonzero;"/>
                        </g>
                        <g transform="matrix(1.28368,0,0,1,-129.984,0)">
                            <path d="M486.947,-17.286L479.251,-36.77L471.524,-17.286L486.947,-17.286ZM493.726,0L488.809,-12.521L469.661,-12.521L464.683,0L458.728,0L476.655,-45.199L483.007,-45.199L500.659,0L493.726,0Z" style="fill:rgb(12,47,101);fill-rule:nonzero;"/>
                        </g>
                        <g transform="matrix(1.28368,0,0,1,-157.22,0)">
                            <path d="M560.051,0L560.051,-45.199L566.464,-45.199L566.464,-4.795L586.804,-4.795L586.804,0L560.051,0Z" style="fill:rgb(12,47,101);fill-rule:nonzero;"/>
                        </g>
                    </g>
                    <g transform="matrix(0.852345,0,0,0.833941,648.925,224.325)">
                        <path d="M1763.68,2288.78L1763.68,2234.58L1777.74,2234.58C1783.16,2234.58 1787.32,2235.61 1790.21,2237.66C1793.11,2239.71 1794.55,2242.66 1794.55,2246.52C1794.55,2253.09 1790.84,2257.76 1783.42,2260.55C1792.28,2263.26 1796.71,2268.15 1796.71,2275.23C1796.71,2279.63 1795.25,2282.99 1792.32,2285.3C1789.39,2287.62 1785.17,2288.78 1779.65,2288.78L1763.68,2288.78ZM1771.3,2283.03L1772.87,2283.03C1778.51,2283.03 1782.16,2282.68 1783.82,2281.97C1787,2280.63 1788.58,2278.14 1788.58,2274.5C1788.58,2271.28 1787.14,2268.6 1784.26,2266.46C1781.38,2264.33 1777.78,2263.26 1773.46,2263.26L1771.3,2263.26L1771.3,2283.03ZM1771.3,2258.39L1773.75,2258.39C1777.85,2258.39 1781.03,2257.51 1783.29,2255.75C1785.55,2253.99 1786.68,2251.51 1786.68,2248.32C1786.68,2242.99 1782.55,2240.33 1774.3,2240.33L1771.3,2240.33L1771.3,2258.39Z" style="fill:rgb(12,47,101);fill-rule:nonzero;"/>
                        <path d="M1844.76,2288.78L1844.76,2234.58L1875.05,2234.58L1875.05,2240.33L1852.45,2240.33L1852.45,2257.73L1871.38,2257.73L1871.38,2263.41L1852.45,2263.41L1852.45,2283.03L1876.62,2283.03L1876.62,2288.78L1844.76,2288.78Z" style="fill:rgb(12,47,101);fill-rule:nonzero;"/>
                        <path d="M1923.35,2288.78L1923.35,2234.58L1931.04,2234.58L1931.04,2283.03L1955.43,2283.03L1955.43,2288.78L1923.35,2288.78Z" style="fill:rgb(12,47,101);fill-rule:nonzero;"/>
                        <path d="M2042,2287.32C2035.43,2289.2 2029.71,2290.14 2024.83,2290.14C2016.21,2290.14 2009.6,2287.68 2005,2282.78C2000.39,2277.87 1998.09,2270.84 1998.09,2261.68C1998.09,2252.7 2000.42,2245.71 2005.09,2240.72C2009.75,2235.72 2016.29,2233.23 2024.72,2233.23C2030.24,2233.23 2035.97,2234.05 2041.93,2235.68L2041.93,2242.79C2034.46,2240.25 2028.73,2238.98 2024.75,2238.98C2018.89,2238.98 2014.35,2240.97 2011.11,2244.95C2007.88,2248.93 2006.26,2254.53 2006.26,2261.76C2006.26,2268.91 2007.99,2274.47 2011.46,2278.44C2014.93,2282.41 2019.79,2284.39 2026.04,2284.39C2028.6,2284.39 2031.37,2283.94 2034.35,2283.03L2034.35,2265.38L2042,2265.38L2042,2287.32Z" style="fill:rgb(12,47,101);fill-rule:nonzero;"/>
                        <path d="M2093.42,2288.78L2093.42,2234.58L2109.82,2234.58C2115.03,2234.58 2119.01,2235.73 2121.78,2238.03C2124.55,2240.32 2125.94,2243.65 2125.94,2248.02C2125.94,2255.25 2122.29,2260.38 2114.99,2263.41L2133.08,2288.78L2123.63,2288.78L2108.21,2265.86L2101.03,2265.86L2101.03,2288.78L2093.42,2288.78ZM2101.03,2260.11L2103.53,2260.11C2113.19,2260.11 2118.03,2256.31 2118.03,2248.72C2118.03,2243.13 2113.97,2240.33 2105.87,2240.33L2101.03,2240.33L2101.03,2260.11Z" style="fill:rgb(12,47,101);fill-rule:nonzero;"/>
                        <path d="M2206.25,2268.06L2197.02,2244.69L2187.75,2268.06L2206.25,2268.06ZM2214.38,2288.78L2208.48,2273.77L2185.52,2273.77L2179.55,2288.78L2172.41,2288.78L2193.91,2234.58L2201.52,2234.58L2222.69,2288.78L2214.38,2288.78Z" style="fill:rgb(12,47,101);fill-rule:nonzero;"/>
                        <path d="M2268.47,2288.78L2268.47,2234.58L2276.01,2234.58L2303.29,2276.44L2303.29,2234.58L2309.89,2234.58L2309.89,2288.78L2302.38,2288.78L2275.06,2246.93L2275.06,2288.78L2268.47,2288.78Z" style="fill:rgb(12,47,101);fill-rule:nonzero;"/>
                        <path d="M2383.64,2290.14C2376.12,2290.14 2370.07,2287.53 2365.49,2282.32C2360.92,2277.11 2358.63,2270.22 2358.63,2261.65C2358.63,2253.03 2360.93,2246.14 2365.53,2240.97C2370.13,2235.81 2376.28,2233.23 2383.97,2233.23C2391.64,2233.23 2397.78,2235.8 2402.39,2240.96C2407.01,2246.11 2409.31,2252.98 2409.31,2261.57C2409.31,2270.34 2407.01,2277.29 2402.39,2282.43C2397.78,2287.57 2391.53,2290.14 2383.64,2290.14ZM2383.75,2284.39C2389.29,2284.39 2393.58,2282.39 2396.6,2278.4C2399.63,2274.41 2401.14,2268.78 2401.14,2261.5C2401.14,2254.45 2399.62,2248.93 2396.59,2244.95C2393.55,2240.97 2389.34,2238.98 2383.97,2238.98C2378.57,2238.98 2374.36,2240.97 2371.34,2244.97C2368.31,2248.96 2366.8,2254.51 2366.8,2261.61C2366.8,2268.69 2368.3,2274.26 2371.3,2278.31C2374.3,2282.36 2378.45,2284.39 2383.75,2284.39Z" style="fill:rgb(12,47,101);fill-rule:nonzero;"/>
                    </g>
                </g>
                <g transform="matrix(0.786889,0,0,1.03841,-239.127,22.1989)">
                    <path d="M2484.85,1240L2499.39,1244.39C2498.41,1248.47 2496.87,1251.88 2494.77,1254.61C2492.67,1257.35 2490.07,1259.41 2486.95,1260.8C2483.84,1262.19 2479.88,1262.89 2475.07,1262.89C2469.24,1262.89 2464.47,1262.04 2460.77,1260.34C2457.07,1258.64 2453.88,1255.66 2451.19,1251.39C2448.51,1247.12 2447.17,1241.65 2447.17,1234.98C2447.17,1226.1 2449.53,1219.27 2454.25,1214.49C2458.98,1209.72 2465.66,1207.33 2474.3,1207.33C2481.07,1207.33 2486.38,1208.7 2490.25,1211.43C2494.12,1214.17 2496.99,1218.37 2498.88,1224.03L2484.23,1227.29C2483.71,1225.66 2483.18,1224.46 2482.62,1223.7C2481.69,1222.43 2480.55,1221.46 2479.21,1220.77C2477.87,1220.09 2476.37,1219.75 2474.7,1219.75C2470.95,1219.75 2468.06,1221.26 2466.06,1224.29C2464.55,1226.54 2463.79,1230.06 2463.79,1234.87C2463.79,1240.83 2464.7,1244.91 2466.5,1247.12C2468.31,1249.33 2470.85,1250.44 2474.12,1250.44C2477.29,1250.44 2479.69,1249.55 2481.32,1247.76C2482.94,1245.98 2484.12,1243.39 2484.85,1240Z" style="fill:rgb(12,47,101);fill-rule:nonzero;"/>
                    <path d="M2507.41,1208.25L2551.87,1208.25L2551.87,1219.71L2524.03,1219.71L2524.03,1228.24L2549.85,1228.24L2549.85,1239.19L2524.03,1239.19L2524.03,1249.78L2552.67,1249.78L2552.67,1261.93L2507.41,1261.93L2507.41,1208.25Z" style="fill:rgb(12,47,101);fill-rule:nonzero;"/>
                    <path d="M2561.72,1208.25L2577.21,1208.25L2597.42,1237.95L2597.42,1208.25L2613.06,1208.25L2613.06,1261.93L2597.42,1261.93L2577.32,1232.45L2577.32,1261.93L2561.72,1261.93L2561.72,1208.25Z" style="fill:rgb(12,47,101);fill-rule:nonzero;"/>
                    <path d="M2620.31,1208.25L2670.74,1208.25L2670.74,1221.51L2653.82,1221.51L2653.82,1261.93L2637.23,1261.93L2637.23,1221.51L2620.31,1221.51L2620.31,1208.25Z" style="fill:rgb(12,47,101);fill-rule:nonzero;"/>
                    <path d="M2678.47,1261.93L2678.47,1208.25L2706.11,1208.25C2711.24,1208.25 2715.16,1208.69 2717.87,1209.57C2720.58,1210.45 2722.76,1212.08 2724.42,1214.46C2726.08,1216.84 2726.91,1219.74 2726.91,1223.15C2726.91,1226.13 2726.28,1228.7 2725.01,1230.86C2723.74,1233.02 2721.99,1234.77 2719.77,1236.12C2718.36,1236.97 2716.42,1237.68 2713.95,1238.24C2715.93,1238.9 2717.37,1239.56 2718.27,1240.22C2718.88,1240.66 2719.77,1241.6 2720.93,1243.04C2722.09,1244.48 2722.86,1245.59 2723.25,1246.37L2731.27,1261.93L2712.52,1261.93L2703.66,1245.53C2702.54,1243.4 2701.54,1242.03 2700.66,1241.39C2699.46,1240.56 2698.11,1240.14 2696.59,1240.14L2695.13,1240.14L2695.13,1261.93L2678.47,1261.93ZM2695.13,1230L2702.12,1230C2702.88,1230 2704.34,1229.76 2706.52,1229.27C2707.62,1229.05 2708.51,1228.49 2709.21,1227.58C2709.9,1226.68 2710.25,1225.64 2710.25,1224.47C2710.25,1222.74 2709.7,1221.41 2708.6,1220.48C2707.51,1219.55 2705.44,1219.09 2702.41,1219.09L2695.13,1219.09L2695.13,1230Z" style="fill:rgb(12,47,101);fill-rule:nonzero;"/>
                    <path d="M2733.21,1235.13C2733.21,1226.36 2735.66,1219.54 2740.54,1214.66C2745.42,1209.77 2752.22,1207.33 2760.93,1207.33C2769.87,1207.33 2776.76,1209.73 2781.59,1214.53C2786.42,1219.33 2788.84,1226.05 2788.84,1234.69C2788.84,1240.96 2787.78,1246.11 2785.67,1250.12C2783.56,1254.14 2780.51,1257.27 2776.52,1259.5C2772.53,1261.73 2767.55,1262.85 2761.6,1262.85C2755.54,1262.85 2750.53,1261.89 2746.56,1259.96C2742.59,1258.03 2739.38,1254.98 2736.91,1250.8C2734.45,1246.63 2733.21,1241.4 2733.21,1235.13ZM2749.8,1235.2C2749.8,1240.62 2750.81,1244.52 2752.82,1246.88C2754.84,1249.25 2757.58,1250.44 2761.05,1250.44C2764.61,1250.44 2767.37,1249.28 2769.32,1246.96C2771.28,1244.64 2772.25,1240.48 2772.25,1234.47C2772.25,1229.41 2771.23,1225.72 2769.19,1223.39C2767.16,1221.06 2764.39,1219.89 2760.9,1219.89C2757.55,1219.89 2754.87,1221.08 2752.84,1223.45C2750.82,1225.81 2749.8,1229.73 2749.8,1235.2Z" style="fill:rgb(12,47,101);fill-rule:nonzero;"/>
                    <rect x="2823.45" y="1208.25" width="16.626" height="53.687" style="fill:rgb(12,47,101);fill-rule:nonzero;"/>
                    <path d="M2852.09,1208.25L2867.58,1208.25L2887.79,1237.95L2887.79,1208.25L2903.43,1208.25L2903.43,1261.93L2887.79,1261.93L2867.69,1232.45L2867.69,1261.93L2852.09,1261.93L2852.09,1208.25Z" style="fill:rgb(12,47,101);fill-rule:nonzero;"/>
                    <path d="M2910.68,1208.25L2961.11,1208.25L2961.11,1221.51L2944.19,1221.51L2944.19,1261.93L2927.6,1261.93L2927.6,1221.51L2910.68,1221.51L2910.68,1208.25Z" style="fill:rgb(12,47,101);fill-rule:nonzero;"/>
                    <path d="M2968.58,1208.25L3013.03,1208.25L3013.03,1219.71L2985.2,1219.71L2985.2,1228.24L3011.02,1228.24L3011.02,1239.19L2985.2,1239.19L2985.2,1249.78L3013.84,1249.78L3013.84,1261.93L2968.58,1261.93L2968.58,1208.25Z" style="fill:rgb(12,47,101);fill-rule:nonzero;"/>
                    <path d="M3023,1261.93L3023,1208.25L3050.64,1208.25C3055.77,1208.25 3059.69,1208.69 3062.4,1209.57C3065.11,1210.45 3067.3,1212.08 3068.96,1214.46C3070.62,1216.84 3071.45,1219.74 3071.45,1223.15C3071.45,1226.13 3070.81,1228.7 3069.54,1230.86C3068.27,1233.02 3066.53,1234.77 3064.31,1236.12C3062.89,1236.97 3060.95,1237.68 3058.48,1238.24C3060.46,1238.9 3061.9,1239.56 3062.8,1240.22C3063.41,1240.66 3064.3,1241.6 3065.46,1243.04C3066.62,1244.48 3067.39,1245.59 3067.78,1246.37L3075.8,1261.93L3057.05,1261.93L3048.19,1245.53C3047.07,1243.4 3046.07,1242.03 3045.19,1241.39C3043.99,1240.56 3042.64,1240.14 3041.12,1240.14L3039.66,1240.14L3039.66,1261.93L3023,1261.93ZM3039.66,1230L3046.65,1230C3047.41,1230 3048.88,1229.76 3051.05,1229.27C3052.15,1229.05 3053.04,1228.49 3053.74,1227.58C3054.43,1226.68 3054.78,1225.64 3054.78,1224.47C3054.78,1222.74 3054.23,1221.41 3053.14,1220.48C3052.04,1219.55 3049.97,1219.09 3046.95,1219.09L3039.66,1219.09L3039.66,1230Z" style="fill:rgb(12,47,101);fill-rule:nonzero;"/>
                    <path d="M3141.06,1208.25L3157.62,1208.25L3157.62,1240.26C3157.62,1243.43 3157.12,1246.43 3156.13,1249.25C3155.14,1252.07 3153.59,1254.53 3151.48,1256.64C3149.37,1258.76 3147.15,1260.24 3144.83,1261.09C3141.61,1262.29 3137.74,1262.89 3133.23,1262.89C3130.61,1262.89 3127.76,1262.7 3124.68,1262.34C3121.59,1261.97 3119,1261.25 3116.93,1260.16C3114.85,1259.07 3112.96,1257.53 3111.24,1255.53C3109.51,1253.52 3108.34,1251.46 3107.7,1249.34C3106.68,1245.92 3106.16,1242.89 3106.16,1240.26L3106.16,1208.25L3122.72,1208.25L3122.72,1241.02C3122.72,1243.95 3123.53,1246.24 3125.15,1247.89C3126.77,1249.54 3129.03,1250.36 3131.91,1250.36C3134.76,1250.36 3137,1249.55 3138.63,1247.93C3140.25,1246.3 3141.06,1244 3141.06,1241.02L3141.06,1208.25Z" style="fill:rgb(12,47,101);fill-rule:nonzero;"/>
                    <path d="M3168.71,1208.25L3184.2,1208.25L3204.42,1237.95L3204.42,1208.25L3220.05,1208.25L3220.05,1261.93L3204.42,1261.93L3184.31,1232.45L3184.31,1261.93L3168.71,1261.93L3168.71,1208.25Z" style="fill:rgb(12,47,101);fill-rule:nonzero;"/>
                    <rect x="3231.74" y="1208.25" width="16.626" height="53.687" style="fill:rgb(12,47,101);fill-rule:nonzero;"/>
                    <path d="M3254.95,1208.25L3272.31,1208.25L3284.4,1246.88L3296.3,1208.25L3313.14,1208.25L3293.22,1261.93L3275.24,1261.93L3254.95,1208.25Z" style="fill:rgb(12,47,101);fill-rule:nonzero;"/>
                    <path d="M3318.57,1208.25L3363.02,1208.25L3363.02,1219.71L3335.19,1219.71L3335.19,1228.24L3361.01,1228.24L3361.01,1239.19L3335.19,1239.19L3335.19,1249.78L3363.83,1249.78L3363.83,1261.93L3318.57,1261.93L3318.57,1208.25Z" style="fill:rgb(12,47,101);fill-rule:nonzero;"/>
                    <path d="M3372.98,1261.93L3372.98,1208.25L3400.63,1208.25C3405.76,1208.25 3409.68,1208.69 3412.39,1209.57C3415.1,1210.45 3417.28,1212.08 3418.94,1214.46C3420.6,1216.84 3421.43,1219.74 3421.43,1223.15C3421.43,1226.13 3420.8,1228.7 3419.53,1230.86C3418.26,1233.02 3416.51,1234.77 3414.29,1236.12C3412.88,1236.97 3410.93,1237.68 3408.47,1238.24C3410.45,1238.9 3411.89,1239.56 3412.79,1240.22C3413.4,1240.66 3414.29,1241.6 3415.45,1243.04C3416.61,1244.48 3417.38,1245.59 3417.77,1246.37L3425.79,1261.93L3407.04,1261.93L3398.18,1245.53C3397.06,1243.4 3396.06,1242.03 3395.18,1241.39C3393.98,1240.56 3392.62,1240.14 3391.11,1240.14L3389.65,1240.14L3389.65,1261.93L3372.98,1261.93ZM3389.65,1230L3396.64,1230C3397.4,1230 3398.86,1229.76 3401.04,1229.27C3402.13,1229.05 3403.03,1228.49 3403.73,1227.58C3404.42,1226.68 3404.77,1225.64 3404.77,1224.47C3404.77,1222.74 3404.22,1221.41 3403.12,1220.48C3402.02,1219.55 3399.96,1219.09 3396.93,1219.09L3389.65,1219.09L3389.65,1230Z" style="fill:rgb(12,47,101);fill-rule:nonzero;"/>
                    <path d="M3428.21,1244.17L3443.99,1243.18C3444.33,1245.75 3445.03,1247.7 3446.08,1249.04C3447.79,1251.22 3450.23,1252.3 3453.4,1252.3C3455.77,1252.3 3457.6,1251.75 3458.88,1250.64C3460.16,1249.53 3460.8,1248.24 3460.8,1246.77C3460.8,1245.38 3460.19,1244.14 3458.97,1243.04C3457.75,1241.94 3454.92,1240.9 3450.47,1239.93C3443.2,1238.29 3438.01,1236.12 3434.91,1233.41C3431.78,1230.7 3430.22,1227.24 3430.22,1223.04C3430.22,1220.29 3431.02,1217.68 3432.62,1215.23C3434.22,1212.77 3436.62,1210.84 3439.84,1209.44C3443.05,1208.04 3447.45,1207.33 3453.04,1207.33C3459.9,1207.33 3465.13,1208.61 3468.73,1211.16C3472.33,1213.71 3474.47,1217.77 3475.16,1223.34L3459.52,1224.25C3459.1,1221.84 3458.23,1220.08 3456.9,1218.98C3455.57,1217.88 3453.73,1217.33 3451.39,1217.33C3449.46,1217.33 3448.01,1217.74 3447.03,1218.56C3446.06,1219.38 3445.57,1220.37 3445.57,1221.54C3445.57,1222.4 3445.97,1223.16 3446.78,1223.85C3447.56,1224.56 3449.41,1225.22 3452.34,1225.83C3459.59,1227.39 3464.79,1228.97 3467.92,1230.57C3471.06,1232.17 3473.34,1234.15 3474.77,1236.52C3476.2,1238.89 3476.91,1241.54 3476.91,1244.47C3476.91,1247.91 3475.96,1251.08 3474.06,1253.99C3472.15,1256.89 3469.49,1259.1 3466.08,1260.6C3462.66,1262.1 3458.35,1262.85 3453.15,1262.85C3444.02,1262.85 3437.69,1261.09 3434.18,1257.58C3430.66,1254.06 3428.67,1249.59 3428.21,1244.17Z" style="fill:rgb(12,47,101);fill-rule:nonzero;"/>
                    <rect x="3485.92" y="1208.25" width="16.626" height="53.687" style="fill:rgb(12,47,101);fill-rule:nonzero;"/>
                    <path d="M3510.68,1208.25L3561.11,1208.25L3561.11,1221.51L3544.19,1221.51L3544.19,1261.93L3527.6,1261.93L3527.6,1221.51L3510.68,1221.51L3510.68,1208.25Z" style="fill:rgb(12,47,101);fill-rule:nonzero;"/>
                    <path d="M3596.56,1253.07L3577.66,1253.07L3575.06,1261.93L3558.1,1261.93L3578.28,1208.25L3596.37,1208.25L3616.55,1261.93L3599.19,1261.93L3596.56,1253.07ZM3593.08,1241.46L3587.14,1222.16L3581.25,1241.46L3593.08,1241.46Z" style="fill:rgb(12,47,101);fill-rule:nonzero;"/>
                    <path d="M3622.08,1261.93L3622.08,1208.25L3649.73,1208.25C3654.86,1208.25 3658.78,1208.69 3661.49,1209.57C3664.2,1210.45 3666.38,1212.08 3668.04,1214.46C3669.7,1216.84 3670.53,1219.74 3670.53,1223.15C3670.53,1226.13 3669.89,1228.7 3668.63,1230.86C3667.36,1233.02 3665.61,1234.77 3663.39,1236.12C3661.97,1236.97 3660.03,1237.68 3657.57,1238.24C3659.54,1238.9 3660.98,1239.56 3661.89,1240.22C3662.5,1240.66 3663.38,1241.6 3664.54,1243.04C3665.7,1244.48 3666.48,1245.59 3666.87,1246.37L3674.89,1261.93L3656.14,1261.93L3647.28,1245.53C3646.15,1243.4 3645.15,1242.03 3644.27,1241.39C3643.08,1240.56 3641.72,1240.14 3640.21,1240.14L3638.74,1240.14L3638.74,1261.93L3622.08,1261.93ZM3638.74,1230L3645.74,1230C3646.49,1230 3647.96,1229.76 3650.13,1229.27C3651.23,1229.05 3652.13,1228.49 3652.82,1227.58C3653.52,1226.68 3653.87,1225.64 3653.87,1224.47C3653.87,1222.74 3653.32,1221.41 3652.22,1220.48C3651.12,1219.55 3649.06,1219.09 3646.03,1219.09L3638.74,1219.09L3638.74,1230Z" style="fill:rgb(12,47,101);fill-rule:nonzero;"/>
                    <rect x="3680.86" y="1208.25" width="16.626" height="53.687" style="fill:rgb(12,47,101);fill-rule:nonzero;"/>
                    <path d="M3707.3,1235.13C3707.3,1226.36 3709.74,1219.54 3714.62,1214.66C3719.51,1209.77 3726.3,1207.33 3735.02,1207.33C3743.96,1207.33 3750.84,1209.73 3755.67,1214.53C3760.51,1219.33 3762.93,1226.05 3762.93,1234.69C3762.93,1240.96 3761.87,1246.11 3759.76,1250.12C3757.65,1254.14 3754.59,1257.27 3750.6,1259.5C3746.61,1261.73 3741.64,1262.85 3735.68,1262.85C3729.62,1262.85 3724.61,1261.89 3720.65,1259.96C3716.68,1258.03 3713.46,1254.98 3711,1250.8C3708.53,1246.63 3707.3,1241.4 3707.3,1235.13ZM3723.89,1235.2C3723.89,1240.62 3724.89,1244.52 3726.91,1246.88C3728.92,1249.25 3731.66,1250.44 3735.13,1250.44C3738.69,1250.44 3741.45,1249.28 3743.41,1246.96C3745.36,1244.64 3746.34,1240.48 3746.34,1234.47C3746.34,1229.41 3745.32,1225.72 3743.28,1223.39C3741.24,1221.06 3738.47,1219.89 3734.98,1219.89C3731.64,1219.89 3728.95,1221.08 3726.93,1223.45C3724.9,1225.81 3723.89,1229.73 3723.89,1235.2Z" style="fill:rgb(12,47,101);fill-rule:nonzero;"/>
                </g>
            </g>
            <g transform="matrix(1.85243,0,0,1.85243,-2871.69,-1143.42)">
                <g transform="matrix(1,0,0,1,2273.88,1244.47)">
                    <path d="M524,115L524,225.3C524,287.2 524.5,339.8 525,345.3C529.1,387.3 546.2,406.1 580.4,406C606.4,405.9 622.3,394.8 630.2,371.2C635.9,354.2 636,353 636,228.8L636,115L740.1,115L739.7,234.2C739.4,352.5 739.4,353.6 737.2,363.3C732.5,384.3 723,406.9 713.1,420.5C707.2,428.5 691.9,443.6 684.7,448.3C665.7,460.9 644,469.4 619.6,473.6C606.9,475.9 561.3,476.4 547.5,474.5C506.5,468.9 473.8,452.6 452.8,427.2L448,421.5L448,115L524,115Z" style="fill:rgb(12,47,101);stroke:rgb(12,47,101);stroke-width:0.75px;"/>
                </g>
                <g transform="matrix(1,0,0,1,2273.88,1244.47)">
                    <path d="M278.363,107.161C296.085,107.209 314.753,108.994 331.7,112.5C335.7,113.3 339.2,114 339.5,114C339.8,114 340,127.5 340,144.1C340,172.2 339.9,174.1 338.3,173.6C334.2,172.4 317.8,169.1 309.5,167.8C304.3,167.1 292.4,166.5 281.5,166.5C264.1,166.5 262,166.7 256.8,168.8C230.7,179.3 210.4,210.5 204.2,250C200.6,272.5 203,299.1 210.6,320C213.2,327.4 213.8,328.5 218.8,336.5C225,346.2 237.3,356.6 248,361.2C263.8,368 294,367.5 320.1,360C333.3,356.2 334.5,355.8 337.3,354.4L340,352.9L340,416.8L337.3,417.3C335.7,417.6 330,418.8 324.5,419.9C319,421.1 310,422.7 304.5,423.5C290.9,425.4 269.9,426 256,425C215.7,421.8 180.9,407.1 156.9,382.9C130,355.9 114.9,318.2 113.3,274C112.1,241.3 118.7,213.7 134.8,184.5C145.5,164.9 165.8,143.5 184.8,131.6C198.7,122.9 219.3,114.6 235.5,111.1C247.623,108.473 262.231,107.163 277.582,107.16L278.363,107.161Z" style="fill:rgb(12,47,101);stroke:rgb(12,47,101);stroke-width:0.75px;"/>
                </g>
                <g transform="matrix(1,0,0,1,2273.88,1244.47)">
                    <path d="M437,185L437,187.3C437,188.5 437.1,240.9 437.3,303.7L437.5,418L349,418L349,185L437,185Z" style="fill:rgb(12,47,101);stroke:rgb(12,47,101);stroke-width:0.75px;"/>
                </g>
                <g transform="matrix(1,0,0,1,2273.88,1244.47)">
                    <path d="M437.1,144.5L437.1,115.5L393,115.2L349,115L349,174L393.1,173.8L437.2,173.5L437.1,144.5Z" style="fill:rgb(12,47,101);stroke:rgb(12,47,101);stroke-width:0.75px;"/>
                </g>
            </g>
        </g>
    </g>
</svg>
