<?xml version="1.0" encoding="UTF-8" standalone="no"?>
<!DOCTYPE svg PUBLIC "-//W3C//DTD SVG 1.1//EN" "http://www.w3.org/Graphics/SVG/1.1/DTD/svg11.dtd">
<svg width="100%" height="100%" viewBox="0 0 1440 544" version="1.1" xmlns="http://www.w3.org/2000/svg" xmlns:xlink="http://www.w3.org/1999/xlink" xml:space="preserve" xmlns:serif="http://www.serif.com/" style="fill-rule:evenodd;clip-rule:evenodd;stroke-linejoin:round;stroke-miterlimit:1.41421;">
    <g transform="matrix(1,0,0,1,-1034.31,-426.262)">
        <g transform="matrix(1,0,0,1,273.4,-662.195)">
            <path d="M1023.36,1552.02C974.566,1547.46 969.503,1494.53 986.371,1473.75C1003.31,1452.88 1027.64,1455.73 1037.12,1470.52C1049.69,1490.14 1042.3,1517.74 1041.42,1550.04C1035.55,1551.19 1029.52,1551.83 1023.36,1552.02ZM995.638,1549.63C945.482,1538.63 907.865,1488.79 907.865,1363.79C907.865,1231.18 957.826,1175.51 1019.36,1175.51C1080.9,1175.51 1130.86,1218.17 1130.86,1363.79C1130.86,1454.23 1111.59,1504.96 1082.25,1530.42C1079.28,1512.43 1074.08,1492.77 1061.4,1473.66C1052.66,1460.49 1031.24,1451.37 1012.31,1451.97C998.99,1452.4 987.394,1458.86 981.158,1466.14C958.712,1492.35 963.732,1531.48 995.638,1549.63Z" style="fill:rgb(176,30,45);"/>
            <path d="M1060.99,1628.28C1047.82,1630.44 1034.32,1631.56 1020.57,1631.56C877.258,1631.56 760.905,1509.88 760.905,1360.01C760.905,1210.13 877.258,1088.46 1020.57,1088.46C1163.89,1088.46 1280.24,1210.13 1280.24,1360.01C1280.24,1449.9 1238.38,1529.65 1173.95,1579.09C1176.09,1562.09 1177.28,1554.12 1175.9,1530.8C1175.7,1527.51 1173.58,1527.52 1173.15,1530.99C1170.08,1555.65 1163.61,1584.26 1149.71,1593.43C1145.23,1596.39 1138.01,1600.09 1132.91,1600.57C1091.01,1604.47 1088.78,1581.03 1084.68,1547.93C1146.99,1518.37 1190.93,1447.36 1190.93,1364.54C1190.93,1255.23 1114.38,1166.49 1020.09,1166.49C925.804,1166.49 849.252,1255.23 849.252,1364.54C849.252,1473.85 925.804,1562.59 1020.09,1562.59C1027.31,1562.59 1034.42,1562.07 1041.41,1561.06C1041.98,1582.03 1046.31,1604.7 1060.99,1628.28Z" style="fill:rgb(176,30,45);"/>
        </g>
        <g transform="matrix(1,0,0,1,954.752,308.759)">
            <path d="M1016.2,588.8C1021.7,586.4 1029,579 1032.2,572.6C1033.4,570.1 1034.8,568 1035.3,568C1035.8,568 1036,573.2 1035.8,579.6L1035.5,591.2L1042,590.6C1045.6,590.3 1052.2,590 1056.8,590C1065.6,590 1067.7,588.6 1060.8,587.5C1055.5,586.6 1051.4,584.6 1050.6,582.5C1050.3,581.6 1050,565.3 1050,546.3L1050,511.8L1044.3,512.4C1041.1,512.7 1034.1,513.2 1028.8,513.6C1018.2,514.3 1016.7,515.5 1025.5,516.2C1033.7,516.9 1034.9,518.5 1035.6,529.5C1036.4,541.7 1034.6,560.2 1032,567.3C1027.9,578.1 1019.3,586.6 1011.2,587.7C1005.1,588.5 1001.5,586.6 998.8,581.1C996.6,576.6 996.5,575.5 996.2,544.5L995.9,512.5L991.2,512.7C966.3,513.8 958.5,515.2 971.9,516.2C982.1,516.9 981.7,515.7 982.1,547.3L982.5,574.5L985.2,580C990.8,591.2 1002.7,594.6 1016.2,588.8Z"/>
            <path d="M1448.5,589.2C1457.3,585.8 1464.2,577.9 1465.4,569.7C1466.4,563.3 1463.8,556 1459.2,551.8C1455.5,548.4 1451.7,546.7 1432.6,539.9C1421.7,536 1417,532.2 1417,527.3C1417,519.3 1423.5,514 1433.2,514C1439.9,514 1445.5,516.6 1450.1,521.7C1453.5,525.4 1458,535.1 1458,538.5C1458,539.3 1458.5,540 1459,540C1459.6,540 1460,534.8 1460,526.5C1460,519.1 1459.6,513 1459.2,513C1458.7,513 1457.8,514.1 1457.2,515.5C1455.8,518.6 1455,518.6 1448.3,515.3C1437.4,510 1422.5,511.2 1413.9,518.1C1407,523.5 1404,534.2 1407.4,540.8C1410.8,547.3 1415.7,550.3 1432.7,556.1C1446.3,560.8 1448.7,562 1451.8,565.3C1457.4,571.3 1454.5,582.3 1446,587C1436.7,592.1 1423.4,589 1416.2,580.1C1412.9,576 1407.9,566.5 1406.1,560.8C1405.4,558.7 1404.4,557 1403.9,557C1403.4,557 1403,564.3 1403,574.1C1403,586.8 1403.3,591.1 1404.2,590.8C1404.8,590.6 1405.8,589 1406.4,587.2C1408.3,581.7 1409.4,581.4 1414.7,584.8C1425.8,591.9 1437.6,593.5 1448.5,589.2Z"/>
            <path d="M1219,589C1219,588.5 1216.9,587.8 1214.3,587.4C1211,586.9 1208.7,585.8 1206.7,583.8L1203.8,580.9L1204.3,562.2C1204.8,541.6 1205.6,537.3 1211.2,528C1219.5,514.2 1238.7,511.7 1242,524C1242.7,526.6 1243,537.6 1242.8,554.9C1242.5,586 1242.7,585.2 1232.9,587.2C1229.7,587.8 1227.3,588.7 1227.6,589.2C1227.9,589.6 1238,590 1250,590C1262,590 1272.1,589.6 1272.4,589.2C1272.7,588.7 1270.2,587.8 1267,587.2C1262.6,586.3 1260.5,585.2 1258.9,583.2C1256.9,580.6 1256.8,579.8 1257.3,561.5C1257.8,540.8 1259.3,533.4 1264.5,525.8C1269.5,518.4 1282.5,513.9 1289.9,516.9C1295.1,519.1 1295.5,521.6 1295.5,553.1C1295.5,586.3 1295.8,585.1 1285.9,587.1C1282.6,587.7 1280,588.7 1280,589.1C1280,590.2 1324.7,590.3 1325.4,589.2C1325.7,588.7 1323.2,587.8 1320,587.2C1309.9,585.1 1310,585.3 1310,555.1C1310,539.5 1309.6,527.9 1308.9,525.5C1307.5,520.4 1301.6,514.5 1296.5,513.1C1289.6,511.2 1280.1,511.7 1274.5,514.4C1268.3,517.2 1261.9,524.1 1259.5,530.3C1258.5,532.9 1257.4,535 1257.1,535C1256.7,535 1255.9,532.3 1255.3,528.9C1253.1,517.6 1246.2,512.1 1233.9,512C1228.9,512 1226.2,512.6 1222.2,514.6C1215.7,517.8 1208.7,525.5 1206.1,532.3L1204.1,537.5L1204.1,524.7L1204,511.9L1199.8,512.4C1197.4,512.7 1190.7,513.2 1184.8,513.6C1178.8,513.9 1174,514.6 1174,515.1C1174,515.6 1175.8,516 1178,516C1184.6,516 1188.8,518.3 1189.5,522.2C1189.8,524 1190,538.2 1189.8,553.6C1189.5,586.2 1189.8,585.1 1179.9,587.2C1176.7,587.8 1174.3,588.8 1174.6,589.2C1175.3,590.3 1219,590.1 1219,589Z"/>
            <path d="M1116,589.2C1116,588.7 1113.5,587.8 1110.5,587.1C1100.7,584.9 1101,586.3 1101,546.4L1101,512L1093.3,512.5C1074.6,513.8 1071,514.2 1071,515.1C1071,515.6 1072.8,516 1075,516C1081.6,516 1085.8,518.3 1086.5,522.2C1086.8,524 1087,538.2 1086.8,553.6C1086.5,586.2 1086.8,585.1 1076.9,587.2C1073.7,587.8 1071.3,588.7 1071.6,589.2C1072.3,590.3 1116,590.2 1116,589.2Z"/>
            <path d="M1168.4,589.2C1168.7,588.7 1166.3,587.8 1163.1,587.2C1152.8,585.1 1153.5,589.4 1153.2,530.3L1152.9,478.8L1147.2,479.4C1144.1,479.7 1137.3,480.2 1132.3,480.6C1122.1,481.3 1120.9,482.5 1129.6,483.2C1139.6,484 1139,480.9 1139,534.7L1139,581.2L1136.2,584C1134.2,586 1132,587 1128.2,587.5C1125.3,587.9 1123.3,588.6 1123.6,589.1C1124.3,590.2 1167.7,590.3 1168.4,589.2Z"/>
            <path d="M1100.1,496.1C1105.9,490.3 1101.9,482 1093.4,482C1089.8,482 1086,486.2 1086,490.2C1086.1,498.2 1094.5,501.7 1100.1,496.1Z"/>
            <path d="M751.2,408.8C751.5,367 751.7,361.1 753.2,358.5C755.9,353.4 760,350.1 765.6,348.3C768.6,347.4 771,346.3 771,345.8C771,345.4 760.9,345 748.5,345C727.4,345 720.4,345.9 730.3,347.4C735.9,348.3 742,351.8 744.1,355.5C747.2,360.8 748.1,371.3 747.8,401.5L747.5,430.5L742.5,423.4C739.8,419.5 726.5,400.3 713,380.7L688.5,345.1L674.3,345C665.4,345 660,345.4 660,346C660,346.6 661.1,347 662.5,347C666.5,347 673.8,350.9 677.1,354.9L680.2,358.5L679.7,395.5C679.3,420 678.7,434 677.9,436.9C676.3,442.8 669.8,449.5 664.3,450.9C655.6,453.2 659.9,454 681.5,454C694.1,454 703,453.6 703,453.1C703,452.6 700.6,451.4 697.7,450.6C691.2,448.7 685.5,443.5 684,438.1C683.4,435.6 683.1,421.1 683.2,398.6L683.5,363L713,405.7C749.8,458.8 747.7,456 749.5,456C750.7,456 751,449.2 751.2,408.8Z"/>
            <path d="M903.6,453.1C912,449.3 918.1,441.9 919.5,433.5C919.9,431.3 920.4,428.7 920.7,427.8C921,426.6 920.6,426 919.6,426C918.6,426 918,426.9 918,428.5C918,432.2 914.2,441.7 911.2,445.2C905.3,452.2 889.8,455.5 881.7,451.4C871.7,446.3 868.5,437.8 868.5,415.5C868.5,399.3 869.8,392.6 874.2,385.9C880.5,376.5 899.1,375 907.5,383.4C910.9,386.8 910.7,390.1 906.9,392.9C904.2,394.9 903.9,395.6 904.2,399.7C904.6,405.5 908,408.6 912.9,407.5C919.2,406.1 921.2,397.3 917.2,389.4C914.7,384.6 911.9,381.9 906,378.8C902.2,376.8 900,376.5 891.5,376.5C882.6,376.5 880.9,376.8 875.8,379.3C853.5,390.2 845.3,417.1 858.2,437.2C868,452.7 888.3,459.8 903.6,453.1Z"/>
            <path d="M1286,453C1286,452.5 1285.2,452 1284.3,452C1280.8,452 1274.8,449.8 1272.9,447.9C1271.1,446.1 1271,444.1 1271,394.4L1271,342.8L1265.3,343.4C1262.1,343.7 1255.3,344.2 1250.3,344.6C1245.2,344.9 1241,345.6 1241,346C1241,346.4 1243.5,347 1246.6,347.2C1250.5,347.5 1252.7,348.3 1254.3,349.9L1256.5,352.1L1256.5,398.3C1256.5,452.2 1257.1,449.1 1247,451.2C1243.7,451.8 1241,452.8 1241,453.2C1241,453.6 1251.1,454 1263.5,454C1277.8,454 1286,453.6 1286,453Z"/>
            <path d="M1100.4,453.1C1100.7,452.6 1098.7,451.9 1095.9,451.6C1092.1,451.1 1090,450.1 1087.9,448L1085,445.2L1085,430.3C1085,413.6 1085.8,407.1 1089,398.6C1093.2,387.6 1103,380 1113.3,380C1117.3,380 1118.7,380.5 1121,382.8C1124.7,386.6 1125.2,391.9 1124.8,422.3L1124.5,446.2L1121.7,448.6C1120,450 1117,451.2 1114,451.6C1103.4,453 1111.1,454 1132.6,454C1154.1,454 1161,453 1149.9,451.5C1146.9,451.1 1143.8,449.9 1142.2,448.5L1139.5,446.2L1139,417.8C1138.4,386.5 1138.3,385.5 1131.8,380.7C1126.8,377 1121.6,375.7 1114,376.2C1102.6,377 1093.1,383.8 1087.7,395L1085.5,399.5L1085.2,387.7L1084.9,375.8L1080.2,376.4C1077.6,376.7 1070.9,377.2 1065.3,377.6C1059.6,377.9 1055,378.6 1055,379.1C1055,379.6 1056.7,380 1058.9,380C1064.5,380 1069,381.9 1070.1,384.7C1070.6,386 1071,400.2 1071,416.1L1071,445.2L1068.1,448C1066,450.1 1063.9,451.1 1060.1,451.6C1049.5,453 1056.9,454 1078,454C1090,454 1100.1,453.6 1100.4,453.1Z"/>
            <path d="M974,453.2C974,452.8 971.4,451.9 968.1,451.2C958,449.1 958.5,451.1 958.2,410.9L957.9,376L952.2,376.5C949.1,376.8 942.6,377.2 937.8,377.6C932.9,377.9 929,378.5 929,379C929,379.4 931.5,380 934.7,380.2C944.2,381 944,380.2 944,414.6C944,433.9 943.6,444.7 942.9,446.3C941.6,449.2 938.4,450.9 932.4,451.7C930,452 928.3,452.7 928.6,453.1C929.3,454.2 974,454.3 974,453.2Z"/>
            <path d="M958.3,359.9C959.2,358.7 960,356.3 960,354.5C960,350.1 957.3,347.1 952.8,346.3C949.6,345.8 948.7,346.2 946,348.8C944.2,350.7 943,352.9 943,354.5C943,356.1 944.2,358.3 946,360.2C948.7,362.8 949.6,363.2 952.8,362.7C954.8,362.3 957.3,361.1 958.3,359.9Z"/>
            <path d="M1185.4,316.7C1199,310.4 1204.6,296.5 1198.3,284.4C1195.2,278.2 1191.6,276.4 1166.5,267.5C1161.3,265.6 1157.3,263.5 1155.1,261.3C1152.1,258.3 1151.8,257.5 1152.3,253.9C1153.7,243.4 1167,238.7 1178.7,244.5C1185.1,247.7 1188.7,252.4 1192.2,262L1194.9,269.5L1194.9,255C1194.9,242.2 1194.8,240.7 1193.5,242.4C1192.7,243.4 1191.9,244.8 1191.7,245.4C1191.4,246.2 1190.3,246.1 1187.9,245.1C1174,239.5 1167.6,238.7 1158.1,241.6C1147.8,244.6 1139.8,255.7 1141.4,264.4C1143,272.8 1149.6,278.1 1164.9,283.1C1179.2,287.8 1186.7,291.6 1188.5,295C1194.5,306.6 1182.6,319.7 1168.1,317.5C1156.9,315.8 1148.4,307.3 1143,292.5C1141.7,289.2 1140.4,286.1 1139.9,285.6C1139.4,285 1139,291.9 1139,301.8C1139,311.3 1139.4,319 1139.8,319C1140.3,319 1141.3,317.2 1142,314.9C1142.8,312.6 1143.9,310.6 1144.6,310.3C1145.3,310.1 1148.2,311.4 1151.2,313.4C1161.6,320.3 1174.7,321.6 1185.4,316.7Z"/>
            <path d="M734.3,317C741,314.5 747.4,308.5 750.3,302.2C752.3,297.8 752.5,295.3 753,262.5C753.6,228.8 753.7,227.3 756,222.2C758.6,216.2 761.7,213.6 768.4,211.8C770.9,211.1 773,210.2 773,209.8C773,209.4 763.3,209 751.5,209C731.5,209 724.7,209.9 733.8,211.4C738.2,212.1 743.5,215.3 746.1,219C749.3,223.4 750.2,234.2 749.8,266.2C749.5,300 749.3,301 742.3,308.2C736.6,314 730.2,316.3 719.4,316.3C711.5,316.4 709.5,316 704.7,313.6C698.2,310.5 693.6,305.6 691.9,300.3C690.5,295.8 689.5,226.8 690.7,220.1C691.8,214.3 694.9,212 702.8,211.3C706.2,211 709,210.3 709,209.9C709,209.4 697.5,209 683.5,209C667.2,209 658,209.4 658,210C658,210.6 659.5,211 661.3,211C666.2,211 671.5,212.8 673.6,215.1C675.4,217.1 675.5,219.7 676,257.9C676.5,297.4 676.6,298.6 678.7,302.6C683.1,310.8 692.7,316.7 705.3,319C713.3,320.4 727.8,319.4 734.3,317Z"/>
            <path d="M958,313.3C969.9,284.2 980.6,258.7 982.6,254.9C985.5,249 990.1,245.2 995.1,244.4C1003.5,243 998.3,242 983,242C973,242 967,242.4 967,243C967,243.6 968.1,244 969.5,244C975.7,244 978.5,247.3 978.1,254C978,257 963.1,296.1 959.5,303L958.2,305.5L957.2,303C956.7,301.6 952.5,291.3 948,280C936.6,251.7 935.9,249.5 937.3,247.6C938.7,245.8 943.2,244 946.6,244C947.9,244 949,243.6 949,243C949,242.4 941.5,242 928.5,242C917.2,242 908,242.4 908,242.9C908,243.3 909.8,244 912.1,244.3C919.7,245.3 919.8,245.5 937,288.3L949.3,319L952.5,319C955.4,319 955.8,318.5 958,313.3Z"/>
            <path d="M811,317.2C811,316.8 808.3,315.8 805,315.2C795.9,313.3 795.5,312.3 795.6,292C795.7,273.8 797,266.4 801.7,257.8C809.5,243.5 830.6,238.9 833.9,250.8C834.6,252.9 835,266.1 835,282.3C835,308.4 834.9,310.1 833.1,311.9C831.2,313.8 825.2,316 821.8,316C820.8,316 820,316.5 820,317C820,317.6 828.2,318 842.5,318C854.9,318 865,317.6 865,317.2C865,316.8 862.3,315.8 859,315.2C849.4,313.2 849.6,313.8 848.9,280C848.6,264.3 848.3,251.4 848.2,251.3C845.5,247.2 840,242.8 835.8,241.4C821.8,236.8 805.1,244.4 798.8,258.2C797.6,260.8 796.3,263 795.8,263C795.4,263 795,257.8 795,251.4L795,239.8L792.3,240.4C790.7,240.7 784,241.2 777.3,241.6C770.5,241.9 765,242.6 765,243C765,243.4 767.8,244 771.2,244.3C781.4,245.2 781,243.9 781,279.4C781,314.5 781.3,313.2 772,315.2C768.7,315.8 766,316.8 766,317.2C766,317.6 776.1,318 788.5,318C800.9,318 811,317.6 811,317.2Z"/>
            <path d="M898.5,310.2L901.2,312.5C902.8,313.9 905.9,315.1 908.9,315.5C911.7,315.9 914,316.6 914,317.1C914,318.3 869.3,318.3 868.6,317.1C868.3,316.7 870,316 872.4,315.7C878.4,314.9 881.6,313.2 882.9,310.3C884.3,307.2 884.4,250.7 883,248C881.9,245.9 877,244 872.4,244C870.6,244 868.9,243.6 868.6,243.1C868.2,242.6 872.8,241.9 878.8,241.6C884.7,241.2 891.4,240.8 893.7,240.5L897.9,240L898.5,310.2Z"/>
            <path d="M1111,317.1C1111,316.7 1109,316 1106.5,315.7C1099.3,314.7 1096.2,312.6 1094.9,307.7C1093.2,301.5 1094.4,269.2 1096.5,262C1100.2,249.8 1106.7,243 1114.7,243C1120.1,243 1120.8,244.3 1117.6,248.1C1114.2,252.1 1114.3,255.5 1117.9,259.1C1126.4,267.6 1137,255.8 1130.3,245.3C1127.3,240.7 1115.5,238.5 1108.7,241.4C1104.5,243.1 1099.4,248.4 1097.3,253.2C1096.4,255.3 1095.3,257 1094.8,257C1094.4,257 1094,253.1 1094,248.4C1094,240 1094,239.8 1091.8,240.3C1090.5,240.6 1083.5,241.2 1076.3,241.6C1069,241.9 1063,242.6 1063,243.1C1063,243.6 1065,244 1067.4,244C1072.9,244 1077.8,245.7 1079,248C1079.6,249.1 1080,262.2 1080,279.9C1080,308.3 1079.9,310.1 1078.1,311.9C1076.2,313.8 1070.2,316 1066.8,316C1065.8,316 1065,316.5 1065,317C1065,317.6 1073.3,318 1088,318C1100.7,318 1111,317.6 1111,317.1Z"/>
            <path d="M1254,317C1254,316.5 1253.2,316 1252.3,316C1249.4,316 1243.6,314.1 1241.5,312.6C1239.6,311.2 1239.5,309.4 1239,275.8L1238.5,240.5L1234.5,240.7C1215.8,241.7 1209,242.3 1209,243C1209,243.4 1211.6,244 1214.7,244.3C1224.8,245.4 1224.5,244.2 1224.5,278.8C1224.5,314 1224.7,313.2 1215,315.2C1211.7,315.8 1209,316.8 1209,317.2C1209,317.6 1219.1,318 1231.5,318C1245.8,318 1254,317.6 1254,317Z"/>
            <path d="M897.4,224.5C900,222.1 900.8,218.2 899.4,214.5C898.6,212.6 893.9,210 891,210C887.9,210 883,215.3 883,218.5C883,222.2 888,227 891.8,227C893.5,227 895.8,226 897.4,224.5Z"/>
            <path d="M1237.6,224.6C1243.8,219.3 1239.2,209.1 1231.1,210.4C1226.3,211.2 1223.8,213.9 1223.8,218.6C1223.8,226 1232,229.5 1237.6,224.6Z"/>
            <path d="M1329,309.2L1331.8,312C1333.8,313.9 1336.2,315.1 1339.3,315.5C1346,316.5 1345.1,318 1337.8,318C1334.3,318 1327.8,318.3 1323.3,318.7L1315,319.3L1315,311.1C1315,302.7 1314.1,301 1312.1,305.8C1310.5,309.7 1304.7,315.4 1300.4,317.5C1298.5,318.4 1294.5,319.3 1291.7,319.6C1274.7,320.9 1259.4,307 1256,287C1253,269.5 1262.6,250.2 1277.8,243.2C1284.3,240.2 1292.7,239.3 1298.7,240.9C1303.6,242.2 1310.4,248.7 1312,253.6C1314.5,261.1 1315.2,257 1314.8,236.5C1314.4,212.5 1314.4,212.3 1304.7,211.3C1301.6,211 1299,210.4 1299,210C1299,209.6 1303.4,208.9 1308.8,208.6C1314.1,208.2 1320.9,207.7 1323.8,207.3L1329,206.8L1329,309.2ZM1285.5,316.6C1281.1,314.7 1276.5,309 1274.4,302.8C1271.7,295.2 1271.7,266.2 1274.3,257.8C1278.4,244.5 1290.1,238.4 1301,244C1308.2,247.6 1312.2,256.4 1314,272.1C1315.2,282.9 1314.6,290.8 1311.9,300.3C1308,313.7 1296,321.2 1285.5,316.6Z"/>
            <path d="M1380,317.5C1386.2,314.4 1390,311 1392.9,305.8L1395.8,300.8L1396.5,306.2C1396.9,309.1 1397.9,312.8 1398.7,314.3C1400.6,318.1 1406.2,320.4 1411.8,319.7C1419.8,318.8 1424.2,313.5 1425.6,303.3C1426.6,295.8 1424.5,296.5 1423.1,304.1C1421.8,311.5 1419.9,314.7 1416.3,315.6C1414.3,316.1 1413.2,315.8 1411.8,314C1410.2,312 1410,309.5 1410,285.5C1410,268.6 1409.6,258.1 1408.9,255.9C1406.9,250.2 1403,245.9 1397.1,243.1C1392.1,240.8 1390.3,240.5 1380.5,240.5C1370.5,240.5 1369,240.8 1363.7,243.4C1356.3,247 1352,252.5 1352,258.4C1352.1,264.8 1356.4,268.7 1362.1,267.5C1368.3,266.1 1369.9,259.2 1365,254.5C1361.2,250.9 1361.2,249.8 1365,246.6C1370.5,242 1382,240.5 1388.4,243.5C1393.8,246.1 1395.3,250 1395.8,262.5L1396.2,273.6L1383.4,276.3C1362.6,280.6 1351.6,287.2 1349,297.1C1346.3,306.9 1351.4,315.9 1361.1,318.9C1365.8,320.3 1375.9,319.6 1380,317.5ZM1369,314C1365.9,310.9 1364.8,307.2 1364.8,300.3C1364.7,288.1 1371.3,280.7 1385,277.6C1397,274.8 1396.4,274.3 1395.8,286.8C1395.2,298.3 1393.8,302.5 1388.4,308.9C1382.9,315.5 1373.1,318.1 1369,314Z"/>
            <path d="M707.5,588.1C711.1,586.1 713.3,583.9 715.5,580.2C717.2,577.4 718.8,575.1 719.3,575C719.7,575 720,578.6 720,582.9L720,590.9L734.3,590.3C742.1,590 748.8,589.4 749.2,589.1C749.7,588.7 747.4,587.9 744.1,587.2C733.8,585 734.5,589.4 734.2,530.3L733.9,478.8L727.2,479.4C723.5,479.7 716.8,480.2 712.3,480.6C703.9,481.2 700.7,483 707.9,483C713.5,483 718,484.9 719.1,487.7C720.3,490.9 720.3,528 719.1,528C718.6,528 717.9,527.1 717.5,526.1C716.1,521.7 710.7,515.8 706.3,513.8C702.6,512.2 700.2,511.9 694.6,512.2C681.7,513.1 671.2,520.7 664.8,533.8C661.6,540.2 661.5,541 661.5,552C661.5,562.5 661.7,564 664.3,569.4C673.3,588.6 692,596.7 707.5,588.1ZM691.7,588.6C684.6,586 681.2,581 678.4,569.3C676.4,560.7 677,538.1 679.4,530.4C682.8,519.4 688.9,514 697.7,514C706.4,514 711,517.4 715.4,527C720.2,537.6 721.2,559.4 717.5,571.7C715.7,577.8 710.7,584.7 706.5,587.1C702.1,589.6 696.1,590.2 691.7,588.6Z"/>
            <path d="M803,588.9C809.4,586.1 815.6,579.6 818,573.2C820.5,566.6 820.7,563.2 818.5,565C817.7,565.7 817,567 817,567.9C817,571.4 812.1,579.8 808.1,583.2C802.8,587.7 797.1,589.3 787.7,588.9C778,588.4 774.1,585.8 769.8,577.2C766.9,571.3 766.7,570.1 766.6,559.7L766.5,548.5L793.4,548.2L820.3,548L819.7,541.3C818.8,532.5 815.2,525.3 808.8,519.5C792.5,504.8 765.3,512.5 754.7,534.8C751.7,541.1 751.5,542.2 751.5,552.5C751.5,562.6 751.7,564 754.4,569.5C763.3,587.6 785.6,596.5 803,588.9ZM783.9,546C793.9,546 801.9,545.6 803.1,545C804.7,544.1 805,542.8 805,535.7C805,522.5 800.2,515.3 790.7,514.3C776.8,512.7 769,520.9 767.4,539L766.7,546L783.9,546Z"/>
            <path d="M1377.2,588.8C1383.8,586 1390.4,578.7 1392.6,571.7C1393.6,568.6 1394.1,565.7 1393.7,565.4C1392.8,564.4 1391,566 1391,567.8C1391,571.3 1386.1,579.8 1382.1,583.2C1376.8,587.7 1371.1,589.3 1361.7,588.9C1352,588.4 1348.1,585.8 1343.8,577.2C1340.9,571.3 1340.7,570.1 1340.6,559.7L1340.5,548.5L1367.3,548.2L1394,548L1394,544.2C1394,542.2 1393.4,538.1 1392.6,535.3C1386,510.6 1355.9,504 1336.7,523.2C1320.4,539.5 1321.3,568.4 1338.5,582.5C1349.5,591.5 1365,594.1 1377.2,588.8ZM1358.2,546C1371.1,546 1376.1,545.7 1377.4,544.7C1378.9,543.6 1379.2,542 1379.2,535.5C1379,522.6 1374.1,515.3 1364.7,514.3C1350.8,512.7 1343,520.9 1341.4,539L1340.7,546L1358.2,546Z"/>
            <path d="M802.3,453.4C808.2,450.4 812,446.9 814.9,441.9L817.8,436.8L818.9,443.1C820.3,451.1 822,453.7 827.1,455C838.7,458.1 848,450.2 848,437.3C848,432.1 846.3,433.5 845.6,439.2C844.3,448.4 839.9,453.6 835.3,451.1C832.3,449.6 832,446.3 832,419.6C832,405.9 831.5,393.9 830.9,391.7C828.5,382.9 819.3,377.2 806,376.3C796.2,375.6 788.8,377.2 782.4,381.4C774.2,386.8 771.6,395.1 776.4,400.6C778.1,402.7 779.7,403.4 782.3,403.4C790,403.4 792.8,395.5 787,390.3C783.4,387.1 783.3,386 786.3,383.2C789.8,379.9 795.4,378 802,378C814.3,378 817.9,382.9 818,399.6L818,409.7L805.3,412.3C784.1,416.6 773.1,423.7 771.2,434C769.3,444.3 774.5,452.5 784.5,455.1C788.8,456.3 798.5,455.3 802.3,453.4ZM792.2,450.4C788.6,447.9 787,443.6 787,436.8C787.1,422.4 795.3,414.8 813.2,412.4L818.2,411.7L817.8,422.6C817.5,431.5 817,434.3 815.1,438C809.4,449.1 798.7,454.9 792.2,450.4Z"/>
            <path d="M1026.4,453.3C1048.2,444.8 1058.6,418.9 1048.4,398.8C1045.4,393 1038.1,384.7 1033,381.5C1022.8,375.1 1009.1,374.3 998.3,379.5C985.7,385.7 976.5,399.1 975.3,412.8C974,428.2 983.1,444.2 997.5,451.8C1005.6,456.1 1017.7,456.7 1026.4,453.3ZM1007,452.8C998.6,450.4 993.8,443 992.1,429.7C989,407.3 992.8,388.1 1001.5,381.4C1009,375.7 1024.1,377.3 1029.5,384.4C1034.1,390.4 1035.2,395.5 1035.8,411.8C1036.3,428.1 1035.2,436.6 1031.9,443.1C1027.4,452 1017.5,455.8 1007,452.8Z"/>
            <path d="M1191.5,453.6C1196,451.7 1204.7,443 1205.6,439.5C1206.5,436 1208,438.1 1208,442.8C1208,447.1 1210.7,452.7 1213.3,454.2C1216.2,455.7 1224.9,455.7 1228.6,454.2C1232.6,452.5 1236,446.4 1236.7,439.5C1237.5,431.7 1235.6,432.6 1234.3,440.8C1233.4,445.9 1232.5,448 1230.5,449.8C1227.5,452.4 1226.1,452.5 1223.4,450.6C1221.6,449.3 1221.5,447.4 1221,420.3C1220.4,388.3 1220.4,387.9 1213.4,382.2C1205.4,375.6 1186.4,374 1175.7,379C1164.4,384.3 1159.7,394.1 1165.4,400.6C1167.1,402.7 1168.7,403.4 1171.3,403.4C1179.2,403.4 1182,394.9 1175.8,389.9C1172.6,387.3 1172.6,387.2 1174.4,384.5C1178.6,378.1 1194.2,375.6 1201,380.3C1205.5,383.3 1206.8,387.6 1206.9,399.6L1207,409.7L1194.5,412.3C1179.8,415.3 1170.2,419.4 1164.9,425C1155.3,435.1 1159.8,451.7 1173.1,455.1C1177.6,456.2 1187.1,455.4 1191.5,453.6ZM1181.1,450.4C1177.8,448.1 1176,443 1176,436.3C1176.1,422.7 1184.8,414.7 1202.3,412.4L1207,411.7L1207,421.2C1207,432.4 1205.3,438.1 1200.3,443.9C1194.1,451.2 1186.1,453.9 1181.1,450.4Z"/>
            <path d="M1042.2,317.2C1050.7,313.4 1056.9,306.1 1058.8,297.3C1059.6,293.9 1059.5,293 1058.5,293C1057.8,293 1056.8,294.5 1056.5,296.3C1055.5,300.8 1051.6,308.1 1048.8,310.7C1043,316.1 1032.2,318.8 1023.3,317C1018.5,316 1016.8,315 1013.3,311.4C1007.2,305.1 1005.5,298.1 1005.9,280.8L1006,277L1059.3,277L1058.8,269.6C1058,257.4 1051.5,247.4 1041.1,242.7C1034.1,239.4 1021.5,239.6 1013.8,243.2C1003.1,248.1 995.7,257 991.9,269.1C983.8,295 1004.3,321.3 1031.2,319.6C1034.9,319.3 1039.9,318.3 1042.2,317.2ZM1006.4,273.7C1005.4,270.9 1008.7,255.1 1011.4,250.6C1015.6,243.4 1025.6,240 1033.7,243.1C1040.8,245.8 1045,253.9 1045,265C1045,274 1044.4,274.3 1024,274.8C1009.4,275.2 1007,275 1006.4,273.7Z"/>
            <path d="M1471.6,318.5C1477.6,316.7 1483.2,312.3 1485.4,307.5C1486.3,305.6 1487.5,304 1488,304C1488.6,304 1489,307.4 1489,311.6L1489,319.3L1498.2,318.6C1503.2,318.3 1509.9,318 1513.2,318C1520.3,318 1520.8,316.5 1514,315.6C1510.9,315.2 1508,314 1506.3,312.6L1503.5,310.2L1503.2,258.5L1502.9,206.8L1498.7,207.3C1496.4,207.7 1489.7,208.2 1483.8,208.6C1477.8,208.9 1473,209.6 1473,210.1C1473,210.6 1474.7,211 1476.9,211C1482.5,211 1487,212.9 1488.1,215.7C1489.3,218.9 1489.3,256 1488.1,256C1487.6,256 1486.9,255.1 1486.5,254.1C1485.2,249.9 1479.7,243.8 1475.7,241.9C1466.4,237.7 1453.1,240.5 1444.2,248.6C1433.8,257.9 1429.5,268.5 1430.2,283.1C1430.6,290.7 1431.1,292.8 1434.3,299.3C1442.2,315.2 1457,322.9 1471.6,318.5ZM1459,315.8C1450.5,311.5 1447,302.8 1446.3,284.3C1445.4,264.3 1448.9,251.2 1456.6,245.4C1459.9,242.9 1461.2,242.5 1467,242.5C1472.8,242.5 1474.2,242.9 1477.3,245.3C1479.4,246.9 1482.2,250.4 1483.6,253.3C1490.4,266.5 1490.6,293 1484.1,305.7C1480.5,312.8 1472.7,318 1465.5,318C1464.3,318 1461.4,317 1459,315.8Z"/>
            <path d="M945.3,613.4C949.7,610.5 952.4,606.4 954.6,599.5C956.5,593.2 957.7,578 956.3,578C955.7,578 955,581.1 954.7,584.8C953.7,597.5 949.3,604 941.9,604C936.8,604 933.3,600.8 930.9,594L929,588.5L931.8,586.5C933.3,585.4 937.9,581.2 942,577C951,568 956.1,558.6 958.6,546.1C963.6,521 950.4,493.7 928,482.7C921.9,479.7 920.8,479.5 911,479.5C901,479.5 900.1,479.7 893.5,482.9C875.3,491.8 861.9,514 862,535.3C862.1,564.4 884.8,590.8 910.1,591.4L916.8,591.5L917.4,597C918.1,603 921,609.8 924,612.5C929.4,617.4 938.5,617.7 945.3,613.4ZM906.5,588.5C894.4,582.2 896.7,562.2 909.3,563.2C915.7,563.7 917.5,567 917.5,578.5C917.5,583.6 917.2,588.1 916.9,588.5C915.4,589.9 909.3,590 906.5,588.5ZM896.5,586.4C889.6,582.8 884.7,575.2 881.2,562.8C878.7,553.6 878.8,516.3 881.4,507.1C885.1,493.5 892.3,484.6 901.5,482C907.8,480.2 919.4,481.1 924.6,483.8C937.9,490.6 943.7,508.7 942.7,540C941.9,562 939.2,572.3 931.7,581.5L929.3,584.4L928.6,581C925.9,567.9 921.3,562 913.1,561.2C906.6,560.6 903.9,561.4 900.7,564.6C895.6,569.7 895.3,578.8 900,585.2C902.4,588.4 901.2,588.9 896.5,586.4Z"/>
        </g>
    </g>
</svg>
